<svg id="Слой_1" data-name="Слой 1" xmlns="http://www.w3.org/2000/svg" viewBox="0 0 421.52 421.66"><title>digitalocean-2</title><path d="M210,421.66v-82c87,0,154.07-85.75,120.53-176.5a122.26,122.26,0,0,0-73.3-73.3A129.59,129.59,0,0,0,82,210.36H0C0,73.63,133-34.5,278.32,10.26a203.17,203.17,0,0,1,133,133C456,288.68,347.9,421.66,210,421.66Z" fill="#0080ff"/><polyline points="211.23 339.62 129.22 339.62 129.22 258.83 211.23 258.83" fill="#0080ff"/><polyline points="129.22 403.02 67.09 403.02 67.09 339.62 129.22 339.62 129.22 403.02" fill="#0080ff"/><polyline points="67.09 339.62 14.97 339.62 14.97 287.43 67.09 287.43" fill="#0080ff"/></svg>