<?xml version="1.0" encoding="UTF-8" standalone="no"?>
<!-- Generator: Adobe Illustrator 22.1.0, SVG Export Plug-In . SVG Version: 6.00 Build 0)  -->

<svg
   xmlns:dc="http://purl.org/dc/elements/1.1/"
   xmlns:cc="http://creativecommons.org/ns#"
   xmlns:rdf="http://www.w3.org/1999/02/22-rdf-syntax-ns#"
   xmlns:svg="http://www.w3.org/2000/svg"
   xmlns="http://www.w3.org/2000/svg"
   xmlns:sodipodi="http://sodipodi.sourceforge.net/DTD/sodipodi-0.dtd"
   xmlns:inkscape="http://www.inkscape.org/namespaces/inkscape"
   version="1.1"
   id="Layer_1"
   x="0px"
   y="0px"
   viewBox="0 0 254.5 225"
   style="enable-background:new 0 0 254.5 225;"
   xml:space="preserve"
   sodipodi:docname="Go-Logo_Aqua_disabled.svg"
   inkscape:version="0.92.3 (2405546, 2018-03-11)"><metadata
   id="metadata56"><rdf:RDF><cc:Work
       rdf:about=""><dc:format>image/svg+xml</dc:format><dc:type
         rdf:resource="http://purl.org/dc/dcmitype/StillImage" /><dc:title></dc:title></cc:Work></rdf:RDF></metadata><defs
   id="defs54" /><sodipodi:namedview
   pagecolor="#ffffff"
   bordercolor="#666666"
   borderopacity="1"
   objecttolerance="10"
   gridtolerance="10"
   guidetolerance="10"
   inkscape:pageopacity="0"
   inkscape:pageshadow="2"
   inkscape:window-width="1920"
   inkscape:window-height="1015"
   id="namedview52"
   showgrid="false"
   inkscape:zoom="5.2231621"
   inkscape:cx="108.85681"
   inkscape:cy="96.154334"
   inkscape:window-x="1920"
   inkscape:window-y="0"
   inkscape:window-maximized="1"
   inkscape:current-layer="Layer_1" />
<style
   type="text/css"
   id="style10">
	.st0{fill:#2DBCAF;}
	.st1{fill:#5DC9E1;}
	.st2{fill:#FDDD00;}
	.st3{fill:#CE3262;}
	.st4{fill:#00ACD7;}
	.st5{fill:#FFFFFF;}
</style>
<g
   id="g49">
	<g
   id="g18">
		<g
   id="g16">
			<g
   id="g14">
				<path
   class="st0"
   d="M40.2,101.1c-0.4,0-0.5-0.2-0.3-0.5l2.1-2.7c0.2-0.3,0.7-0.5,1.1-0.5l35.7,0c0.4,0,0.5,0.3,0.3,0.6      l-1.7,2.6c-0.2,0.3-0.7,0.6-1,0.6L40.2,101.1z"
   id="path12" />
			</g>
		</g>
	</g>
	<g
   id="g26">
		<g
   id="g24">
			<g
   id="g22">
				<path
   class="st0"
   d="M25.1,110.3c-0.4,0-0.5-0.2-0.3-0.5l2.1-2.7c0.2-0.3,0.7-0.5,1.1-0.5l45.6,0c0.4,0,0.6,0.3,0.5,0.6      l-0.8,2.4c-0.1,0.4-0.5,0.6-0.9,0.6L25.1,110.3z"
   id="path20" />
			</g>
		</g>
	</g>
	<g
   id="g34">
		<g
   id="g32">
			<g
   id="g30">
				<path
   class="st0"
   d="M49.3,119.5c-0.4,0-0.5-0.3-0.3-0.6l1.4-2.5c0.2-0.3,0.6-0.6,1-0.6l20,0c0.4,0,0.6,0.3,0.6,0.7l-0.2,2.4      c0,0.4-0.4,0.7-0.7,0.7L49.3,119.5z"
   id="path28" />
			</g>
		</g>
	</g>
	<g
   id="g47">
		<g
   id="CXHf1q_1_">
			<g
   id="g44">
				<g
   id="g38">
					<path
   class="st0"
   d="M153.1,99.3c-6.3,1.6-10.6,2.8-16.8,4.4c-1.5,0.4-1.6,0.5-2.9-1c-1.5-1.7-2.6-2.8-4.7-3.8       c-6.3-3.1-12.4-2.2-18.1,1.5c-6.8,4.4-10.3,10.9-10.2,19c0.1,8,5.6,14.6,13.5,15.7c6.8,0.9,12.5-1.5,17-6.6       c0.9-1.1,1.7-2.3,2.7-3.7c-3.6,0-8.1,0-19.3,0c-2.1,0-2.6-1.3-1.9-3c1.3-3.1,3.7-8.3,5.1-10.9c0.3-0.6,1-1.6,2.5-1.6       c5.1,0,23.9,0,36.4,0c-0.2,2.7-0.2,5.4-0.6,8.1c-1.1,7.2-3.8,13.8-8.2,19.6c-7.2,9.5-16.6,15.4-28.5,17       c-9.8,1.3-18.9-0.6-26.9-6.6c-7.4-5.6-11.6-13-12.7-22.2c-1.3-10.9,1.9-20.7,8.5-29.3c7.1-9.3,16.5-15.2,28-17.3       c9.4-1.7,18.4-0.6,26.5,4.9c5.3,3.5,9.1,8.3,11.6,14.1C154.7,98.5,154.3,99,153.1,99.3z"
   id="path36" />
				</g>
				<g
   id="g42">
					<path
   class="st0"
   d="M186.2,154.6c-9.1-0.2-17.4-2.8-24.4-8.8c-5.9-5.1-9.6-11.6-10.8-19.3c-1.8-11.3,1.3-21.3,8.1-30.2       c7.3-9.6,16.1-14.6,28-16.7c10.2-1.8,19.8-0.8,28.5,5.1c7.9,5.4,12.8,12.7,14.1,22.3c1.7,13.5-2.2,24.5-11.5,33.9       c-6.6,6.7-14.7,10.9-24,12.8C191.5,154.2,188.8,154.3,186.2,154.6z M210,114.2c-0.1-1.3-0.1-2.3-0.3-3.3       c-1.8-9.9-10.9-15.5-20.4-13.3c-9.3,2.1-15.3,8-17.5,17.4c-1.8,7.8,2,15.7,9.2,18.9c5.5,2.4,11,2.1,16.3-0.6       C205.2,129.2,209.5,122.8,210,114.2z"
   id="path40" />
				</g>
			</g>
		</g>
	</g>
</g>
<path
   style="fill:#338f8d;fill-opacity:0;stroke-width:0.1914549"
   d="m 182.62439,154.31554 c -11.081,-1.04372 -20.91956,-6.66745 -26.67555,-15.24777 -1.42359,-2.12211 -2.80614,-4.93012 -3.50515,-7.11907 -0.3013,-0.94351 -0.59089,-1.71605 -0.64354,-1.71676 -0.0526,-7.7e-4 -0.4299,0.62186 -0.83834,1.3835 -3.22198,6.00827 -8.63312,11.94712 -14.38145,15.78396 -10.09918,6.74091 -23.53067,8.72297 -34.53247,5.09588 -2.570744,-0.84753 -6.66514,-2.94285 -9.016764,-4.61437 -3.384303,-2.40553 -6.978404,-6.20191 -9.012697,-9.51994 -4.284972,-6.98898 -5.739008,-16.43817 -3.918941,-25.46759 2.347681,-11.64692 11.283549,-23.426924 22.342522,-29.453763 7.53294,-4.105249 17.25318,-6.142671 25.1945,-5.280921 7.39203,0.802144 14.29701,4.088334 19.46492,9.263674 1.16301,1.164682 2.69343,2.936074 3.40093,3.936426 1.28492,1.81679 3.7867,6.404007 3.7867,6.943221 0,0.156849 -0.1212,0.385772 -0.26934,0.508717 -0.32222,0.267414 -18.18198,4.984616 -18.89012,4.989346 -0.37177,0.002 -0.98824,-0.48995 -2.51309,-2.00743 -1.83302,-1.824164 -2.20629,-2.099476 -4.02319,-2.967393 -2.9156,-1.392748 -4.49799,-1.768593 -7.52168,-1.786529 -3.07454,-0.01825 -4.79052,0.389743 -7.84965,1.866297 -6.59158,3.181555 -10.96235,8.550435 -12.40426,15.236905 -0.57004,2.64337 -0.55804,7.14752 0.0247,9.28556 1.60522,5.88917 5.95183,10.1647 11.65163,11.46109 6.4474,1.46643 12.83456,-0.51714 17.58571,-5.46135 1.17896,-1.22687 3.53213,-4.31868 3.53213,-4.64084 0,-0.0629 -4.5274,-0.11444 -10.06089,-0.11444 -8.53562,0 -10.14446,-0.0432 -10.61218,-0.28508 -0.65266,-0.33751 -0.85161,-0.84656 -0.68272,-1.74684 0.23828,-1.27014 5.06508,-11.55845 5.81413,-12.3928 0.72195,-0.80415 0.49175,-0.7925 17.61127,-0.89167 l 16.52446,-0.0957 0.99931,-2.48891 c 2.28024,-5.67926 5.49418,-10.450909 10.2646,-15.239583 2.57253,-2.582369 4.99255,-4.529492 7.57146,-6.091904 6.57011,-3.980453 16.21346,-6.524246 24.73574,-6.524974 7.4783,-6.4e-4 13.83354,1.896564 19.79581,5.909559 8.26904,5.565602 13.02449,13.332556 14.14069,23.095622 0.29794,2.60598 0.24596,8.17809 -0.0994,10.65412 -1.13273,8.12133 -4.77302,15.28158 -11.05004,21.7348 -2.788,2.86625 -4.5122,4.33333 -7.32742,6.2347 -6.43946,4.34913 -13.2099,6.76828 -21.30009,7.61074 -3.96476,0.41286 -4.51502,0.42502 -7.31228,0.16154 z m 10.24751,-19.27317 c 6.19354,-1.61605 11.93275,-6.10907 14.71412,-11.51915 1.7629,-3.42903 2.3262,-5.81626 2.30402,-9.7642 -0.0148,-2.64001 -0.0731,-3.15344 -0.52824,-4.6517 -1.8808,-6.19172 -6.62373,-10.567721 -12.71753,-11.733658 -6.33143,-1.2114 -14.64903,1.664685 -19.32408,6.681938 -3.58234,3.84455 -5.99164,9.76915 -5.99164,14.73374 0,8.22274 5.27957,14.60591 13.5933,16.43474 2.16121,0.47541 5.74558,0.39349 7.95005,-0.18171 z"
   id="path4593"
   inkscape:connector-curvature="0" /><path
   style="fill:#338f8d;fill-opacity:0;stroke-width:0.1914549"
   d="m 183.73483,154.40951 c -8.88767,-0.75477 -16.25868,-3.74353 -22.22696,-9.01247 -4.13569,-3.65109 -7.47685,-8.62478 -9.1371,-13.60161 -0.25618,-0.76794 -0.50941,-1.43988 -0.56274,-1.49321 -0.0533,-0.0533 -0.50677,0.66115 -1.00765,1.58771 -1.9174,3.54694 -4.59005,7.01502 -7.96566,10.3364 -3.5097,3.45331 -6.41929,5.57747 -10.27605,7.50208 -3.89415,1.94326 -6.79375,2.93407 -10.95096,3.742 -11.08884,2.15506 -21.07374,0.0531 -29.365328,-6.18192 -8.078773,-6.07496 -12.425013,-14.57693 -12.882946,-25.20118 -0.485358,-11.26054 4.159579,-22.222745 13.223188,-31.207152 5.921443,-5.869697 12.837486,-9.714055 20.990236,-11.667657 9.74418,-2.334948 19.01938,-1.332149 26.41452,2.855837 6.06168,3.432825 10.18515,7.761875 13.24205,13.902265 0.93781,1.883771 1.09751,2.342294 0.92686,2.661153 -0.1134,0.211879 -0.2389,0.385236 -0.2789,0.385236 -0.04,0 -4.16774,1.076938 -9.17277,2.393188 -5.00502,1.31625 -9.32362,2.39318 -9.59689,2.39318 -0.37707,0 -0.96821,-0.47826 -2.45202,-1.98381 -1.77733,-1.80336 -2.13797,-2.072407 -3.96481,-2.957784 -6.50779,-3.154014 -13.11388,-2.328891 -19.46835,2.431664 -5.85393,4.38557 -8.87053,10.37489 -8.86489,17.60086 0.004,4.90923 1.46204,8.58132 4.6892,11.80849 2.67692,2.67692 5.49811,4.04676 9.29303,4.51228 5.82636,0.71471 11.84903,-1.5205 15.90704,-5.90363 0.92284,-0.99678 3.42244,-4.3187 3.42244,-4.54835 0,-0.0501 -4.61319,-0.0911 -10.25154,-0.0911 h -10.25154 l -0.49319,-0.49319 c -0.4148,-0.4148 -0.47882,-0.62074 -0.40276,-1.29554 0.18971,-1.68308 5.2893,-12.39297 6.21338,-13.04903 0.52679,-0.37399 0.92676,-0.38513 17.17822,-0.47863 l 16.63887,-0.0957 0.45152,-1.34019 c 0.70944,-2.10573 2.75278,-6.15367 4.31112,-8.540481 6.5753,-10.070989 15.09403,-16.166088 26.43365,-18.913122 13.93693,-3.376231 25.44969,-1.284195 34.69961,6.305425 7.68414,6.30488 11.38448,14.104318 11.72073,24.704488 0.22027,6.94395 -0.86221,12.27064 -3.67512,18.0846 -3.34899,6.92199 -9.49738,13.64007 -16.40618,17.92635 -4.00026,2.48178 -9.98412,4.89664 -14.61402,5.89766 -2.05317,0.44391 -8.4402,1.1694 -9.85993,1.11998 -0.47385,-0.0165 -1.20616,-0.0593 -1.62736,-0.095 z m 7.89744,-19.11411 c 7.10203,-1.34723 13.93853,-6.75406 16.64044,-13.16053 3.67233,-8.70742 1.30639,-17.81788 -5.82531,-22.43135 -5.4075,-3.498091 -12.46246,-3.466025 -19.3816,0.08809 -2.33267,1.19821 -3.88683,2.36608 -5.74969,4.32057 -4.04165,4.24044 -6.50793,11.13686 -5.91261,16.53329 0.70511,6.39158 4.75169,11.57888 10.7513,13.78205 1.09457,0.40195 2.96596,0.89449 3.87749,1.02055 1.37878,0.19068 4.19468,0.11391 5.59998,-0.15267 z"
   id="path4595"
   inkscape:connector-curvature="0" /><path
   style="fill:#338f8d;fill-opacity:0;stroke-width:0.1914549"
   d="m 183.73483,154.40951 c -8.88767,-0.75477 -16.25868,-3.74353 -22.22696,-9.01247 -4.13569,-3.65109 -7.47685,-8.62478 -9.1371,-13.60161 -0.25618,-0.76794 -0.50941,-1.43988 -0.56274,-1.49321 -0.0533,-0.0533 -0.50677,0.66115 -1.00765,1.58771 -1.9174,3.54694 -4.59005,7.01502 -7.96566,10.3364 -3.5097,3.45331 -6.41929,5.57747 -10.27605,7.50208 -3.89415,1.94326 -6.79375,2.93407 -10.95096,3.742 -11.08884,2.15506 -21.07374,0.0531 -29.365328,-6.18192 -8.078773,-6.07496 -12.425013,-14.57693 -12.882946,-25.20118 -0.485358,-11.26054 4.159579,-22.222745 13.223188,-31.207152 5.921443,-5.869697 12.837486,-9.714055 20.990236,-11.667657 9.74418,-2.334948 19.01938,-1.332149 26.41452,2.855837 6.06168,3.432825 10.18515,7.761875 13.24205,13.902265 0.93781,1.883771 1.09751,2.342294 0.92686,2.661153 -0.1134,0.211879 -0.2389,0.385236 -0.2789,0.385236 -0.04,0 -4.16774,1.076938 -9.17277,2.393188 -5.00502,1.31625 -9.32362,2.39318 -9.59689,2.39318 -0.37707,0 -0.96821,-0.47826 -2.45202,-1.98381 -1.77733,-1.80336 -2.13797,-2.072407 -3.96481,-2.957784 -6.50779,-3.154014 -13.11388,-2.328891 -19.46835,2.431664 -5.85393,4.38557 -8.87053,10.37489 -8.86489,17.60086 0.004,4.90923 1.46204,8.58132 4.6892,11.80849 2.67692,2.67692 5.49811,4.04676 9.29303,4.51228 5.82636,0.71471 11.84903,-1.5205 15.90704,-5.90363 0.92284,-0.99678 3.42244,-4.3187 3.42244,-4.54835 0,-0.0501 -4.61319,-0.0911 -10.25154,-0.0911 h -10.25154 l -0.49319,-0.49319 c -0.4148,-0.4148 -0.47882,-0.62074 -0.40276,-1.29554 0.18971,-1.68308 5.2893,-12.39297 6.21338,-13.04903 0.52679,-0.37399 0.92676,-0.38513 17.17822,-0.47863 l 16.63887,-0.0957 0.45152,-1.34019 c 0.70944,-2.10573 2.75278,-6.15367 4.31112,-8.540481 6.5753,-10.070989 15.09403,-16.166088 26.43365,-18.913122 13.93693,-3.376231 25.44969,-1.284195 34.69961,6.305425 7.68414,6.30488 11.38448,14.104318 11.72073,24.704488 0.22027,6.94395 -0.86221,12.27064 -3.67512,18.0846 -3.34899,6.92199 -9.49738,13.64007 -16.40618,17.92635 -4.00026,2.48178 -9.98412,4.89664 -14.61402,5.89766 -2.05317,0.44391 -8.4402,1.1694 -9.85993,1.11998 -0.47385,-0.0165 -1.20616,-0.0593 -1.62736,-0.095 z m 7.89744,-19.11411 c 7.10203,-1.34723 13.93853,-6.75406 16.64044,-13.16053 3.67233,-8.70742 1.30639,-17.81788 -5.82531,-22.43135 -5.4075,-3.498091 -12.46246,-3.466025 -19.3816,0.08809 -2.33267,1.19821 -3.88683,2.36608 -5.74969,4.32057 -4.04165,4.24044 -6.50793,11.13686 -5.91261,16.53329 0.70511,6.39158 4.75169,11.57888 10.7513,13.78205 1.09457,0.40195 2.96596,0.89449 3.87749,1.02055 1.37878,0.19068 4.19468,0.11391 5.59998,-0.15267 z"
   id="path4597"
   inkscape:connector-curvature="0" /><path
   style="fill:#338f8d;fill-opacity:1;stroke-width:0.1914549"
   d="m 49.128024,119.24802 c -0.120521,-0.31407 1.126828,-2.5888 1.672253,-3.0496 0.371122,-0.31354 1.104642,-0.33329 10.66598,-0.28718 l 10.267451,0.0495 0.05585,1.25886 c 0.03072,0.69237 -0.03177,1.4893 -0.138853,1.77095 l -0.194702,0.51211 H 60.340871 c -9.072225,0 -11.133091,-0.0468 -11.212847,-0.25465 z"
   id="path4599"
   inkscape:connector-curvature="0" /><path
   style="fill:#338f8d;fill-opacity:1;stroke-width:0.1914549"
   d="m 183.73483,154.40951 c -8.88767,-0.75477 -16.25868,-3.74353 -22.22696,-9.01247 -4.13569,-3.65109 -7.47685,-8.62478 -9.1371,-13.60161 -0.25618,-0.76794 -0.50941,-1.43988 -0.56274,-1.49321 -0.0533,-0.0533 -0.50677,0.66115 -1.00765,1.58771 -1.9174,3.54694 -4.59005,7.01502 -7.96566,10.3364 -3.5097,3.45331 -6.41929,5.57747 -10.27605,7.50208 -3.89415,1.94326 -6.79375,2.93407 -10.95096,3.742 -11.08884,2.15506 -21.07374,0.0531 -29.365328,-6.18192 -8.078773,-6.07496 -12.425013,-14.57693 -12.882946,-25.20118 -0.485358,-11.26054 4.159579,-22.222745 13.223188,-31.207152 5.921443,-5.869697 12.837486,-9.714055 20.990236,-11.667657 9.74418,-2.334948 19.01938,-1.332149 26.41452,2.855837 6.06168,3.432825 10.18515,7.761875 13.24205,13.902265 0.93781,1.883771 1.09751,2.342294 0.92686,2.661153 -0.1134,0.211879 -0.2389,0.385236 -0.2789,0.385236 -0.04,0 -4.16774,1.076938 -9.17277,2.393188 -5.00502,1.31625 -9.32362,2.39318 -9.59689,2.39318 -0.37707,0 -0.96821,-0.47826 -2.45202,-1.98381 -1.77733,-1.80336 -2.13797,-2.072407 -3.96481,-2.957784 -6.50779,-3.154014 -13.11388,-2.328891 -19.46835,2.431664 -5.85393,4.38557 -8.87053,10.37489 -8.86489,17.60086 0.004,4.90923 1.46204,8.58132 4.6892,11.80849 2.67692,2.67692 5.49811,4.04676 9.29303,4.51228 5.82636,0.71471 11.84903,-1.5205 15.90704,-5.90363 0.92284,-0.99678 3.42244,-4.3187 3.42244,-4.54835 0,-0.0501 -4.61319,-0.0911 -10.25154,-0.0911 h -10.25154 l -0.49319,-0.49319 c -0.4148,-0.4148 -0.47882,-0.62074 -0.40276,-1.29554 0.18971,-1.68308 5.2893,-12.39297 6.21338,-13.04903 0.52679,-0.37399 0.92676,-0.38513 17.17822,-0.47863 l 16.63887,-0.0957 0.45152,-1.34019 c 0.70944,-2.10573 2.75278,-6.15367 4.31112,-8.540481 6.5753,-10.070989 15.09403,-16.166088 26.43365,-18.913122 13.93693,-3.376231 25.44969,-1.284195 34.69961,6.305425 7.68414,6.30488 11.38448,14.104318 11.72073,24.704488 0.22027,6.94395 -0.86221,12.27064 -3.67512,18.0846 -3.34899,6.92199 -9.49738,13.64007 -16.40618,17.92635 -4.00026,2.48178 -9.98412,4.89664 -14.61402,5.89766 -2.05317,0.44391 -8.4402,1.1694 -9.85993,1.11998 -0.47385,-0.0165 -1.20616,-0.0593 -1.62736,-0.095 z m 7.89744,-19.11411 c 7.10203,-1.34723 13.93853,-6.75406 16.64044,-13.16053 3.67233,-8.70742 1.30639,-17.81788 -5.82531,-22.43135 -5.4075,-3.498091 -12.46246,-3.466025 -19.3816,0.08809 -2.33267,1.19821 -3.88683,2.36608 -5.74969,4.32057 -4.04165,4.24044 -6.50793,11.13686 -5.91261,16.53329 0.70511,6.39158 4.75169,11.57888 10.7513,13.78205 1.09457,0.40195 2.96596,0.89449 3.87749,1.02055 1.37878,0.19068 4.19468,0.11391 5.59998,-0.15267 z"
   id="path4601"
   inkscape:connector-curvature="0" /><path
   style="fill:#338f8d;fill-opacity:1;stroke-width:0.1914549"
   d="m 24.907861,110.11211 c -0.210747,-0.13035 2.14575,-3.14048 2.592854,-3.31205 0.178976,-0.0687 10.700006,-0.12487 23.380068,-0.12487 H 73.93544 v 0.44146 c 0,0.2428 -0.180345,0.97549 -0.400769,1.6282 -0.297699,0.88154 -0.506961,1.21077 -0.813683,1.28017 -0.576494,0.13045 -47.604533,0.21611 -47.813127,0.0871 z"
   id="path4603"
   inkscape:connector-curvature="0" /><path
   style="fill:#338f8d;fill-opacity:1;stroke-width:0.1914549"
   d="m 40.842507,100.9482 -1.024236,-0.11239 1.184506,-1.530645 c 0.651478,-0.841856 1.284693,-1.59439 1.407145,-1.672298 0.36832,-0.234336 36.6948,-0.180437 36.6948,0.05445 0,0.235298 -1.40636,2.374703 -1.975305,3.004903 L 76.740516,101.123 59.303631,101.0918 C 49.713342,101.0746 41.405837,101.01 40.842507,100.94821 Z"
   id="path4605"
   inkscape:connector-curvature="0" /><path
   style="fill:#338f8d;fill-opacity:1;stroke-width:0.1914549"
   d="m 50.147168,119.36194 c -1.099146,-0.0867 -1.13771,-0.27518 -0.341114,-1.66749 1.08637,-1.89878 -0.0047,-1.73644 11.518289,-1.71379 5.571555,0.011 10.1815,0.0713 10.244322,0.13414 0.241047,0.24105 0.290489,1.80068 0.08167,2.57618 l -0.218565,0.81169 -10.187594,-0.0345 c -5.603177,-0.019 -10.596829,-0.0668 -11.097005,-0.10622 z"
   id="path4607"
   inkscape:connector-curvature="0" /></svg>