<svg id="bd75e87b-e576-457b-9875-bc6a5ea9886a" data-name="Layer 1" xmlns="http://www.w3.org/2000/svg" viewBox="0 0 205.39 76.73"><title>golang_16</title><g id="ce7969ef-5df4-4f6c-bd72-947ff587dd99" data-name="g49"><g id="99e7fc91-0313-4ad7-b2f3-cdb47c9398f0" data-name="g18"><g id="226f9965-401f-467c-9026-01ad8161d729" data-name="g16"><g id="cc1169f0-8e12-4019-aa8d-b32bcf34179b" data-name="g14"><path id="21523734-d8a5-4d30-9750-2530419c48d2" data-name="path12" d="M15.5,87.56c-.4,0-.5-.2-.3-.5l2.1-2.7a1.43,1.43,0,0,1,1.1-.5H54.1c.4,0,.5.3.3.6l-1.7,2.6a1.52,1.52,0,0,1-1,.6Z" transform="translate(0 -64.33)" fill="#2dbcaf"/></g></g></g><g id="fb12bb36-58b6-48d2-a504-1ed214b59f0e" data-name="g26"><g id="41d1037b-1358-45a6-8943-8343a8cafeae" data-name="g24"><g id="bcb43e7a-8826-487a-b2bf-0b6a4cf9b6e1" data-name="g22"><path id="a3bb1563-ba94-4628-9fc6-13f88f21549e" data-name="path20" d="M.4,96.76c-.4,0-.5-.2-.3-.5l2.1-2.7a1.43,1.43,0,0,1,1.1-.5H48.9a.46.46,0,0,1,.5.6l-.8,2.4a.87.87,0,0,1-.9.6Z" transform="translate(0 -64.33)" fill="#2dbcaf"/></g></g></g><g id="95cdfca3-7c2a-4e98-affa-0464e702e78f" data-name="g34"><g id="861da78e-711f-4352-928d-eaa740f38121" data-name="g32"><g id="dbe7422d-17d5-4ebe-936d-291a06ac20fe" data-name="g30"><path id="70be35c9-73bb-4e35-aa4b-505a2990e63e" data-name="path28" d="M24.6,106c-.4,0-.5-.3-.3-.6l1.4-2.5a1.33,1.33,0,0,1,1-.6h20c.4,0,.6.3.6.7l-.2,2.4a.75.75,0,0,1-.7.7Z" transform="translate(0 -64.33)" fill="#2dbcaf"/></g></g></g><g id="011223ce-b1a4-488e-9a23-3250dab1fe57" data-name="g47"><g id="a5bb245c-91ef-4933-8854-6e958fb02e8c" data-name="CXHf1q"><g id="27b49da4-e805-498a-a8f8-f21f8f9d0a61" data-name="g44"><g id="c94f7660-dd51-4af8-b3af-73df9a989b24" data-name="g38"><path id="9fec1ed7-6a9c-42e0-bd64-863c99519bfa" data-name="path36" d="M128.4,85.76c-6.3,1.6-10.6,2.8-16.8,4.4-1.5.4-1.6.5-2.9-1a13.39,13.39,0,0,0-4.7-3.8c-6.3-3.1-12.4-2.2-18.1,1.5a21.27,21.27,0,0,0-10.2,19,15.68,15.68,0,0,0,13.5,15.7c6.8.9,12.5-1.5,17-6.6.9-1.1,1.7-2.3,2.7-3.7H89.6c-2.1,0-2.6-1.3-1.9-3,1.3-3.1,3.7-8.3,5.1-10.9a2.7,2.7,0,0,1,2.5-1.6h36.4c-.2,2.7-.2,5.4-.6,8.1a42.65,42.65,0,0,1-8.2,19.6c-7.2,9.5-16.6,15.4-28.5,17-9.8,1.3-18.9-.6-26.9-6.6a31.41,31.41,0,0,1-12.7-22.2c-1.3-10.9,1.9-20.7,8.5-29.3a44.38,44.38,0,0,1,28-17.3c9.4-1.7,18.4-.6,26.5,4.9a31.35,31.35,0,0,1,11.6,14.1c.6.9.2,1.4-1,1.7Z" transform="translate(0 -64.33)" fill="#2dbcaf"/></g><g id="c18f30ca-0dd9-41e2-a35e-5d5f0665e872" data-name="g42"><path id="6b288b3e-cbe2-4b5b-b1ff-d1519c2fc33e" data-name="path40" d="M161.5,141.06c-9.1-.2-17.4-2.8-24.4-8.8A31.36,31.36,0,0,1,126.3,113c-1.8-11.3,1.3-21.3,8.1-30.2,7.3-9.6,16.1-14.6,28-16.7,10.2-1.8,19.8-.8,28.5,5.1,7.9,5.4,12.8,12.7,14.1,22.3,1.7,13.5-2.2,24.5-11.5,33.9a45.82,45.82,0,0,1-24,12.8c-2.7.5-5.4.6-8,.9Zm23.8-40.4a28.78,28.78,0,0,0-.3-3.3c-1.8-9.9-10.9-15.5-20.4-13.3-9.3,2.1-15.3,8-17.5,17.4a16.47,16.47,0,0,0,9.2,18.9,18.33,18.33,0,0,0,16.3-.6C180.5,115.66,184.8,109.26,185.3,100.66Z" transform="translate(0 -64.33)" fill="#2dbcaf"/></g></g></g></g></g></svg>