<svg xmlns="http://www.w3.org/2000/svg" viewBox="0 0 31.5 27.91"><title>google cloud</title><g id="Слой_2" data-name="Слой 2"><path d="M10,23.47,4.48,13.88,10,4.29H21.09l5.54,9.59-5.54,9.59H10" fill="#cac9c2"/><path d="M15.74,18.25a4.32,4.32,0,1,1,4.32-4.32,4.32,4.32,0,0,1-4.32,4.32" fill="#fff"/><path d="M24.42,1.07A2.37,2.37,0,0,0,22.57,0H8.93A2.37,2.37,0,0,0,7.08,1.07L3.09,8a2.27,2.27,0,0,0,.25,1.25L6,13.84l4.82-8.32H26.08a2.23,2.23,0,0,1,1.11.35l-2.77-4.8" fill="#5072aa"/><path d="M3.26,7.67,3.09,8a2.27,2.27,0,0,0,.25,1.25L6,13.84l1.44-2.48L3.26,7.67" fill="#4d6796"/><path d="M9.28,3.55a.83.83,0,1,1,.83-.83.83.83,0,0,1-.83.83m13.64-.83a.77.77,0,1,1-1.54,0v0a.77.77,0,0,1,1.54,0Z" fill="#fff"/><path d="M31.25,12.89l-4.05-7a2.22,2.22,0,0,0-1.11-.35H20.59l4.75,8.37L17.82,27.17a2.17,2.17,0,0,1-.77.74h5.53a2.37,2.37,0,0,0,1.85-1.07L31.25,15a2.37,2.37,0,0,0,0-2.14" fill="#cc4232"/><path d="M27.38,6.18l-.18-.32a2.22,2.22,0,0,0-1.11-.35H20.59L22,8l5.36-1.85" fill="#b23f33"/><path d="M22.15,25.87A.83.83,0,1,1,23,25a.83.83,0,0,1-.83.83m6.48-11.1a.83.83,0,1,1,.83-.83.83.83,0,0,1-.83.83" fill="#fff"/><path d="M11,22.26l-7.62-13A2.27,2.27,0,0,1,3.09,8L.25,12.89A2.37,2.37,0,0,0,.25,15L7.08,26.84a2.37,2.37,0,0,0,1.85,1.07H17a2.17,2.17,0,0,0,.77-.74l2.78-4.91H11" fill="#ecb02a"/><path d="M16.59,27.91h.47a2.17,2.17,0,0,0,.77-.74l2.78-4.91h-3l-1.07,5.65" fill="#c79732"/><path d="M9.28,25.87a.83.83,0,1,1,.83-.83.83.83,0,0,1-.83.83M2.79,14.77a.83.83,0,1,1,.83-.83.83.83,0,0,1-.83.83" fill="#fff"/></g></svg>