<?xml version="1.0" encoding="utf-8"?>
<!-- Generator: Adobe Illustrator 21.1.0, SVG Export Plug-In . SVG Version: 6.00 Build 0)  -->
<svg version="1.1" id="Слой_1" xmlns="http://www.w3.org/2000/svg" xmlns:xlink="http://www.w3.org/1999/xlink" x="0px" y="0px"
	 viewBox="0 0 24.6 32.5" enable-background="new 0 0 24.6 32.5" xml:space="preserve">
<g>
	<path fill="#E76F00" d="M13.789,15.301c1.544,1.777-0.406,3.376-0.406,3.376s3.919-2.023,2.119-4.557
		c-1.681-2.363-2.97-3.537,4.009-7.584C19.511,6.536,8.556,9.272,13.789,15.301"/>
	<path fill="#E76F00" d="M15.502,0c0,0,3.325,3.326-3.154,8.441c-5.195,4.103-1.185,6.442-0.002,9.115
		c-3.032-2.736-5.258-5.145-3.765-7.386C10.773,6.879,16.844,5.283,15.502,0"/>
	<g>
		<g>
			<path fill="#FFFFFF" d="M11.67,27.641c-2.512,0-5.2-0.659-5.351-1.761c-0.079-0.572,0.498-1.035,1.714-1.375l0.193,0.457
				c-0.105,0.062-0.222,0.173-0.231,0.221c0.001,0,0.001,0,0.001,0c0.007,0,0.139,0.168,1.003,0.268
				c1.087,0.124,1.862,0.177,2.594,0.177c1.119,0,2.229-0.128,3.957-0.455l0.18,0.034c0.007,0.005,0.729,0.454,1.72,0.838
				l0.008,0.463C15.272,27.444,13.104,27.641,11.67,27.641z"/>
			<path fill="#036FCF" d="M8.101,24.747h0.005 M8.101,24.747c0,0-1.223,0.711,0.87,0.952c1.014,0.116,1.829,0.178,2.621,0.178
				c1.19,0,2.328-0.142,4.005-0.459c0,0,0.735,0.461,1.761,0.86c-1.878,0.805-3.904,1.113-5.688,1.113
				C7.503,27.391,4.656,25.71,8.101,24.747 M8.106,24.247H8.101v0.334l-0.135-0.316c-1.355,0.379-1.993,0.934-1.895,1.649
				c0.178,1.297,2.951,1.976,5.598,1.976c1.457,0,3.661-0.2,5.885-1.153l-0.016-0.926c-0.965-0.375-1.67-0.813-1.677-0.818
				l-0.358-0.068c-1.713,0.324-2.809,0.451-3.912,0.451c-0.721,0-1.488-0.052-2.564-0.175c-0.385-0.044-0.604-0.101-0.723-0.143
				l-0.201-0.471L8.106,24.247L8.106,24.247z M8.101,25.247h0.005H8.101L8.101,25.247z"/>
		</g>
		<g>
			<path fill="#FFFFFF" d="M11.04,24.086c-2.696,0-5.495-0.48-5.669-1.555c-0.093-0.573,0.524-1.072,1.885-1.524l0.229,0.438
				c-0.184,0.137-0.366,0.367-0.338,0.471c0.022,0.082,0.246,0.241,0.937,0.312c1.208,0.125,2.153,0.181,3.066,0.181
				c1.632,0,3.301-0.182,5.412-0.587l0.225,0.069c0.005,0.005,0.485,0.482,1.222,0.743l-0.013,0.476
				C15.234,23.916,12.69,24.086,11.04,24.086C11.041,24.086,11.041,24.086,11.04,24.086z"/>
			<path fill="#036FCF" d="M7.335,21.244c0,0-1.372,1.015,0.723,1.232c1.076,0.111,2.062,0.181,3.093,0.181
				c1.563,0,3.226-0.162,5.457-0.591c0,0,0.512,0.519,1.317,0.803c-2.359,0.69-4.802,0.967-6.884,0.967
				C6.441,23.836,3.604,22.483,7.335,21.244 M7.178,20.769c-0.55,0.183-2.225,0.738-2.053,1.802
				c0.271,1.679,4.976,1.764,5.917,1.764c1.665,0,4.234-0.171,7.024-0.987l0.026-0.951c-0.677-0.239-1.123-0.678-1.127-0.683
				l-0.45-0.14c-2.094,0.403-3.748,0.582-5.363,0.582c-0.904,0-1.842-0.055-3.041-0.179c-0.375-0.039-0.572-0.1-0.669-0.143
				c0.049-0.063,0.124-0.139,0.194-0.191L7.178,20.769L7.178,20.769z M7.335,21.744H7.34H7.335L7.335,21.744z"/>
		</g>
		<g>
			<path fill="#FFFFFF" d="M10.817,30.721c-2.909,0-5.854-0.238-8.753-0.708c-0.465-0.075-1.878-0.305-1.812-1.125
				c0.088-1.091,3.142-2.071,4.546-2.071c0.432,0,0.76,0.077,0.974,0.229l-0.16,0.453c-0.009,0-0.018,0-0.027,0
				c-0.195,0-0.527,0.016-1.008,0.119c-0.779,0.168-1.704,0.562-1.802,0.766c0.014,0.001,0.059,0.041,0.176,0.092
				c1.303,0.567,4.227,0.893,8.021,0.893c4.069,0,8.195-0.39,10.033-0.946c0.892-0.271,1.014-0.542,1.03-0.619
				c0.029-0.138-0.12-0.271-0.122-0.271l0.264-0.419c0.726,0.326,0.808,0.719,0.75,0.99C22.621,29.522,17.076,30.721,10.817,30.721
				C10.817,30.721,10.817,30.721,10.817,30.721z"/>
			<path fill="#036FCF" d="M4.797,27.068c0.358,0,0.651,0.056,0.831,0.182c0,0-0.029-0.002-0.085-0.002
				c-0.153,0-0.506,0.015-1.019,0.126c-0.674,0.145-2.815,0.834-1.673,1.331c1.47,0.639,4.707,0.912,8.12,0.912
				c3.963,0,8.164-0.368,10.106-0.956c1.902-0.576,0.997-1.322,0.997-1.322c2.511,1.132-2.919,3.132-11.257,3.132
				c-2.662,0-5.622-0.204-8.713-0.705C-1.916,29.114,2.627,27.068,4.797,27.068 M4.797,26.568c-1.537,0-4.689,0.995-4.794,2.3
				c-0.085,1.05,1.5,1.307,2.021,1.391c2.912,0.472,5.871,0.712,8.793,0.712c5.775,0,11.975-1.054,12.354-2.817
				c0.064-0.296,0.032-0.855-0.891-1.271l-0.524,0.842c0.008,0.008,0.028,0.035,0.033,0.049c0,0,0,0,0,0
				c-0.015,0-0.154,0.195-0.857,0.408c-1.817,0.55-5.914,0.935-9.962,0.935c-3.506,0-6.344-0.291-7.701-0.784
				c0.34-0.171,0.904-0.372,1.36-0.47c0.479-0.104,0.798-0.115,0.913-0.115l0.054,0.001l0.32-0.908
				C5.655,26.657,5.289,26.568,4.797,26.568L4.797,26.568z"/>
		</g>
		<g>
			<path fill="#FFFFFF" d="M9.505,20.675c-1.499,0-6.413-0.088-6.673-1.224c-0.109-0.475,0.509-0.773,0.712-0.871
				c2.279-1.103,4.204-1.222,4.926-1.222c0.153,0,0.236,0.006,0.236,0.006l0.041,0.493c-1.561,0.371-2.977,0.896-3.129,1.158
				c0.001,0,0.002,0,0.004,0c0.043,0,0.252,0.128,1.04,0.233c0.646,0.087,1.595,0.132,2.742,0.132c1.496,0,3.235-0.076,4.897-0.215
				c2.366-0.199,4.775-0.628,4.8-0.632l0.143,0.476c-0.009,0.004-0.834,0.359-1.421,0.76C15.642,20.358,12.639,20.675,9.505,20.675
				C9.506,20.675,9.506,20.675,9.505,20.675z"/>
			<path fill="#036FCF" d="M8.469,17.609c0.143,0,0.22,0.005,0.22,0.005s-5.816,1.381-2.06,1.883
				c0.682,0.091,1.654,0.134,2.775,0.134c1.488,0,3.238-0.076,4.918-0.216c2.407-0.203,4.824-0.635,4.824-0.635
				s-0.849,0.363-1.463,0.783c-2.291,0.602-5.409,0.862-8.178,0.862c-4.368,0-7.864-0.648-5.853-1.62
				C5.918,17.71,7.838,17.609,8.469,17.609 M8.469,17.109c-0.739,0-2.708,0.121-5.035,1.246c-0.664,0.321-0.948,0.709-0.846,1.153
				c0.269,1.172,3.91,1.418,6.918,1.418c3.154,0,6.181-0.32,8.305-0.879l0.155-0.071c0.565-0.386,1.369-0.733,1.377-0.736
				l-0.285-0.952c-0.024,0.004-2.423,0.43-4.778,0.629c-1.655,0.138-3.387,0.214-4.875,0.214c-1.137,0-2.074-0.045-2.709-0.13
				c-0.193-0.026-0.348-0.053-0.471-0.078c0.555-0.253,1.569-0.583,2.58-0.823l-0.082-0.985C8.723,17.115,8.634,17.109,8.469,17.109
				L8.469,17.109z"/>
		</g>
		<g>
			<path fill="#FFFFFF" d="M18.931,23.52l-0.093-0.107l0.169-0.188c3.565-1.854,3.615-3.427,3.471-4.017
				c-0.2-0.82-1.026-1.263-1.703-1.263c-0.106,0-0.211,0.011-0.312,0.032c-0.432,0.089-0.633,0.166-0.646,0.171l-0.303-0.368
				c0.022-0.035,0.234-0.351,0.64-0.496c0.436-0.153,0.873-0.23,1.304-0.23c1.49,0,2.693,0.934,2.859,2.22
				c0.192,1.49-1.086,3.475-5.253,4.57L18.931,23.52z"/>
			<path fill="#036FCF" d="M21.458,17.304c3.129,0,4.679,4.422-2.456,6.298c0.003-0.002,0.093-0.083,0.121-0.156
				c5.637-2.929,3.535-5.751,1.653-5.751c-0.123,0-0.244,0.012-0.363,0.037c-0.475,0.099-0.687,0.184-0.687,0.184
				s0.176-0.276,0.513-0.396C20.66,17.372,21.071,17.304,21.458,17.304 M19.001,23.602C19.001,23.602,19.001,23.602,19.001,23.602
				C19.001,23.602,19.001,23.602,19.001,23.602 M21.458,16.804C21.458,16.804,21.458,16.804,21.458,16.804
				c-0.458,0-0.925,0.082-1.385,0.244c-0.487,0.173-0.741,0.556-0.769,0.599l0.608,0.733c0,0,0,0,0,0c0,0,0.191-0.073,0.603-0.159
				c0.083-0.017,0.171-0.026,0.261-0.026c0.589,0,1.296,0.401,1.46,1.071c0.271,1.11-0.979,2.507-3.343,3.736l-0.199,0.224
				l0.151,0.172l0.285,0.687c4.323-1.137,5.643-3.247,5.437-4.843C24.383,17.83,23.076,16.804,21.458,16.804L21.458,16.804
				L21.458,16.804z"/>
		</g>
		<g>
			<path fill="#FFFFFF" d="M12.542,32.25c-1.128,0-2.23-0.034-3.278-0.102c-3.761-0.24-4.586-0.84-4.668-0.908l0.2-0.439
				c1.777,0.294,4.07,0.455,6.455,0.455c2.901,0,5.682-0.234,8.041-0.679c4.05-0.762,4.576-1.702,4.581-1.711l0.477,0.122
				C24.117,32.014,15.253,32.25,12.542,32.25z"/>
			<path fill="#036FCF" d="M24.101,28.968h0.005 M24.101,28.968C23.928,31.215,17.887,32,12.542,32c-1.14,0-2.25-0.036-3.263-0.101
				c-3.788-0.242-4.524-0.852-4.524-0.852c1.73,0.286,4.03,0.459,6.499,0.459c2.666,0,5.53-0.202,8.084-0.683
				C23.698,30.002,24.101,28.968,24.101,28.968 M24.106,28.468h-0.005v0.425l-0.265-0.06l-0.18-0.092
				c-0.006,0.009-0.595,0.873-4.411,1.591c-2.343,0.441-5.106,0.674-7.991,0.674c-2.372,0-4.652-0.161-6.418-0.452l-0.4,0.878
				c0.144,0.119,1.052,0.726,4.811,0.966c1.053,0.067,2.162,0.102,3.294,0.102c3.545,0,11.815-0.34,12.058-3.493l-0.496-0.113
				L24.106,28.468L24.106,28.468z M24.101,29.468h0.005H24.101L24.101,29.468z"/>
		</g>
	</g>
</g>
</svg>
