<?xml version="1.0" encoding="utf-8"?>
<!-- Generator: Adobe Illustrator 21.1.0, SVG Export Plug-In . SVG Version: 6.00 Build 0)  -->
<svg version="1.1" id="Слой_1" xmlns="http://www.w3.org/2000/svg" xmlns:xlink="http://www.w3.org/1999/xlink" x="0px" y="0px"
	 viewBox="0 0 32 32" enable-background="new 0 0 32 32" xml:space="preserve">
<path fill="#FFFFFF" d="M27.052,32H4.948C2.227,32,0,29.773,0,27.052V4.948C0,2.227,2.227,0,4.948,0h22.103
	C29.773,0,32,2.227,32,4.948v22.103C32,29.773,29.773,32,27.052,32z"/>
<g>
	<path fill="#E01E22" d="M17.36,14.98c1.411,1.624-0.371,3.084-0.371,3.084s3.581-1.848,1.936-4.164
		c-1.536-2.159-2.714-3.232,3.663-6.929C22.588,6.972,12.579,9.471,17.36,14.98"/>
	<path fill="#E01E22" d="M18.925,1c0,0,3.038,3.039-2.882,7.712c-4.746,3.749-1.083,5.886-0.002,8.328
		c-2.77-2.5-4.804-4.701-3.44-6.748C14.604,7.285,20.151,5.827,18.925,1"/>
	<g>
		<path fill="#0B6FB6" d="M12.163,23.61c0,0-1.117,0.65,0.795,0.87c2.317,0.264,3.501,0.227,6.054-0.257
			c0,0,0.672,0.421,1.609,0.786C14.898,27.461,7.668,24.867,12.163,23.61"/>
		<path fill="#0B6FB6" d="M11.463,20.41c0,0-1.254,0.927,0.661,1.126c2.475,0.255,4.429,0.276,7.812-0.375
			c0,0,0.468,0.474,1.203,0.734C14.219,23.917,6.511,22.053,11.463,20.41"/>
		<path fill="#0B6FB6" d="M24.93,25.978c0,0,0.827,0.682-0.911,1.208c-3.304,1-13.75,1.303-16.652,0.04
			c-1.043-0.454,0.913-1.084,1.529-1.216c0.641-0.139,1.009-0.113,1.009-0.113c-1.16-0.818-7.498,1.604-3.22,2.299
			C18.353,30.088,27.956,27.343,24.93,25.978"/>
		<path fill="#0B6FB6" d="M12.7,17.093c0,0-5.314,1.262-1.882,1.72c1.449,0.194,4.338,0.15,7.029-0.075
			c2.199-0.185,4.407-0.58,4.407-0.58s-0.776,0.332-1.337,0.715c-5.396,1.419-15.82,0.759-12.819-0.693
			C10.636,16.954,12.7,17.093,12.7,17.093"/>
		<path fill="#0B6FB6" d="M22.232,22.422c5.486-2.851,2.949-5.59,1.179-5.221c-0.434,0.09-0.628,0.168-0.628,0.168
			s0.161-0.252,0.469-0.362c3.502-1.232,6.195,3.631-1.13,5.557C22.122,22.565,22.207,22.489,22.232,22.422"/>
		<path fill="#0B6FB6" d="M13.239,30.145c5.265,0.337,13.35-0.187,13.542-2.678c0,0-0.368,0.945-4.352,1.695
			c-4.494,0.846-10.036,0.747-13.324,0.205C9.106,29.366,9.778,29.924,13.239,30.145"/>
	</g>
</g>
</svg>
