<svg xmlns="http://www.w3.org/2000/svg" viewBox="0 0 26.73 26.41"><title>union</title><g id="Слой_2" data-name="Слой 2"><path d="M13.75,6.71a5.8,5.8,0,0,1,2.59,1.42,5.8,5.8,0,0,0-6.51,5.76,5.79,5.79,0,0,0,1.82,4.22,5.81,5.81,0,0,1-4.38-2.95,5.81,5.81,0,1,0,6.49-8.45Z" fill="#00b8ff"/><path d="M11.64,18.11a5.81,5.81,0,0,1,4-10,5.86,5.86,0,0,1,.7,0,5.8,5.8,0,0,0-2.59-1.42h0l-.26-.06h0l-.26,0h0l-.26,0h0l-.27,0h-.29a5.81,5.81,0,0,0-5.81,5.81c0,.09,0,.17,0,.26v0c0,.08,0,.16,0,.25v0q0,.12,0,.24v0l0,.23v0l0,.23v0l.06.24h0q.07.25.16.49h0l.1.23H7l.11.22h0l.12.22h0A5.81,5.81,0,0,0,11.64,18.11Z" fill="#007be3"/><path d="M12.34,24.69A12.34,12.34,0,1,1,24.69,12.34,12.36,12.36,0,0,1,12.34,24.69Zm0-23.23A10.89,10.89,0,1,0,23.23,12.34,10.9,10.9,0,0,0,12.34,1.45Z" fill="#5e6981"/><path d="M5.77,1.94l-.35,0a2.9,2.9,0,0,0-2,5A2.89,2.89,0,0,1,2.3,6.55l.11.06A2.9,2.9,0,0,0,6,2.19,2.93,2.93,0,0,0,5.77,1.94Z" fill="#95d152"/><path d="M1.11,5.2l0,.06,0,.06,0,.06,0,.07,0,0,0,.07,0,0a2.9,2.9,0,0,0,.21.29h0L1.59,6h0l.07.08,0,0,.07.07,0,0,.08.07,0,0L2,6.32l0,0,.09.07h0l.09.06h0l.1.06h0a2.89,2.89,0,0,0,1.12.38,2.9,2.9,0,0,1,2-5l.35,0h0l-.1-.09h0l-.1-.08h0l-.1-.08h0l-.1-.07h0l-.1-.06h0l-.1-.06h0l-.1,0H5l-.1,0h0l-.09,0h0l-.09,0h0l-.09,0H4.43l-.08,0H3.77A2.9,2.9,0,0,0,.87,4s0,.1,0,.14v.48l0,.07,0,.06,0,.07,0,.06L1,5l0,.06,0,.06Z" fill="#73bc50"/><path d="M26.73,12.47a2.9,2.9,0,0,0-1-2.2l.1.09-.35,0a2.9,2.9,0,0,0-2,5,2.89,2.89,0,0,1-1.23-.44,2.9,2.9,0,0,0,4.48-2.44Z" fill="#ff7400"/><path d="M23.47,15.35a2.9,2.9,0,0,1,2-5l.35,0-.1-.09h0l-.1-.08h0l-.1-.08h0L25.4,10h0l-.1-.06h0l-.1-.06h0l-.1,0h0l-.1,0h0l-.09,0h0l-.09,0h0l-.09,0h-.05l-.08,0h-.57a2.9,2.9,0,0,0-2.9,2.9c0,.09,0,.17,0,.26v0c0,.08,0,.16,0,.24v0c0,.08,0,.15.05.23v0l.07.22v0l.09.21v0l.12.21h0a2.91,2.91,0,0,0,.3.41h0l.17.18h0l.19.16h0l.2.15h0A2.89,2.89,0,0,0,23.47,15.35Z" fill="#d55a00"/><path d="M11.62,23.51s0-.07,0-.11v0a2.9,2.9,0,0,0-1-2.05l.1.09-.35,0a2.9,2.9,0,0,0-2,5l.35,0A2.9,2.9,0,0,0,11.62,23.51Z" fill="#ffd042"/><path d="M7.46,24.28a2.9,2.9,0,0,1,2.9-2.9l.35,0-.1-.09h0l-.1-.08h0l-.1-.08h0l-.1-.07h0l-.1-.06h0l-.1-.06h0l-.1,0h0l-.1,0h0l-.09,0h0l-.09,0h0l-.09,0H9.37l-.08,0H8.71a2.9,2.9,0,0,0-2.9,2.9c0,.09,0,.17,0,.26v0c0,.08,0,.16,0,.24v0c0,.08,0,.15.05.23v0l.07.22v0l.09.21v0l.12.21h0a2.92,2.92,0,0,0,.3.41h0l.17.18h0l.19.16h0l.2.15h0a2.89,2.89,0,0,0,1.23.44h0A2.9,2.9,0,0,1,7.46,24.28Z" fill="#dbb246"/></g></svg>