<svg xmlns="http://www.w3.org/2000/svg" xmlns:xlink="http://www.w3.org/1999/xlink" viewBox="0 0 282.25 67.31"><defs><style>.cls-1{fill:#5e6981;}.cls-2{fill:#0987f7;}.cls-3{fill:#0064c8;}.cls-3,.cls-4,.cls-5,.cls-6{fill-rule:evenodd;}.cls-4{fill:url(#linear-gradient);}.cls-5{fill:#0056b3;}.cls-6{fill:#0088fb;opacity:0.3;}</style><linearGradient id="linear-gradient" x1="29.87" y1="59.01" x2="29.87" y2="0.05" gradientUnits="userSpaceOnUse"><stop offset="0" stop-color="#0056b3"/><stop offset="0.25" stop-color="#0056b3"/><stop offset="0.7" stop-color="#0088fb"/><stop offset="1" stop-color="#00acff"/></linearGradient></defs><title>Ресурс 2</title><g id="Слой_2" data-name="Слой 2"><g id="Слой_1-2" data-name="Слой 1"><path class="cls-1" d="M71,39.76h9.25v5.62a5.1,5.1,0,0,0,1.34,3.76,6.07,6.07,0,0,0,4.15,1.2,5.3,5.3,0,0,0,4.14-1.47C90.62,48,91,46.06,91,43.11V15.82a4.55,4.55,0,0,1,1.47-3.42,4.89,4.89,0,0,1,3.5-1.4h4.56V43.51a35.57,35.57,0,0,1-.41,6.42,10.63,10.63,0,0,1-1.74,3.61,11.83,11.83,0,0,1-5,3.47,25.2,25.2,0,0,1-7.5,1.07c-4.15,0-9-.86-11.91-4a9.27,9.27,0,0,1-2.27-3.73,27.56,27.56,0,0,1-.67-7V39.76Z"/><path class="cls-1" d="M129.17,46.43h6.69A14.62,14.62,0,0,1,130.25,55a17,17,0,0,1-10.44,3.08c-5.08,0-9.07-1.66-11.92-5s-4.3-7.8-4.3-13.79q0-8.57,4.16-13.37t11.93-5q8,0,12.45,4.81t4.28,13.76a16.18,16.18,0,0,1-.14,2.4H113.11c.09,2.79.75,4.85,2,6.2a6.3,6.3,0,0,0,5.22,2.16c4.14,0,3.89-1.31,6.35-3.23a4,4,0,0,1,2.48-.67ZM113.11,35.95h13.65a8.56,8.56,0,0,0-1.87-5.33,6.42,6.42,0,0,0-4.95-1.86,6.53,6.53,0,0,0-4.82,1.86,7.63,7.63,0,0,0-2,5.33Z"/><path class="cls-1" d="M139.42,11h4.83a4.52,4.52,0,0,1,3.22,1.27,4.16,4.16,0,0,1,1.34,3.15V58.09h-9.39V11Z"/><path class="cls-1" d="M173.32,39.45a25.24,25.24,0,0,1-5.23,1.74l-3.08.67c-2.55.71-4.43,1.74-4.43,4.68a4.31,4.31,0,0,0,1.21,3.21,5,5,0,0,0,3.48,1.07,7.43,7.43,0,0,0,8.05-8V39.45Zm2.14,16.42c-5.38,2.82-14.86,3.24-20-.47q-3.61-2.6-3.62-8.64c0-3.76,1.1-6.43,3.29-8,5.15-3.8,18-3.07,18-7.23,0-2.82-3.72-3.22-5.89-3.22a9.57,9.57,0,0,0-3.35.55,3.67,3.67,0,0,0-2.13,2.06h-9A10.33,10.33,0,0,1,156.59,24q3.61-3.08,10.3-3.08,7.5,0,11.25,2.55A8.58,8.58,0,0,1,182,31V43.16q0,5.36-1.94,8.37a12,12,0,0,1-4.63,4.34Z"/><path class="cls-1" d="M185.08,45.61h9.1a4.9,4.9,0,0,0,2,4A9.56,9.56,0,0,0,201.54,51a8.55,8.55,0,0,0,4.15-.94,2.85,2.85,0,0,0,1.61-2.54q0-2.42-5.63-3.61a25.47,25.47,0,0,1-3.62-.81q-7.11-1.73-9.51-4.13a8.19,8.19,0,0,1-2.68-6.42,10.64,10.64,0,0,1,3.88-8.43q4-3.07,10.45-3.07,7,0,11.11,3.08a11.72,11.72,0,0,1,4.15,8.7h-5.76c-4.17,0-3.24-4.59-9.37-4.59a8,8,0,0,0-4,.8,2.72,2.72,0,0,0-1.2,2.42c0,3.32,14.72,4.51,19,8.17A8.44,8.44,0,0,1,216.68,46a10.71,10.71,0,0,1-4.3,9.11q-4,2.95-12.05,2.95-7.64,0-11.38-3.08-3.89-3.08-3.88-9v-.4Z"/><path class="cls-1" d="M234.46,57.79c-6,.37-14.73,1.63-14.73-6.69V11.74h4.83a4.27,4.27,0,0,1,3.08,1.34A4.37,4.37,0,0,1,229,16.28v6h5.48v1.88a4.32,4.32,0,0,1-1.34,3.28,4.47,4.47,0,0,1-3.21,1.28H229V48.53c0,1.52.89,2.27,2.67,2.27h2.81v7Z"/><path class="cls-1" d="M237.54,22.49h4.83a4.43,4.43,0,0,1,3.22,1.34A4.38,4.38,0,0,1,246.93,27V58.09h-9.39V22.49Z"/><path class="cls-1" d="M275.56,46.38h6.69a14.63,14.63,0,0,1-5.62,8.57c-6.26,4.66-17.09,4.22-22.35-1.87Q250,48.26,250,39.29q0-8.57,4.15-13.37c5.84-6.75,18.43-6.6,24.36-.14A18.34,18.34,0,0,1,282,32.6h-9.37a7.69,7.69,0,0,0-1.34-2,6.41,6.41,0,0,0-5-1.89,6.53,6.53,0,0,0-4.81,1.87q-2.42,2.69-2.41,8.85t2.41,8.71a6.31,6.31,0,0,0,5.22,2.15,6.63,6.63,0,0,0,5.35-2.16,6.12,6.12,0,0,1,1.07-1.07,3.7,3.7,0,0,1,2.41-.67Z"/><path class="cls-2" d="M247.36,20.72a21.55,21.55,0,0,0-4.47-1.48c-2.74-.59-6.42-.93-6.42-4.57,0-4.94,6.57-4.3,9-1.82a6.78,6.78,0,0,1,1.83,5v2.86Z"/><polygon class="cls-3" points="14.93 42.26 29.84 33.65 29.84 16.43 14.93 25.04 14.93 42.26 14.93 42.26"/><polygon class="cls-3" points="29.84 33.65 29.84 16.43 44.76 25.04 44.76 42.26 29.84 33.65 29.84 33.65"/><path class="cls-4" d="M58.93,16.86h0c-1.12-1.86-3-2.57-4.8-3.63L35.37,2.39C30-.73,30-.87,24.31,2.4L14.93,7.81,44.76,25V42.26L29.84,50.87,14.93,42.26V25L0,33.65V44.48c0,6.52.11,6.46,5.52,9.58L24.31,64.9c5.41,3.12,5.41,3.27,11.06,0L54.15,54.06c5.41-3.12,5.52-3.06,5.52-9.58V22.8C59.68,20.68,60,18.73,58.93,16.86Z"/><path class="cls-5" d="M0,33.65V44.48c0,6.52.11,6.46,5.52,9.58L24.31,64.9c5.41,3.12,5.41,3.27,11.06,0l-5.53-14L14.93,42.26V25L0,33.65Z"/><path class="cls-6" d="M58.92,16.87h0c-1.12-1.86-3-2.57-4.8-3.63L35.36,2.4C30-.72,29.95-.85,24.3,2.41L14.92,7.83,44.75,25V42.27L29.83,50.88,14.92,42.27V25L0,33.66V44.49c0,6.52.11,6.46,5.52,9.58L24.3,64.91c5.41,3.12,5.41,3.27,11.06,0L54.14,54.07C59.55,51,59.66,51,59.66,44.49V22.81C59.66,20.69,60,18.74,58.92,16.87Z"/></g></g></svg>