<?xml version="1.0" encoding="utf-8"?>
<!-- Generator: Adobe Illustrator 21.1.0, SVG Export Plug-In . SVG Version: 6.00 Build 0)  -->
<svg version="1.1"
	 id="svg4831" inkscape:version="0.91 r13725" sodipodi:docname="drawing.svg" xmlns:cc="http://creativecommons.org/ns#" xmlns:dc="http://purl.org/dc/elements/1.1/" xmlns:inkscape="http://www.inkscape.org/namespaces/inkscape" xmlns:rdf="http://www.w3.org/1999/02/22-rdf-syntax-ns#" xmlns:sodipodi="http://sodipodi.sourceforge.net/DTD/sodipodi-0.dtd" xmlns:svg="http://www.w3.org/2000/svg"
	 xmlns="http://www.w3.org/2000/svg" xmlns:xlink="http://www.w3.org/1999/xlink" x="0px" y="0px" viewBox="0 0 12.254 16.292"
	 enable-background="new 0 0 12.254 16.292" xml:space="preserve">
<sodipodi:namedview  bordercolor="#666666" borderopacity="1.0" fit-margin-bottom="0" fit-margin-left="0" fit-margin-right="0" fit-margin-top="0" id="base" inkscape:current-layer="layer1" inkscape:cx="-29.367668" inkscape:cy="20.28277" inkscape:document-units="px" inkscape:pageopacity="0.0" inkscape:pageshadow="2" inkscape:window-height="1060" inkscape:window-maximized="1" inkscape:window-width="1920" inkscape:window-x="1918" inkscape:window-y="-3" inkscape:zoom="5.6" pagecolor="#ffffff" showgrid="false">
	</sodipodi:namedview>
<g id="layer1" transform="translate(-11.556807,2.588584)" inkscape:groupmode="layer" inkscape:label="Layer 1">
	<g id="g7248" transform="matrix(0.09561334,-0.07017507,0.07017507,0.09561334,-5.7675107,15.968179)">
		<g id="path7258" inkscape:connector-curvature="0">
			
				<linearGradient id="SVGID_1_" gradientUnits="userSpaceOnUse" x1="-96624.9375" y1="-118732.7266" x2="-96601.3438" y2="-118760.3125" gradientTransform="matrix(0.0832 -0.0456 -0.0456 -0.0832 2829.9163 -14309.79)">
				<stop  offset="0" style="stop-color:#F69923"/>
				<stop  offset="0.3123" style="stop-color:#F79A23"/>
				<stop  offset="0.8383" style="stop-color:#E97826"/>
			</linearGradient>
			<path fill="url(#SVGID_1_)" d="M204.717-18.427l-3.572-6.753c3.975-5.458,7.272-8.768,9.34-9.998
				c1.797-1.071,3.765-0.893,5.684,0.515c1.6,1.174,2.615,2.797,2.657,2.864c0.08,0.1,2.821,3.761,1.412,11.602
				c-5.62,1.381-11.105,2.063-14.474,2.236c-0.147,0.005-0.285-0.036-0.398-0.119c-0.01-0.007-0.103-0.02-0.142-0.022
				c-0.122-0.008-0.234-0.049-0.327-0.118C204.824-18.272,204.759-18.345,204.717-18.427z"/>
			<path fill="#C7CAE2" d="M215.803-34.167c1.521,1.117,2.498,2.693,2.498,2.693s2.71,3.505,1.332,11.168
				c-4.603,0.794-10.233,1.542-13.901,1.729c3.808-5.864,6.331-8.808,7.173-9.719c0.037-0.041,0.071-0.079,0.102-0.113
				c0.068-0.07,0.14-0.137,0.202-0.214c0,0-0.075,0.075-0.202,0.214c-0.035,0.036-0.07,0.073-0.102,0.113
				c-2.57,2.757-5.14,5.981-7.64,9.579l-3.575-6.752c3.878-4.743,7.149-8.014,9.112-9.182
				C212.695-35.779,214.461-35.152,215.803-34.167 M216.531-35.159c-2.104-1.544-4.362-1.739-6.36-0.55
				c-2.135,1.271-5.485,4.631-9.435,9.46c-0.314,0.384-0.367,0.918-0.135,1.356l3.575,6.752c0.088,0.167,0.212,0.308,0.36,0.416
				c0.178,0.13,0.39,0.213,0.616,0.233c0.194,0.104,0.415,0.155,0.643,0.144c3.392-0.173,8.906-0.858,14.048-1.745
				c0.51-0.088,0.911-0.486,1.002-0.995c1.459-8.108-1.445-11.978-1.569-12.139c0,0,0,0,0,0
				C219.289-32.216,218.215-33.924,216.531-35.159L216.531-35.159z"/>
		</g>
		<path id="path7260" fill="#C7CAE2" d="M204.796,3.829l0.025,0.018 M204.796,3.829c-0.023,0.023-0.047,0.023-0.07,0.023
			c-0.164,0.023-0.35,0.047-0.537,0.07c0.023-0.023,0.07-0.023,0.093-0.047L204.796,3.829 M205.525,2.836
			c-0.015-0.011-0.03-0.021-0.045-0.032c-0.245-0.164-0.53-0.229-0.805-0.201l-0.504,0.046c-0.167,0.015-0.328,0.064-0.473,0.142
			c-0.14,0.067-0.282,0.162-0.38,0.261c-0.371,0.372-0.466,0.939-0.234,1.411c0.09,0.183,0.22,0.336,0.377,0.451
			c0.248,0.182,0.562,0.269,0.882,0.229l0.559-0.073c0.047-0.007,0.096-0.017,0.145-0.03c0.294-0.056,0.567-0.217,0.756-0.475
			c0.402-0.548,0.296-1.31-0.252-1.712l-0.018-0.013C205.53,2.84,205.527,2.838,205.525,2.836L205.525,2.836z M204.068,4.821
			l0.025,0.018L204.068,4.821L204.068,4.821z"/>
		<path id="path7262" fill="#C7CAE2" d="M201.082,15.931c-0.28,0.07-0.584,0.117-0.888,0.164
			C200.498,16.048,200.801,16.001,201.082,15.931 M201.811,14.939c-0.285-0.209-0.658-0.295-1.028-0.202
			c-0.245,0.061-0.511,0.1-0.776,0.141c-0.672,0.103-1.133,0.732-1.03,1.404c0.052,0.336,0.234,0.619,0.488,0.805
			c0.254,0.187,0.579,0.276,0.916,0.224c0.342-0.053,0.684-0.107,0.999-0.186c0.66-0.165,1.061-0.833,0.896-1.493
			C202.204,15.343,202.034,15.103,201.811,14.939L201.811,14.939z"/>
		<path id="path7264" fill="#C7CAE2" d="M191.69,4.53l0.35,0.677l0.444-0.047c-0.023,0.047-0.047,0.093-0.07,0.14
			c-0.117,0.257-0.257,0.537-0.397,0.818c-0.397,0.841-0.794,1.682-1.215,2.547c-0.444,0.935-0.888,1.892-1.355,2.874
			c-0.234,0.491-0.467,0.981-0.701,1.495c-0.701,1.519-1.402,3.084-2.126,4.696c-0.888,1.986-1.776,4.042-2.687,6.191
			c-0.864,2.033-1.752,4.159-2.64,6.331c-0.841,2.079-1.705,4.229-2.57,6.425c-0.771,1.986-1.542,3.995-2.336,6.074
			c-0.047,0.093-0.07,0.21-0.117,0.304c-0.771,2.056-1.565,4.182-2.29,6.402c0,0.047-0.023,0.093-0.047,0.14l-0.491,0.047
			l-0.561-1.098c0.607-1.659,1.238-3.318,1.892-5.023c0.164-0.467,0.35-0.958,0.537-1.425c0.794-2.103,1.635-4.229,2.5-6.378
			c0.818-2.056,1.659-4.112,2.523-6.191c0.864-2.079,1.729-4.159,2.64-6.238c0.911-2.103,1.846-4.229,2.804-6.332
			c0.935-2.103,1.892-4.159,2.874-6.215c0.374-0.748,0.724-1.495,1.075-2.22c0.607-1.285,1.238-2.547,1.869-3.785
			C191.62,4.67,191.666,4.6,191.69,4.53 M192.418,3.537c-0.233-0.171-0.524-0.259-0.825-0.235c-0.475,0.037-0.884,0.345-1.054,0.787
			c-0.031,0.068-0.097,0.218-0.112,0.261c-0.565,1.08-1.202,2.353-1.814,3.649l-0.34,0.707l-0.723,1.488
			c-0.996,2.086-1.958,4.152-2.898,6.265c-0.956,2.099-1.894,4.232-2.808,6.342c-0.911,2.079-1.777,4.162-2.643,6.246
			c-0.871,2.094-1.714,4.156-2.534,6.218c-0.866,2.153-1.71,4.287-2.508,6.398c-0.185,0.462-0.378,0.97-0.548,1.453
			c-0.644,1.677-1.277,3.342-1.887,5.007c-0.118,0.322-0.096,0.678,0.06,0.983l0.561,1.098c0.089,0.175,0.216,0.321,0.368,0.433
			c0.239,0.175,0.538,0.263,0.846,0.233l0.491-0.047c0.423-0.04,0.796-0.297,0.985-0.677c0.039-0.079,0.08-0.191,0.112-0.308
			l0.003,0.001c0.719-2.202,1.507-4.311,2.272-6.351c0.018-0.036,0.1-0.259,0.114-0.297c0.794-2.077,1.564-4.084,2.334-6.068
			c0.861-2.187,1.724-4.333,2.564-6.409c0.884-2.163,1.77-4.284,2.632-6.311c0.908-2.143,1.793-4.192,2.678-6.171l0.217-0.483
			c0.646-1.438,1.274-2.837,1.903-4.2l0.695-1.482l0.732-1.551l0.624-1.324c0.418-0.858,0.817-1.704,1.216-2.549
			c0.135-0.27,0.282-0.564,0.405-0.834c0.183-0.402,0.171-0.941-0.087-1.299c-0.097-0.135-0.214-0.257-0.346-0.353
			c-0.094-0.069-0.196-0.126-0.304-0.165l-0.015-0.029C192.694,3.792,192.568,3.647,192.418,3.537L192.418,3.537z"/>
		<path id="path7266" fill="#C7CAE2" d="M199.232,17.11l0.025,0.018c0.274,0.201,0.654,0.138,0.848-0.141
			c0.194-0.279,0.13-0.669-0.144-0.87c-0.274-0.201-0.659-0.142-0.86,0.132C198.899,16.524,198.958,16.909,199.232,17.11
			L199.232,17.11z"/>
		<g id="path7268" inkscape:connector-curvature="0">
			<path fill="#BE202E" d="M197.675,22.591c-0.09-0.066-0.158-0.147-0.194-0.244l-0.116-0.085l0.077-0.112
				c-0.023-0.282,0.088-0.523,0.379-0.58c0,0,0.215-0.036,0.261-0.043l0.008,0.052c0.077,0.021,0.15,0.054,0.213,0.1
				c0.04,0.029,0.077,0.062,0.11,0.101l0.234-0.354c0.174-0.036,0.352,0.008,0.484,0.105c0.119,0.088,0.204,0.216,0.237,0.373
				c0.071,0.328-0.141,0.652-0.466,0.725c-0.139,0.015-0.324-0.003-0.497-0.053c-0.037,0.044-0.079,0.08-0.13,0.114l0.008,0.052
				c-0.04,0.006-0.196,0.03-0.227,0.038C198.058,22.78,197.768,22.659,197.675,22.591z"/>
			<path fill="#C7CAE2" d="M198.769,22.029l0.025,0.018 M198.769,22.029c-0.182,0.04-0.381,0.081-0.582,0.106
				C198.381,22.102,198.575,22.068,198.769,22.029 M198.186,22.135c-0.08,0.013-0.16,0.026-0.24,0.039
				c0.049-0.009,0.097-0.019,0.145-0.028C198.123,22.142,198.155,22.139,198.186,22.135 M197.947,22.174
				c-0.192,0.037-0.393,0.07-0.58,0.089C197.56,22.233,197.753,22.204,197.947,22.174 M199.498,21.036
				c-0.004-0.003-0.009-0.006-0.013-0.01c-0.001-0.001-0.003-0.002-0.004-0.003c-0.001,0-0.001-0.001-0.002-0.001
				c-0.144-0.101-0.302-0.168-0.464-0.201c-0.001,0-0.002,0-0.003-0.001c-0.001,0-0.001,0-0.002,0
				c-0.13-0.026-0.266-0.031-0.404-0.012c0,0-0.001,0-0.001,0c-0.001,0-0.003,0-0.004,0.001c-0.002,0-0.004,0.001-0.006,0.001
				c0,0,0,0,0,0c-0.023,0.003-0.046,0.007-0.068,0.012l-0.541,0.098c-0.005,0.001-0.01,0.002-0.015,0.003l0-0.003l0,0.003
				c-0.033,0.006-0.066,0.013-0.098,0.022c-0.038,0.002-0.077,0.007-0.116,0.013l-0.57,0.087c-0.661,0.099-1.122,0.707-1.039,1.37
				c0.044,0.349,0.23,0.647,0.493,0.84c0.237,0.174,0.536,0.264,0.851,0.232c0.218-0.022,0.452-0.06,0.677-0.102
				c0.033-0.006,0.065-0.013,0.098-0.022c0.025-0.002,0.05-0.004,0.075-0.007c0.199-0.025,0.397-0.062,0.582-0.101
				c0.329-0.037,0.642-0.203,0.852-0.489c0.402-0.548,0.297-1.31-0.252-1.712l-0.022-0.016
				C199.499,21.038,199.498,21.037,199.498,21.036L199.498,21.036z M197.459,23.128l0.024,0.018L197.459,23.128L197.459,23.128z
				 M197.218,23.166l0.025,0.018L197.218,23.166L197.218,23.166z"/>
		</g>
		<g id="path7270" inkscape:connector-curvature="0" opacity="0.35" enable-background="new    ">
			<path fill="#BE202E" d="M197.675,22.591c-0.09-0.066-0.158-0.147-0.194-0.244l-0.116-0.085l0.077-0.112
				c-0.023-0.282,0.088-0.523,0.379-0.58c0,0,0.215-0.036,0.261-0.043l0.008,0.052c0.077,0.021,0.15,0.054,0.213,0.1
				c0.04,0.029,0.077,0.062,0.11,0.101l0.234-0.354c0.174-0.036,0.352,0.008,0.484,0.105c0.119,0.088,0.204,0.216,0.237,0.373
				c0.071,0.328-0.141,0.652-0.466,0.725c-0.139,0.015-0.324-0.003-0.497-0.053c-0.037,0.044-0.079,0.08-0.13,0.114l0.008,0.052
				c-0.04,0.006-0.196,0.03-0.227,0.038C198.058,22.78,197.768,22.659,197.675,22.591z"/>
			<path fill="#C7CAE2" d="M198.769,22.029l0.025,0.018 M198.769,22.029c-0.182,0.04-0.381,0.081-0.582,0.106
				C198.381,22.102,198.575,22.068,198.769,22.029 M198.186,22.135c-0.08,0.013-0.16,0.026-0.24,0.039
				c0.049-0.009,0.097-0.019,0.145-0.028C198.123,22.142,198.155,22.139,198.186,22.135 M197.947,22.174
				c-0.192,0.037-0.393,0.07-0.58,0.089C197.56,22.233,197.753,22.204,197.947,22.174 M199.498,21.036
				c-0.004-0.003-0.009-0.006-0.013-0.01c-0.001-0.001-0.003-0.002-0.004-0.003c-0.001,0-0.001-0.001-0.002-0.001
				c-0.144-0.101-0.302-0.168-0.464-0.201c-0.001,0-0.002,0-0.003-0.001c-0.001,0-0.001,0-0.002,0
				c-0.13-0.026-0.266-0.031-0.404-0.012c0,0-0.001,0-0.001,0c-0.001,0-0.003,0-0.004,0.001c-0.002,0-0.004,0.001-0.006,0.001
				c0,0,0,0,0,0c-0.023,0.003-0.046,0.007-0.068,0.012l-0.541,0.098c-0.005,0.001-0.01,0.002-0.015,0.003l0-0.003l0,0.003
				c-0.033,0.006-0.066,0.013-0.098,0.022c-0.038,0.002-0.077,0.007-0.116,0.013l-0.57,0.087c-0.661,0.099-1.122,0.707-1.039,1.37
				c0.044,0.349,0.23,0.647,0.493,0.84c0.237,0.174,0.536,0.264,0.851,0.232c0.218-0.022,0.452-0.06,0.677-0.102
				c0.033-0.006,0.065-0.013,0.098-0.022c0.025-0.002,0.05-0.004,0.075-0.007c0.199-0.025,0.397-0.062,0.582-0.101
				c0.329-0.037,0.642-0.203,0.852-0.489c0.402-0.548,0.297-1.31-0.252-1.712l-0.022-0.016
				C199.499,21.038,199.498,21.037,199.498,21.036L199.498,21.036z M197.459,23.128l0.024,0.018L197.459,23.128L197.459,23.128z
				 M197.218,23.166l0.025,0.018L197.218,23.166L197.218,23.166z"/>
		</g>
		<g id="path7272" inkscape:connector-curvature="0">
			<path fill="#BE202E" d="M199.615,16.615c-0.169-0.124-0.272-0.332-0.253-0.553c0.029-0.311,0.273-0.545,0.574-0.559
				c0.155-0.024,0.502-0.086,0.508-0.087c0.227-0.038,0.579,0.032,0.795,0.19c0.09,0.066,0.156,0.15,0.176,0.247
				c0.064,0.323,0.135,0.595-0.185,0.676c-0.017,0.003-0.83,0.157-0.847,0.159c-0.044,0.004-0.091-0.001-0.143-0.008
				c-0.097,0.041-0.203,0.061-0.313,0.051C199.808,16.721,199.701,16.678,199.615,16.615z"/>
			<path fill="#C7CAE2" d="M201.082,15.931l0.025,0.018 M201.082,15.931c-0.28,0.07-0.584,0.117-0.888,0.164
				c-0.07,0-0.14,0.023-0.21,0.023C200.357,16.048,200.731,16.001,201.082,15.931 M199.984,16.118c-0.012,0-0.018,0-0.018,0
				S199.972,16.118,199.984,16.118 M201.811,14.939c-0.013-0.009-0.026-0.019-0.039-0.027c-0.139-0.094-0.29-0.156-0.446-0.187
				c0,0-0.001,0-0.001,0c-0.001,0-0.003-0.001-0.004-0.001c-0.154-0.031-0.317-0.032-0.481,0.001l-0.532,0.091l-0.459,0.077
				c-0.624,0.059-1.113,0.585-1.114,1.225c0,0.408,0.198,0.77,0.503,0.994c0.203,0.149,0.454,0.238,0.726,0.238v0
				c0.006,0,0.012,0,0.018,0c0.068,0,0.241-0.017,0.309-0.028c0.375-0.054,0.683-0.102,0.964-0.165
				c0.322-0.041,0.626-0.207,0.832-0.487c0.402-0.548,0.296-1.31-0.252-1.712l-0.018-0.013
				C201.815,14.942,201.813,14.94,201.811,14.939L201.811,14.939z M200.353,16.923l0.025,0.018L200.353,16.923L200.353,16.923z"/>
		</g>
		<g id="path7274" inkscape:connector-curvature="0" opacity="0.35" enable-background="new    ">
			<path fill="#BE202E" d="M199.615,16.615c-0.169-0.124-0.272-0.332-0.253-0.553c0.029-0.311,0.273-0.545,0.574-0.559
				c0.155-0.024,0.502-0.086,0.508-0.087c0.227-0.038,0.579,0.032,0.795,0.19c0.09,0.066,0.156,0.15,0.176,0.247
				c0.064,0.323,0.135,0.595-0.185,0.676c-0.017,0.003-0.83,0.157-0.847,0.159c-0.044,0.004-0.091-0.001-0.143-0.008
				c-0.097,0.041-0.203,0.061-0.313,0.051C199.808,16.721,199.701,16.678,199.615,16.615z"/>
			<path fill="#C7CAE2" d="M201.082,15.931l0.025,0.018 M201.082,15.931c-0.28,0.07-0.584,0.117-0.888,0.164
				c-0.07,0-0.14,0.023-0.21,0.023C200.357,16.048,200.731,16.001,201.082,15.931 M199.984,16.118c-0.012,0-0.018,0-0.018,0
				S199.972,16.118,199.984,16.118 M201.811,14.939c-0.013-0.009-0.026-0.019-0.039-0.027c-0.139-0.094-0.29-0.156-0.446-0.187
				c0,0-0.001,0-0.001,0c-0.001,0-0.003-0.001-0.004-0.001c-0.154-0.031-0.317-0.032-0.481,0.001l-0.532,0.091l-0.459,0.077
				c-0.624,0.059-1.113,0.585-1.114,1.225c0,0.408,0.198,0.77,0.503,0.994c0.203,0.149,0.454,0.238,0.726,0.238v0
				c0.006,0,0.012,0,0.018,0c0.068,0,0.241-0.017,0.309-0.028c0.375-0.054,0.683-0.102,0.964-0.165
				c0.322-0.041,0.626-0.207,0.832-0.487c0.402-0.548,0.296-1.31-0.252-1.712l-0.018-0.013
				C201.815,14.942,201.813,14.94,201.811,14.939L201.811,14.939z M200.353,16.923l0.025,0.018L200.353,16.923L200.353,16.923z"/>
		</g>
		<g id="path7286" inkscape:connector-curvature="0">
			
				<linearGradient id="SVGID_2_" gradientUnits="userSpaceOnUse" x1="-97782.2812" y1="-119557.1484" x2="-97619.0312" y2="-119557.1484" gradientTransform="matrix(0.0832 -0.0456 -0.0456 -0.0832 2829.9163 -14309.79)">
				<stop  offset="0.3233" style="stop-color:#9E2064"/>
				<stop  offset="0.6302" style="stop-color:#C92037"/>
				<stop  offset="0.7514" style="stop-color:#CD2335"/>
				<stop  offset="1" style="stop-color:#E97826"/>
			</linearGradient>
			<path fill="url(#SVGID_2_)" d="M191.117,4.78l-4.651-9.179c1.174-2.448,2.207-4.064,3.238-5.657
				c1.22-1.857,2.44-3.658,3.633-5.367c1.311-1.856,2.576-3.614,3.815-5.274c1.105-1.477,2.188-2.863,3.219-4.149
				c0.131-0.164,0.739-0.75,0.945-0.731c0.191,0.018,0.723-0.317,0.869-0.21c0.01,0.007,3.602,6.754,3.602,6.754
				c-1.228,2.341-2.388,4.11-3.555,5.95c-1.393,2.211-2.554,4.141-3.696,6.142c-1.097,1.932-2.192,3.912-3.288,5.941l-3.035,5.791
				c-0.11,0.205-0.32,0.332-0.551,0.326c-0.133,0-0.257-0.04-0.359-0.116C191.224,4.946,191.163,4.87,191.117,4.78z"/>
			<path fill="#C7CAE2" d="M201.666-25.469l3.575,6.729c-1.192,1.706-2.36,3.481-3.528,5.327c-0.07,0.093-0.14,0.21-0.21,0.327
				c-1.192,1.892-2.36,3.832-3.505,5.841c-1.098,1.939-2.196,3.925-3.294,5.958c-1.005,1.916-2.009,3.855-3.037,5.794l-4.649-9.182
				c0.047-0.07,0.07-0.117,0.117-0.187c1.028-1.659,2.056-3.271,3.084-4.86c1.215-1.846,2.43-3.645,3.621-5.35
				c1.308-1.846,2.57-3.598,3.808-5.257c1.098-1.472,2.173-2.85,3.201-4.135C201.128-24.815,201.409-25.142,201.666-25.469
				 M202.394-26.462c-0.179-0.131-0.392-0.214-0.619-0.234c-0.415-0.037-0.82,0.138-1.077,0.466l-0.421,0.518l-0.39,0.478
				c-1.036,1.295-2.119,2.685-3.226,4.168c-1.244,1.666-2.511,3.427-3.826,5.281c-1.203,1.721-2.424,3.53-3.645,5.385
				c-1.038,1.603-2.07,3.222-3.102,4.888c-0.226,0.365-0.363,1.008-0.169,1.392l4.649,9.182c0.089,0.176,0.217,0.324,0.37,0.436
				c0.204,0.15,0.454,0.236,0.717,0.239c0.46,0.004,0.884-0.248,1.099-0.654l2.001-3.813l1.038-1.986
				c1.087-2.012,2.181-3.991,3.275-5.923c1.134-1.99,2.293-3.914,3.475-5.791c0.019-0.026,0.191-0.297,0.209-0.325
				c1.158-1.829,2.316-3.59,3.497-5.28c0.265-0.379,0.295-0.874,0.078-1.283l-3.575-6.729
				C202.665-26.213,202.541-26.354,202.394-26.462L202.394-26.462z"/>
		</g>
		<g id="path7298" inkscape:connector-curvature="0">
			
				<linearGradient id="SVGID_3_" gradientUnits="userSpaceOnUse" x1="-97551.7578" y1="-119554.2734" x2="-97453.4688" y2="-119554.2734" gradientTransform="matrix(0.0832 -0.0456 -0.0456 -0.0832 2829.9163 -14309.79)">
				<stop  offset="0" style="stop-color:#282662"/>
				<stop  offset="0.0955" style="stop-color:#662E8D"/>
				<stop  offset="0.7882" style="stop-color:#9F2064"/>
				<stop  offset="0.9487" style="stop-color:#CD2032"/>
			</linearGradient>
			<path fill="url(#SVGID_3_)" d="M172.737,65.642c-0.681-1.236-1.601-2.758-2.66-3.535c-0.048-0.025-0.113-0.062-0.179-0.111
				c-0.329-0.241-0.793-0.735-0.705-0.987l3.741-10.706c0.075-0.221,0.628-1.336,0.86-1.36l3.764-0.424
				c5.331,0.94,9.828-0.518,13.53-4.323c0.211-0.218,0.551-0.249,0.799-0.072c0.007,0.005,0.007,0.005,0.007,0.005
				c0.246,0.18,0.32,0.511,0.182,0.782c-0.508,0.97-1.004,1.842-1.498,2.654c-1.072,1.726-2.232,3.111-3.679,4.317
				c0.185-0.099,0.421-0.1,0.616,0.023c0.013,0.01,0.02,0.015,0.033,0.024c0.239,0.175,0.318,0.499,0.194,0.765
				c-0.252,0.51-0.513,0.992-0.785,1.446c-2.659,4.402-7.719,6.704-14.688,6.695c0.97,1.274,1.519,2.8,1.622,4.469
				c0.021,0.291-0.162,0.555-0.445,0.634c-0.181,0.051-0.38,0.017-0.533-0.095C172.843,65.79,172.779,65.723,172.737,65.642z
				 M186.699,52.04c-0.812,0.661-1.726,1.266-2.761,1.855C185.219,53.568,186.003,52.918,186.699,52.04L186.699,52.04z"/>
			<path fill="#C7CAE2" d="M191.526,44.621c-0.491,0.958-0.981,1.822-1.472,2.617c-2.079,3.341-4.439,5.374-9.135,7.476l-0.023,0
				l0.023,0c3.201,0.187,4.883-0.561,6.261-2.29c-0.234,0.491-0.491,0.958-0.748,1.402c-2.991,4.953-8.831,6.659-15.583,6.355
				c1.519,1.402,2.313,3.224,2.43,5.163c-0.855-1.555-1.759-2.948-2.832-3.736c-0.217-0.159-0.441-0.294-0.672-0.4
				c0.841-2.43,1.192-3.504,1.612-4.696c0.07-0.257,0.163-0.491,0.257-0.748c0-0.023,0.023-0.047,0.023-0.07
				c0.607-1.776,1.238-3.505,1.846-5.187c0.117-0.327,0.234-0.631,0.35-0.958l3.762-0.421
				C182.648,50.041,187.414,48.85,191.526,44.621 M192.255,43.629c-0.004-0.003-0.007-0.005-0.011-0.008
				c-0.495-0.355-1.176-0.295-1.6,0.142c-3.603,3.705-7.789,5.065-12.799,4.156c-0.118-0.021-0.238-0.025-0.357-0.012l-3.762,0.421
				c-0.468,0.052-0.865,0.366-1.023,0.81l-0.17,0.465l-0.18,0.493l-0.25,0.692c-0.531,1.468-1.075,2.972-1.601,4.51
				c-0.004,0.012-0.008,0.023-0.011,0.035c-0.002,0.006-0.004,0.013-0.007,0.019c-0.141,0.38-0.221,0.601-0.285,0.838l-0.634,1.834
				l-0.954,2.783c-0.179,0.518,0.007,1.082,0.434,1.395c0.067,0.049,0.139,0.092,0.217,0.127c0.149,0.068,0.303,0.16,0.456,0.273
				c0.961,0.706,1.831,2.154,2.482,3.336c0.089,0.161,0.209,0.296,0.35,0.399c0.301,0.221,0.694,0.299,1.071,0.19
				c0.553-0.16,0.922-0.682,0.887-1.257c-0.084-1.393-0.462-2.69-1.113-3.843c6.621-0.23,11.463-2.612,14.091-6.965
				c0.285-0.491,0.557-0.988,0.805-1.509c0.214-0.45,0.133-0.97-0.177-1.331c1.125-1.07,2.082-2.284,2.984-3.734
				c0.509-0.824,1.016-1.717,1.522-2.706C192.898,44.644,192.741,43.986,192.255,43.629L192.255,43.629z"/>
		</g>
		<g id="path7310" inkscape:connector-curvature="0">
			
				<linearGradient id="SVGID_4_" gradientUnits="userSpaceOnUse" x1="-97707.2344" y1="-119486.9219" x2="-97546.2734" y2="-119486.9219" gradientTransform="matrix(0.0832 -0.0456 -0.0456 -0.0832 2829.9163 -14309.79)">
				<stop  offset="0.3233" style="stop-color:#9E2064"/>
				<stop  offset="0.6302" style="stop-color:#C92037"/>
				<stop  offset="0.7514" style="stop-color:#CD2335"/>
				<stop  offset="1" style="stop-color:#E97826"/>
			</linearGradient>
			<path fill="url(#SVGID_4_)" d="M172.257,48.804l-4.671-9.229c0.442-2.842,1.029-5.291,1.735-7.735l0.945-3.131
				c0.402-1.222,0.843-2.491,1.314-3.801c0.727-1.999,1.548-4.113,2.485-6.322c0.826-1.947,1.762-3.987,2.775-6.078
				c0.002-0.003,2.177-4.316,3.045-5.951c1.032-1.949,2.087-3.846,3.163-5.722c0.907-1.591,1.849-3.152,2.785-4.692l0.446-0.74
				c0.115-0.191,0.443-0.492,0.665-0.482c0.189,0.006,0.437-0.032,0.576,0.071c0.027,0.019,4.672,9.241,4.672,9.241l-1.955,4.535
				l-1.672,3.496l-2.272,4.925c-0.957,2.097-1.892,4.199-2.797,6.323l-2.643,6.231c-0.86,2.076-3.407,8.448-3.407,8.448
				l-4.057,10.545c-0.088,0.231-0.302,0.391-0.548,0.405c-0.143,0.007-0.285-0.036-0.398-0.119
				C172.367,48.967,172.305,48.891,172.257,48.804z"/>
			<path fill="#C7CAE2" d="M187.04-4.652l4.603,9.158c-0.023,0.07-0.07,0.14-0.093,0.21c-0.631,1.262-1.262,2.523-1.869,3.785
				c-0.374,0.748-0.724,1.472-1.075,2.219c-0.958,2.056-1.939,4.135-2.874,6.215c-0.958,2.103-1.892,4.205-2.804,6.332
				c-0.888,2.079-1.776,4.159-2.64,6.238c-0.864,2.079-1.706,4.135-2.523,6.191c-0.841,2.149-1.682,4.275-2.5,6.378
				c-0.187,0.491-0.374,0.958-0.561,1.425c-0.631,1.706-1.285,3.364-1.892,5.023l-4.673-9.228c0.491-2.43,1.075-4.86,1.776-7.289
				c0.304-1.028,0.607-2.079,0.935-3.107c0.397-1.215,0.841-2.477,1.308-3.785c0.724-1.986,1.542-4.089,2.477-6.285
				c0.818-1.939,1.752-3.972,2.757-6.051c0.164-0.327,0.327-0.677,0.491-1.005c0.841-1.659,1.682-3.294,2.547-4.93
				c1.028-1.939,2.079-3.832,3.154-5.701c1.051-1.846,2.149-3.645,3.224-5.42C186.9-4.395,186.97-4.535,187.04-4.652 M187.769-5.645
				c-0.195-0.143-0.432-0.229-0.683-0.238c-0.449-0.017-0.871,0.212-1.102,0.597c-0.005,0.008-0.065,0.113-0.07,0.121l-0.516,0.835
				c-0.966,1.595-1.944,3.21-2.886,4.863c-1.079,1.877-2.137,3.782-3.172,5.733c-0.869,1.643-1.713,3.284-2.557,4.95l-0.256,0.524
				l-0.238,0.487c-1.022,2.114-1.965,4.166-2.79,6.124c-0.942,2.213-1.768,4.336-2.499,6.341c-0.474,1.327-0.921,2.599-1.322,3.824
				c-0.272,0.856-0.526,1.718-0.777,2.571l-0.168,0.57c-0.683,2.369-1.289,4.854-1.802,7.395c-0.055,0.271-0.017,0.553,0.108,0.8
				l4.673,9.229c0.089,0.176,0.217,0.324,0.37,0.436c0.227,0.166,0.509,0.254,0.801,0.237c0.489-0.029,0.915-0.345,1.084-0.806
				c0.321-0.876,0.655-1.753,0.992-2.636l0.899-2.383l0.556-1.414l1.505-3.844l0.99-2.524c0.813-2.044,1.652-4.094,2.514-6.167
				c0.863-2.076,1.749-4.151,2.635-6.227c0.907-2.116,1.838-4.21,2.792-6.305c0.738-1.643,1.503-3.28,2.263-4.906l0.606-1.299
				c0.345-0.735,0.691-1.451,1.06-2.189c0.613-1.273,1.241-2.529,1.869-3.785c0.026-0.052,0.142-0.317,0.16-0.372
				c0.103-0.31,0.079-0.649-0.068-0.942l-4.603-9.158C188.051-5.382,187.923-5.532,187.769-5.645L187.769-5.645z"/>
		</g>
		<g id="path7322" inkscape:connector-curvature="0">
			
				<linearGradient id="SVGID_5_" gradientUnits="userSpaceOnUse" x1="-97607.7656" y1="-119438.25" x2="-97523.0312" y2="-119438.25" gradientTransform="matrix(0.0832 -0.0456 -0.0456 -0.0832 2829.9163 -14309.79)">
				<stop  offset="0" style="stop-color:#282662"/>
				<stop  offset="0.0955" style="stop-color:#662E8D"/>
				<stop  offset="0.7882" style="stop-color:#9F2064"/>
				<stop  offset="0.9487" style="stop-color:#CD2032"/>
			</linearGradient>
			<path fill="url(#SVGID_5_)" d="M157.117,90.313c-0.16-0.158-0.213-0.391-0.146-0.608c3.358-11.15,6.425-20.645,9.362-28.989
				c-1.785-0.177-4.219,0.356-7.259,1.597c-0.202,0.087-0.428,0.054-0.597-0.07c-0.07-0.051-0.126-0.113-0.168-0.195
				c-0.156-0.268-0.087-0.605,0.161-0.791c1.618-1.223,3.434-2.515,5.285-3.179c-0.51-0.272-1.092-0.628-1.739-1.103
				c-0.504-0.37-1.049-0.811-1.623-1.344c-0.216-0.2-0.266-0.522-0.11-0.775c0.151-0.247,0.461-0.356,0.738-0.255
				c2.442,0.904,4.321,1.231,5.573,0.986c-0.751-2.686-2.328-6.305-5.62-11.08c0.4-1.136,0.514-1.257,2.867,0.47
				c1.022,0.75,1.858,1.476,2.509,2.168c0.247-2.689,0.627-5.168,1.113-7.64c0.095-0.227,0.374-0.593,0.615-0.601
				c0.199-0.007,0.431-0.072,0.567,0.028c0.027,0.019,4.742,9.313,4.742,9.313c-0.002,0.08-0.182,1.062-0.209,1.134l-2.632,7.169
				c-6.649,18.55-10.469,31.527-10.509,31.651c-0.431,1.185-1.22,1.954-2.309,2.269c-0.186,0.058-0.385,0.024-0.538-0.088
				C157.165,90.359,157.144,90.332,157.117,90.313z"/>
			<path fill="#C7CAE2" d="M168.163,39.294l4.673,9.229l0,0.023c-0.163,0.421-0.304,0.818-0.467,1.238
				c-0.678,1.822-1.332,3.598-1.963,5.327c-0.047,0.14-0.093,0.257-0.14,0.397c-0.164,0.491-0.35,0.958-0.514,1.425
				c-5.934,16.565-9.743,29.181-10.303,31.097c-0.327,0.888-0.911,1.565-1.892,1.846c3.201-10.607,6.402-20.606,9.602-29.648
				c-2.009-0.467-4.836,0.093-8.317,1.519c2.383-1.799,4.743-3.364,7.009-3.505c-0.562-0.127-1.799-0.535-3.483-1.771
				c-0.486-0.357-1.009-0.782-1.564-1.29c2.36,0.864,4.416,1.308,5.911,1.005c-0.304-3.948-2.43-7.967-5.233-12.032
				c-0.011-0.011,0.898,0.517,2.005,1.329c1.185,0.87,2.596,2.066,3.345,3.274c0-0.093,0.023-0.21,0.023-0.304
				c0.21-2.944,0.631-5.888,1.215-8.831C168.093,39.504,168.116,39.411,168.163,39.294 M168.891,38.302
				c-0.222-0.163-0.497-0.25-0.783-0.238c-0.483,0.021-0.909,0.324-1.089,0.773c-0.078,0.194-0.119,0.349-0.158,0.543
				c-0.436,2.195-0.771,4.35-1.002,6.434c-0.485-0.434-1.035-0.876-1.646-1.324c-2.017-1.48-2.852-2.093-3.669-1.137
				c-0.363,0.424-0.395,1.04-0.078,1.499c2.816,4.082,4.353,7.288,4.862,10.187c-1.059-0.063-2.433-0.403-4.103-1.015
				c-0.552-0.202-1.17,0.014-1.476,0.517c-0.305,0.502-0.213,1.151,0.221,1.548c0.591,0.541,1.149,0.994,1.667,1.374
				c0.261,0.191,0.513,0.365,0.755,0.522c-1.517,0.734-2.969,1.777-4.294,2.778c-0.494,0.373-0.634,1.054-0.328,1.592
				c0.088,0.155,0.205,0.283,0.341,0.383c0.336,0.247,0.788,0.314,1.196,0.147c2.473-1.012,4.569-1.548,6.168-1.584
				c-2.839,8.111-5.822,17.363-9.098,28.219c-0.13,0.431-0.014,0.899,0.302,1.22c0.046,0.047,0.096,0.09,0.149,0.129
				c0.304,0.223,0.697,0.297,1.066,0.191c1.28-0.366,2.217-1.266,2.71-2.604c0.064-0.207,3.931-13.31,10.307-31.107l0.211-0.579
				c0.106-0.285,0.213-0.574,0.312-0.872l-1.028-0.787l1.157,0.422c0.63-1.727,1.283-3.5,1.96-5.32l0.234-0.619l0.227-0.602
				c0.055-0.142,0.083-0.292,0.084-0.445c0-0.194-0.045-0.408-0.133-0.581l-4.673-9.229
				C169.172,38.562,169.044,38.414,168.891,38.302L168.891,38.302z"/>
		</g>
		<g id="path7334" inkscape:connector-curvature="0">
			
				<linearGradient id="SVGID_6_" gradientUnits="userSpaceOnUse" x1="-97624.25" y1="-119596.8906" x2="-97463.8828" y2="-119596.8906" gradientTransform="matrix(0.0832 -0.0456 -0.0456 -0.0832 2829.9163 -14309.79)">
				<stop  offset="0.3233" style="stop-color:#9E2064"/>
				<stop  offset="0.6302" style="stop-color:#C92037"/>
				<stop  offset="0.7514" style="stop-color:#CD2335"/>
				<stop  offset="1" style="stop-color:#E97826"/>
			</linearGradient>
			<path fill="url(#SVGID_6_)" d="M173.448,50.005c-0.133-0.118-0.204-0.293-0.204-0.466c0.004-0.089,0.074-0.324,0.118-0.404
				l3.091-8.282l1.695-4.404l2.559-6.395c0.904-2.206,1.794-4.337,2.656-6.375c0.916-2.152,1.807-4.215,2.698-6.201l5.398-11.619
				c0.029-0.06,0.466-0.934,0.512-0.983l12.222-1.637c0.078-0.009,0.275,0.008,0.275,0.008c0.06-0.033,0.124-0.057,0.193-0.068
				c1.824-0.342,3.869-1.041,4.982-1.701c0.198-0.166,0.677-0.331,0.902-0.206c0.113,0.062,0.252,0.123,0.358,0.201
				c0.103,0.076,0.176,0.17,0.157,0.294c-0.048,0.322-0.147,0.771-0.296,1.315c0,0-0.547,1.692-0.55,1.695l-0.499,1.314
				c-0.379,0.948-0.851,2.016-1.45,3.2l-0.393,0.8c-0.719,1.188-1.133,1.752-1.578,2.268c-0.01,0.013-1.005,1.05-1.19,1.225
				c0.248-0.15,0.46-0.286,0.633-0.403c0.216-0.148,0.502-0.142,0.712,0.012c0.013,0.01,0.027,0.025,0.041,0.035
				c0.211,0.186,0.269,0.489,0.143,0.738c-1.336,2.676-2.891,4.747-4.749,6.31c0.033-0.017,0.068-0.037,0.106-0.055
				c0.207-0.108,0.46-0.091,0.649,0.048c0.01,0.007,0.021,0.02,0.031,0.028c0.189,0.159,0.265,0.419,0.192,0.657
				c-0.798,2.493-1.647,4.797-2.517,6.916c-1.019,2.459-2.057,4.654-3.194,6.634c-1.506,2.679-3.133,4.937-4.962,6.914
				c-3.843,4.15-9.63,7.471-14.247,8.209c-0.059,0.059-0.141,0.101-0.247,0.115l-3.764,0.424c-0.153,0.021-0.31-0.023-0.433-0.113
				C173.48,50.039,173.46,50.024,173.448,50.005z"/>
			<path fill="#C7CAE2" d="M210.45,1.679c-0.047,0.304-0.14,0.724-0.28,1.238c-0.093,0.35-0.234,0.748-0.374,1.191
				c-0.047,0.164-0.117,0.304-0.164,0.467c-0.14,0.397-0.304,0.818-0.491,1.285c-0.374,0.934-0.841,1.986-1.425,3.154
				c-0.117,0.257-0.257,0.514-0.397,0.794c-0.093,0.187-0.21,0.35-0.327,0.537c-0.35,0.584-0.748,1.121-1.168,1.612
				c-0.187,0.21-0.374,0.397-0.561,0.607c-0.304,0.304-0.607,0.607-0.935,0.888c-0.21,0.187-0.42,0.374-0.654,0.537
				c-1.075,0.818-2.313,1.495-3.762,2.103c0.093,0,0.164-0.023,0.234-0.023c0.304-0.047,0.608-0.093,0.888-0.164
				c2.149-0.491,3.948-1.472,5.047-2.219c-1.916,3.832-4.556,6.939-8.761,8.551c0.257-0.047,0.491-0.07,0.724-0.117
				c0.234-0.047,0.467-0.093,0.701-0.14c1.308-0.28,2.5-0.678,3.528-1.215c-0.794,2.477-1.635,4.766-2.5,6.869
				c-1.005,2.43-2.033,4.603-3.154,6.565c-1.495,2.64-3.107,4.883-4.883,6.799c-3.855,4.159-9.836,7.523-14.345,8.084
				c0.094,0.023,0.164,0.023,0.234,0.047l-3.762,0.421c0-0.047,0.023-0.093,0.047-0.14c0.794-2.173,1.589-4.299,2.36-6.355
				c0.047-0.093,0.07-0.21,0.117-0.304c0.794-2.079,1.565-4.112,2.336-6.074c0.864-2.22,1.729-4.346,2.57-6.425
				c0.888-2.173,1.776-4.299,2.64-6.332c0.911-2.149,1.799-4.205,2.687-6.191c0.724-1.612,1.425-3.177,2.126-4.696
				c0.234-0.514,0.467-1.005,0.701-1.495c0.467-0.981,0.911-1.939,1.355-2.874c0.397-0.864,0.818-1.706,1.215-2.547
				c0.14-0.28,0.257-0.537,0.397-0.818c0.023-0.023,0.047-0.07,0.023-0.164l11.822-1.285c-0.023,0.023-0.07,0.023-0.093,0.047
				c0.187-0.047,0.374-0.07,0.537-0.093c0.023-0.023,0.047-0.023,0.07-0.023l3.458-0.374l-3.458,0.374
				c1.752-0.327,3.925-1.028,5.187-1.776C210.147,1.913,210.31,1.796,210.45,1.679 M204.259,3.852l0.025,0.018 M211.179,0.687
				c-0.039-0.029-0.08-0.055-0.123-0.08c-0.446-0.252-1.001-0.202-1.394,0.126c-0.09,0.075-0.175,0.133-0.253,0.172
				c-1.121,0.661-3.133,1.344-4.862,1.667c-0.042,0.008-0.084,0.018-0.124,0.03c-0.045,0.007-0.088,0.013-0.131,0.02
				c-0.059-0.002-0.118,0.001-0.177,0.008l-11.811,1.284c-0.354,0.038-0.673,0.228-0.877,0.52c-0.106,0.152-0.175,0.324-0.205,0.502
				l-0.118,0.243l-0.189,0.389l-0.496,1.033c-0.247,0.512-0.496,1.027-0.737,1.55l-0.625,1.325l-0.723,1.533l-0.71,1.515
				c-0.625,1.354-1.253,2.752-1.897,4.187l-0.231,0.514c-0.892,1.995-1.783,4.058-2.697,6.215c-0.866,2.037-1.756,4.168-2.646,6.346
				l-0.271,0.67c-0.758,1.872-1.532,3.785-2.306,5.774c-0.64,1.629-1.282,3.311-1.936,5.027l-0.403,1.055
				c-0.001,0.002-0.119,0.308-0.12,0.311c-0.772,2.059-1.568,4.188-2.363,6.364c-0.05,0.136-0.122,0.419-0.122,0.564
				c0,0.35,0.15,0.684,0.411,0.917c0.03,0.026,0.06,0.051,0.092,0.074c0.248,0.182,0.557,0.266,0.865,0.231l3.762-0.421
				c0.169-0.019,0.328-0.072,0.469-0.152c4.712-0.825,10.533-4.185,14.408-8.365c1.852-1.998,3.504-4.297,5.051-7.029
				c1.094-1.914,2.148-4.107,3.221-6.701c0.909-2.212,1.762-4.554,2.535-6.963c0.139-0.432,0.028-0.901-0.28-1.225
				c1.544-1.511,2.876-3.397,4.017-5.68c0.251-0.501,0.131-1.109-0.291-1.478c-0.026-0.022-0.052-0.044-0.079-0.064
				c0.452-0.535,0.867-1.103,1.236-1.717c0.184-0.284,0.285-0.445,0.373-0.62c0.236-0.46,0.332-0.648,0.417-0.836
				c0.582-1.161,1.063-2.244,1.447-3.206c0.194-0.484,0.363-0.921,0.509-1.332c0.112-0.311,0.153-0.421,0.186-0.539l0.122-0.376
				c0.099-0.302,0.189-0.581,0.257-0.837c0.154-0.564,0.256-1.031,0.308-1.368C211.738,1.409,211.546,0.956,211.179,0.687
				L211.179,0.687z"/>
		</g>
		<g id="path7346" inkscape:connector-curvature="0">
			
				<linearGradient id="SVGID_7_" gradientUnits="userSpaceOnUse" x1="-97718.4453" y1="-119657.4922" x2="-97555.2031" y2="-119657.4922" gradientTransform="matrix(0.0832 -0.0456 -0.0456 -0.0832 2829.9163 -14309.79)">
				<stop  offset="0.3233" style="stop-color:#9E2064"/>
				<stop  offset="0.6302" style="stop-color:#C92037"/>
				<stop  offset="0.7514" style="stop-color:#CD2335"/>
				<stop  offset="1" style="stop-color:#E97826"/>
			</linearGradient>
			<path fill="url(#SVGID_7_)" d="M191.983,5.534c-0.131-0.183-0.148-0.425-0.046-0.626l0.549,0.275l-0.223-0.935
				c0.928-1.862,1.808-3.632,2.69-5.308c1.121-2.175,2.197-4.163,3.232-6.039c1.195-2.177,2.315-4.149,3.395-5.955
				c1.43-2.387,2.58-4.239,3.637-5.859c3.749-0.446,9.168-1.115,14.29-1.978c0.164-0.028,0.334,0.011,0.467,0.108
				c0.027,0.019,0.051,0.042,0.075,0.065c0.14,0.143,0.204,0.349,0.166,0.546c-0.145,0.762-0.31,1.55-0.525,2.378
				c-0.268,0.963-0.621,2.036-1.076,3.199c-0.682,1.792-1.599,3.8-2.64,5.83c-1.06,2.092-2.263,4.197-3.49,6.105
				c-0.4,0.636-0.806,1.252-1.202,1.819c-1.498,2.082-3.074,3.611-6.718,5.298l-12.012,1.336c-0.156,0.018-0.31-0.023-0.433-0.113
				C192.067,5.642,192.018,5.59,191.983,5.534z"/>
			<path fill="#C7CAE2" d="M219.609-20.282c-0.14,0.748-0.304,1.519-0.514,2.336c-0.257,0.934-0.607,1.986-1.051,3.131
				c-0.678,1.776-1.589,3.762-2.617,5.771c-1.051,2.079-2.243,4.159-3.458,6.051c-0.397,0.631-0.794,1.238-1.192,1.799
				c-1.495,2.079-3.037,3.505-6.472,5.093l-11.822,1.285c1.051-2.103,2.033-4.089,3.014-5.958c1.121-2.173,2.196-4.159,3.224-6.028
				c1.192-2.173,2.313-4.135,3.388-5.934c0.047-0.117,0.117-0.21,0.187-0.327c1.238-2.056,2.383-3.902,3.434-5.514
				C209.399-18.764,215.03-19.511,219.609-20.282 M220.337-21.275c-0.266-0.195-0.602-0.277-0.933-0.222
				c-5.122,0.862-10.514,1.526-13.736,1.69c-0.393,0.02-0.753,0.227-0.969,0.557c-1.059,1.623-2.211,3.481-3.458,5.551
				c-0.134,0.212-0.213,0.349-0.275,0.505c-0.996,1.637-2.125,3.612-3.324,5.8c-1.032,1.877-2.112,3.872-3.239,6.055
				c-0.816,1.553-1.635,3.195-2.495,4.918l-0.526,1.054c-0.202,0.403-0.167,0.884,0.09,1.254c0.079,0.113,0.174,0.21,0.282,0.29
				c0.244,0.179,0.551,0.265,0.862,0.231l11.822-1.285c0.133-0.014,0.263-0.05,0.384-0.106c3.766-1.742,5.402-3.333,6.954-5.492
				c0.415-0.585,0.824-1.211,1.234-1.862c1.243-1.937,2.461-4.067,3.515-6.152c1.1-2.15,1.999-4.133,2.668-5.887
				c0.458-1.182,0.821-2.273,1.088-3.243c0.223-0.865,0.392-1.663,0.537-2.436c0.074-0.395-0.05-0.802-0.331-1.089
				C220.441-21.193,220.39-21.236,220.337-21.275L220.337-21.275z"/>
		</g>
		<g id="path7348" inkscape:connector-curvature="0">
			<path fill="#BE202E" d="M197.29,22.573c-0.086-0.063-0.148-0.139-0.164-0.222c-0.066-0.334-0.213-0.601,0.118-0.669
				c0.023-0.004,0.77-0.124,0.797-0.125c0.151-0.011,0.299,0.031,0.415,0.116c0.129,0.095,0.22,0.243,0.243,0.413
				c0.047,0.326-0.169,0.627-0.492,0.691C197.961,22.821,197.525,22.746,197.29,22.573z"/>
			<path fill="#C7CAE2" d="M198.091,22.169c-0.234,0.047-0.467,0.07-0.724,0.117C197.601,22.239,197.834,22.192,198.091,22.169
				 M198.82,21.176c-0.234-0.172-0.529-0.262-0.84-0.233c-0.303,0.027-0.578,0.08-0.853,0.135c-0.663,0.133-1.095,0.774-0.969,1.438
				c0.061,0.318,0.239,0.584,0.481,0.762c0.263,0.193,0.602,0.282,0.948,0.219l0.746-0.121c0.642-0.128,1.071-0.736,0.977-1.384
				C199.26,21.653,199.077,21.365,198.82,21.176L198.82,21.176z M197.363,23.161l0.025,0.018L197.363,23.161L197.363,23.161z"/>
		</g>
		<g id="path7350" inkscape:connector-curvature="0" opacity="0.35" enable-background="new    ">
			<path fill="#BE202E" d="M197.29,22.573c-0.086-0.063-0.148-0.139-0.164-0.222c-0.066-0.334-0.213-0.601,0.118-0.669
				c0.023-0.004,0.77-0.124,0.797-0.125c0.151-0.011,0.299,0.031,0.415,0.116c0.129,0.095,0.22,0.243,0.243,0.413
				c0.047,0.326-0.169,0.627-0.492,0.691C197.961,22.821,197.525,22.746,197.29,22.573z"/>
			<path fill="#C7CAE2" d="M198.091,22.169c-0.234,0.047-0.467,0.07-0.724,0.117C197.601,22.239,197.834,22.192,198.091,22.169
				 M198.82,21.176c-0.234-0.172-0.529-0.262-0.84-0.233c-0.303,0.027-0.578,0.08-0.853,0.135c-0.663,0.133-1.095,0.774-0.969,1.438
				c0.061,0.318,0.239,0.584,0.481,0.762c0.263,0.193,0.602,0.282,0.948,0.219l0.746-0.121c0.642-0.128,1.071-0.736,0.977-1.384
				C199.26,21.653,199.077,21.365,198.82,21.176L198.82,21.176z M197.363,23.161l0.025,0.018L197.363,23.161L197.363,23.161z"/>
		</g>
		<g id="path7362" inkscape:connector-curvature="0">
			
				<linearGradient id="SVGID_8_" gradientUnits="userSpaceOnUse" x1="-99077.2656" y1="-120714.9922" x2="-98566.3438" y2="-120714.9922" gradientTransform="matrix(0.0832 -0.0456 -0.0456 -0.0832 2829.9163 -14309.79)">
				<stop  offset="0.3233" style="stop-color:#9E2064"/>
				<stop  offset="0.6302" style="stop-color:#C92037"/>
				<stop  offset="0.7514" style="stop-color:#CD2335"/>
				<stop  offset="1" style="stop-color:#E97826"/>
			</linearGradient>
			<path fill="url(#SVGID_8_)" d="M197.29,22.573c-0.086-0.063-0.148-0.139-0.164-0.222c-0.066-0.334-0.213-0.601,0.118-0.669
				c0.023-0.004,0.77-0.124,0.797-0.125c0.151-0.011,0.299,0.031,0.415,0.116c0.129,0.095,0.22,0.243,0.243,0.413
				c0.047,0.326-0.169,0.627-0.492,0.691C197.961,22.821,197.525,22.746,197.29,22.573z"/>
			<path fill="#C7CAE2" d="M198.091,22.169c-0.234,0.047-0.467,0.07-0.724,0.117C197.601,22.239,197.834,22.192,198.091,22.169
				 M198.82,21.176c-0.234-0.172-0.529-0.262-0.84-0.233c-0.303,0.027-0.578,0.08-0.853,0.135c-0.663,0.133-1.095,0.774-0.969,1.438
				c0.061,0.318,0.239,0.584,0.481,0.762c0.263,0.193,0.602,0.282,0.948,0.219l0.746-0.121c0.642-0.128,1.071-0.736,0.977-1.384
				C199.26,21.653,199.077,21.365,198.82,21.176L198.82,21.176z M197.363,23.161l0.025,0.018L197.363,23.161L197.363,23.161z"/>
		</g>
		<g id="path7364" inkscape:connector-curvature="0">
			<path fill="#BE202E" d="M199.714,16.55c-0.149-0.11-0.256-0.264-0.253-0.441c-0.002-0.338,0.163-0.605,0.502-0.607l-0.002,0.003
				c0.157,0.008,0.324,0.074,0.453,0.169c0.153,0.112,0.262,0.269,0.26,0.446c-0.007,0.337-0.147,0.597-0.486,0.593
				C200.024,16.711,199.853,16.652,199.714,16.55z"/>
			<path fill="#C7CAE2" d="M200.194,16.094c-0.07,0-0.14,0.023-0.234,0.023C200.03,16.118,200.1,16.094,200.194,16.094
				 M199.465,17.087l0.025,0.018L199.465,17.087L199.465,17.087z"/>
		</g>
		<g id="path7366" inkscape:connector-curvature="0" opacity="0.35" enable-background="new    ">
			<path fill="#BE202E" d="M199.714,16.55c-0.149-0.11-0.256-0.264-0.253-0.441c-0.002-0.338,0.163-0.605,0.502-0.607l-0.002,0.003
				c0.157,0.008,0.324,0.074,0.453,0.169c0.153,0.112,0.262,0.269,0.26,0.446c-0.007,0.337-0.147,0.597-0.486,0.593
				C200.024,16.711,199.853,16.652,199.714,16.55z"/>
			<path fill="#C7CAE2" d="M200.194,16.094c-0.07,0-0.14,0.023-0.234,0.023C200.03,16.118,200.1,16.094,200.194,16.094
				 M199.465,17.087l0.025,0.018L199.465,17.087L199.465,17.087z"/>
		</g>
		<g id="path7378" inkscape:connector-curvature="0">
			
				<linearGradient id="SVGID_9_" gradientUnits="userSpaceOnUse" x1="-103619.4766" y1="-124041.8125" x2="-102143.2812" y2="-124041.8125" gradientTransform="matrix(0.0832 -0.0456 -0.0456 -0.0832 2829.9163 -14309.79)">
				<stop  offset="0.3233" style="stop-color:#9E2064"/>
				<stop  offset="0.6302" style="stop-color:#C92037"/>
				<stop  offset="0.7514" style="stop-color:#CD2335"/>
				<stop  offset="1" style="stop-color:#E97826"/>
			</linearGradient>
			<path fill="url(#SVGID_9_)" d="M199.714,16.55c-0.149-0.11-0.256-0.264-0.253-0.441c-0.002-0.338,0.163-0.605,0.502-0.607
				l-0.002,0.003c0.157,0.008,0.324,0.074,0.453,0.169c0.153,0.112,0.262,0.269,0.26,0.446c-0.007,0.337-0.147,0.597-0.486,0.593
				C200.024,16.711,199.853,16.652,199.714,16.55z"/>
			<path fill="#C7CAE2" d="M200.194,16.094c-0.07,0-0.14,0.023-0.234,0.023C200.03,16.118,200.1,16.094,200.194,16.094
				 M199.465,17.087l0.025,0.018L199.465,17.087L199.465,17.087z"/>
		</g>
		<g id="path7380" inkscape:connector-curvature="0">
			<polygon fill="#BE202E" points="199.984,16.118 199.984,16.118 199.984,16.118 199.984,16.118 199.984,16.118 			"/>
			<path fill="#C7CAE2" d="M199.255,17.11l0.025,0.018c0.274,0.201,0.654,0.138,0.848-0.141c0.194-0.279,0.13-0.669-0.144-0.87
				c-0.274-0.201-0.659-0.142-0.861,0.132C198.922,16.524,198.981,16.909,199.255,17.11L199.255,17.11z"/>
		</g>
		<g id="path7382" inkscape:connector-curvature="0" opacity="0.35" enable-background="new    ">
			<polygon fill="#BE202E" points="199.984,16.118 199.984,16.118 199.984,16.118 199.984,16.118 199.984,16.118 			"/>
			<path fill="#C7CAE2" d="M199.255,17.11l0.025,0.018c0.274,0.201,0.654,0.138,0.848-0.141c0.194-0.279,0.13-0.669-0.144-0.87
				c-0.274-0.201-0.659-0.142-0.861,0.132C198.922,16.524,198.981,16.909,199.255,17.11L199.255,17.11z"/>
		</g>
		<g id="path7394" inkscape:connector-curvature="0">
			
				<linearGradient id="SVGID_10_" gradientUnits="userSpaceOnUse" x1="-96871.5312" y1="-119088.2031" x2="-96871.5312" y2="-119088.2031" gradientTransform="matrix(0.0832 -0.0456 -0.0456 -0.0832 2829.9163 -14309.79)">
				<stop  offset="0.3233" style="stop-color:#9E2064"/>
				<stop  offset="0.6302" style="stop-color:#C92037"/>
				<stop  offset="0.7514" style="stop-color:#CD2335"/>
				<stop  offset="1" style="stop-color:#E97826"/>
			</linearGradient>
			<polygon fill="url(#SVGID_10_)" points="199.984,16.118 199.984,16.118 199.984,16.118 199.984,16.118 199.984,16.118 			"/>
			<path fill="#C7CAE2" d="M199.255,17.11l0.025,0.018c0.274,0.201,0.654,0.138,0.848-0.141c0.194-0.279,0.13-0.669-0.144-0.87
				c-0.274-0.201-0.659-0.142-0.861,0.132C198.922,16.524,198.981,16.909,199.255,17.11L199.255,17.11z"/>
		</g>
	</g>
	<g id="g4701" transform="matrix(0.13272567,0.01947468,-0.01947468,0.13272567,31.692569,-7.8300516)">
		<g id="path4710" inkscape:connector-curvature="0">
			
				<linearGradient id="SVGID_11_" gradientUnits="userSpaceOnUse" x1="-86158.8125" y1="-45914.7227" x2="-86135.3984" y2="-45942.1016" gradientTransform="matrix(0.0308 -0.1028 -0.1028 -0.0308 -2138.2546 -10207.1123)">
				<stop  offset="0" style="stop-color:#F69923"/>
				<stop  offset="0.3123" style="stop-color:#F79A23"/>
				<stop  offset="0.8383" style="stop-color:#E97826"/>
			</linearGradient>
			<path fill="url(#SVGID_11_)" d="M-55.788,68.853c-3.558,0.522-7.197,0.946-9.834,1.079c-0.153,0.008-0.294-0.045-0.397-0.148
				c-0.007,0.005-0.094,0.01-0.131,0.008c-0.193-0.009-0.363-0.12-0.447-0.288l-3.573-6.752c3.958-5.367,7.24-8.674,9.304-9.904
				c0.561-0.336,1.148-0.547,1.739-0.634c3.659-0.537,6.393,3.808,6.509,3.993c0.081,0.102,2.807,3.738,1.408,11.551
				C-52.974,68.426-54.376,68.646-55.788,68.853z"/>
			<path fill="#C7CAE2" d="M-59.046,52.753c3.344-0.491,5.964,3.74,5.964,3.74s2.71,3.505,1.332,11.168
				c-1.315,0.227-2.714,0.45-4.127,0.658c-3.533,0.518-7.154,0.938-9.774,1.071c3.808-5.864,6.331-8.808,7.173-9.719
				c0.037-0.042,0.072-0.08,0.103-0.114c0.068-0.07,0.14-0.136,0.201-0.213c0,0-0.075,0.075-0.201,0.213
				c-0.036,0.037-0.071,0.074-0.103,0.114c-2.57,2.757-5.14,5.981-7.64,9.579l-3.575-6.752c3.878-4.743,7.149-8.014,9.112-9.182
				C-60.058,53.004-59.544,52.826-59.046,52.753 M-59.204,51.676c-0.662,0.097-1.312,0.334-1.934,0.704
				c-2.121,1.262-5.458,4.611-9.397,9.428c-0.277,0.339-0.324,0.811-0.119,1.198l3.575,6.752c0.177,0.334,0.514,0.552,0.891,0.577
				c0.177,0.101,0.382,0.152,0.594,0.141c2.476-0.126,5.983-0.51,9.876-1.082c1.423-0.209,2.831-0.433,4.155-0.662
				c0.451-0.078,0.805-0.429,0.886-0.88c1.447-8.047-1.419-11.868-1.542-12.026C-52.279,55.722-55.199,51.088-59.204,51.676
				L-59.204,51.676z"/>
		</g>
		<path id="path4712" fill="#C7CAE2" d="M-67.1,91.842l0.514-0.047c-0.014,0.014-0.029,0.02-0.043,0.022
			c-0.009,0.001-0.018,0.001-0.027,0.001c-0.164,0.023-0.35,0.047-0.537,0.07C-67.17,91.865-67.123,91.865-67.1,91.842
			 M-67.258,90.765c-0.127,0.019-0.25,0.06-0.362,0.121c-0.126,0.06-0.256,0.146-0.345,0.235c-0.328,0.329-0.411,0.83-0.206,1.248
			c0.205,0.417,0.652,0.659,1.113,0.601l0.556-0.073c0.001,0,0.003,0,0.004-0.001c0.233-0.034,0.517-0.165,0.683-0.331
			c0.324-0.324,0.41-0.816,0.215-1.231c-0.195-0.415-0.628-0.663-1.084-0.622l-0.514,0.047
			C-67.218,90.759-67.238,90.762-67.258,90.765L-67.258,90.765z"/>
		<path id="path4714" fill="#C7CAE2" d="M-70.3,103.897c-0.28,0.07-0.584,0.117-0.888,0.164
			C-70.885,104.014-70.581,103.967-70.3,103.897 M-70.457,102.82c-0.036,0.005-0.071,0.012-0.107,0.021
			c-0.249,0.062-0.52,0.102-0.79,0.144c-0.594,0.091-1.002,0.647-0.91,1.241c0.091,0.592,0.643,0.998,1.234,0.911
			c0.003,0,0.005-0.001,0.008-0.001c0.337-0.052,0.675-0.106,0.986-0.183c0.583-0.146,0.938-0.737,0.792-1.32
			C-69.381,103.086-69.91,102.74-70.457,102.82L-70.457,102.82z"/>
		<path id="path4716" fill="#C7CAE2" d="M-79.693,92.496l0.35,0.678l0.444-0.047c-0.023,0.047-0.047,0.093-0.07,0.14
			c-0.117,0.257-0.257,0.537-0.397,0.818c-0.397,0.841-0.794,1.682-1.215,2.547c-0.444,0.935-0.888,1.892-1.355,2.874
			c-0.234,0.491-0.467,0.981-0.701,1.495c-0.701,1.519-1.402,3.084-2.126,4.696c-0.888,1.986-1.776,4.042-2.687,6.191
			c-0.864,2.033-1.752,4.159-2.64,6.331c-0.841,2.079-1.706,4.229-2.57,6.425c-0.771,1.986-1.542,3.995-2.336,6.074
			c-0.047,0.093-0.07,0.21-0.117,0.304c-0.771,2.056-1.565,4.182-2.29,6.402c0,0.047-0.023,0.093-0.047,0.14l-0.491,0.047
			l-0.561-1.098c0.607-1.659,1.238-3.318,1.892-5.023c0.164-0.467,0.35-0.958,0.537-1.425c0.794-2.103,1.635-4.229,2.5-6.378
			c0.818-2.056,1.659-4.112,2.523-6.191c0.864-2.079,1.729-4.159,2.64-6.238c0.911-2.103,1.846-4.229,2.804-6.331
			c0.935-2.103,1.892-4.159,2.874-6.215c0.374-0.748,0.724-1.495,1.075-2.22c0.607-1.285,1.238-2.547,1.869-3.785
			C-79.763,92.636-79.716,92.566-79.693,92.496 M-79.851,91.419c-0.39,0.057-0.72,0.322-0.86,0.693
			c-0.028,0.061-0.095,0.213-0.107,0.25c-0.573,1.099-1.209,2.37-1.821,3.665l-0.34,0.707c-0.236,0.492-0.475,0.992-0.725,1.491
			c-0.994,2.083-1.956,4.148-2.895,6.259c-0.957,2.1-1.894,4.232-2.808,6.341c-0.912,2.082-1.779,4.167-2.646,6.253
			c-0.867,2.085-1.71,4.146-2.53,6.207c-0.866,2.153-1.71,4.286-2.507,6.396c-0.185,0.462-0.378,0.968-0.547,1.45
			c-0.645,1.681-1.278,3.344-1.887,5.008c-0.104,0.284-0.085,0.599,0.053,0.869l0.561,1.098c0.203,0.398,0.628,0.631,1.073,0.588
			l0.491-0.047c0.018-0.002,0.037-0.004,0.055-0.007c0.351-0.051,0.656-0.271,0.815-0.59c0.036-0.072,0.075-0.18,0.105-0.291
			l0.003,0.001c0.719-2.204,1.508-4.315,2.274-6.357c0.016-0.032,0.102-0.264,0.114-0.298c0.794-2.077,1.564-4.085,2.334-6.069
			c0.861-2.188,1.725-4.334,2.564-6.411c0.884-2.164,1.77-4.286,2.633-6.314c0.909-2.144,1.794-4.193,2.679-6.173l0.218-0.486
			c0.645-1.437,1.274-2.837,1.903-4.199c0.232-0.511,0.462-0.993,0.691-1.474l0.734-1.555l0.626-1.329
			c0.418-0.859,0.817-1.704,1.216-2.549c0.136-0.271,0.282-0.564,0.404-0.832c0.162-0.355,0.155-0.84-0.073-1.157
			c-0.162-0.224-0.382-0.41-0.634-0.485l-0.041-0.079c-0.201-0.389-0.615-0.619-1.051-0.585
			C-79.802,91.413-79.826,91.415-79.851,91.419L-79.851,91.419z"/>
		<path id="path4718" fill="#C7CAE2" d="M-71.264,105.161l0.027-0.004c0.297-0.044,0.497-0.319,0.446-0.615
			c-0.051-0.296-0.334-0.501-0.631-0.458c-0.297,0.044-0.503,0.32-0.459,0.617C-71.838,104.999-71.561,105.205-71.264,105.161
			L-71.264,105.161z"/>
		<g id="path4720" inkscape:connector-curvature="0">
			<path fill="#BE202E" d="M-73.955,110.769c-0.297,0.033-0.563-0.179-0.599-0.471s0.168-0.562,0.455-0.608
				c0.007-0.001,0.227-0.008,0.356,0.018c0.052-0.048,0.12-0.087,0.213-0.105l0.008,0.054c0.04-0.028,0.229-0.092,0.229-0.092
				c0.295-0.043,0.86,0.095,0.917,0.381c0.058,0.293,0.165,0.52-0.121,0.581c-0.014,0.002-1.219,0.216-1.226,0.217
				C-73.731,110.743-73.948,110.768-73.955,110.769z"/>
			<path fill="#C7CAE2" d="M-72.613,109.995c-0.155,0.034-0.322,0.069-0.493,0.094c-0.03,0.004-0.06,0.008-0.089,0.012
				C-73.002,110.069-72.808,110.034-72.613,109.995 M-73.291,110.112c0.032-0.003,0.063-0.007,0.095-0.011
				c-0.08,0.013-0.159,0.026-0.239,0.039C-73.387,110.131-73.338,110.121-73.291,110.112 M-73.435,110.14
				c-0.116,0.022-0.236,0.043-0.354,0.06c-0.077,0.011-0.153,0.021-0.226,0.028C-73.822,110.2-73.629,110.171-73.435,110.14
				 M-72.771,108.918c-0.019,0.003-0.037,0.006-0.056,0.01l-0.532,0.097c-0.034,0.004-0.089,0.011-0.122,0.016
				c-0.01,0.001-0.018,0.003-0.023,0.004l0.002,0.009c-0.03,0.002-0.061,0.005-0.091,0.01c-0.004,0.001-0.008,0.001-0.013,0.002
				l-0.571,0.087c-0.584,0.088-0.992,0.625-0.919,1.211c0.073,0.586,0.6,1.007,1.188,0.949c0.017-0.002,0.26-0.032,0.276-0.034
				l0.36-0.061l-0.004,0.001l0.004-0.001l0.001,0c0.002,0,0.004-0.001,0.006-0.001c0.01-0.002,0.02-0.003,0.03-0.005l0.002,0
				c0.008-0.001,0.015-0.003,0.023-0.005c0.001,0,0.001,0,0.002,0c0.001,0,0.002,0,0.003-0.001c0.022-0.005,0.043-0.01,0.064-0.016
				c0.026-0.001,0.052-0.004,0.079-0.007c0.017-0.002,0.033-0.005,0.049-0.007c0.283-0.042,0.466-0.079,0.636-0.117
				c0.582-0.129,0.952-0.704,0.829-1.287C-71.668,109.205-72.206,108.835-72.771,108.918L-72.771,108.918z M-72.455,111.072
				l0.027-0.004L-72.455,111.072L-72.455,111.072z"/>
		</g>
		<g id="path4722" inkscape:connector-curvature="0" opacity="0.35" enable-background="new    ">
			<path fill="#BE202E" d="M-73.955,110.769c-0.297,0.033-0.563-0.179-0.599-0.471s0.168-0.562,0.455-0.608
				c0.007-0.001,0.227-0.008,0.356,0.018c0.052-0.048,0.12-0.087,0.213-0.105l0.008,0.054c0.04-0.028,0.229-0.092,0.229-0.092
				c0.295-0.043,0.86,0.095,0.917,0.381c0.058,0.293,0.165,0.52-0.121,0.581c-0.014,0.002-1.219,0.216-1.226,0.217
				C-73.731,110.743-73.948,110.768-73.955,110.769z"/>
			<path fill="#C7CAE2" d="M-72.613,109.995c-0.155,0.034-0.322,0.069-0.493,0.094c-0.03,0.004-0.06,0.008-0.089,0.012
				C-73.002,110.069-72.808,110.034-72.613,109.995 M-73.291,110.112c0.032-0.003,0.063-0.007,0.095-0.011
				c-0.08,0.013-0.159,0.026-0.239,0.039C-73.387,110.131-73.338,110.121-73.291,110.112 M-73.435,110.14
				c-0.116,0.022-0.236,0.043-0.354,0.06c-0.077,0.011-0.153,0.021-0.226,0.028C-73.822,110.2-73.629,110.171-73.435,110.14
				 M-72.771,108.918c-0.019,0.003-0.037,0.006-0.056,0.01l-0.532,0.097c-0.034,0.004-0.089,0.011-0.122,0.016
				c-0.01,0.001-0.018,0.003-0.023,0.004l0.002,0.009c-0.03,0.002-0.061,0.005-0.091,0.01c-0.004,0.001-0.008,0.001-0.013,0.002
				l-0.571,0.087c-0.584,0.088-0.992,0.625-0.919,1.211c0.073,0.586,0.6,1.007,1.188,0.949c0.017-0.002,0.26-0.032,0.276-0.034
				l0.36-0.061l-0.004,0.001l0.004-0.001l0.001,0c0.002,0,0.004-0.001,0.006-0.001c0.01-0.002,0.02-0.003,0.03-0.005l0.002,0
				c0.008-0.001,0.015-0.003,0.023-0.005c0.001,0,0.001,0,0.002,0c0.001,0,0.002,0,0.003-0.001c0.022-0.005,0.043-0.01,0.064-0.016
				c0.026-0.001,0.052-0.004,0.079-0.007c0.017-0.002,0.033-0.005,0.049-0.007c0.283-0.042,0.466-0.079,0.636-0.117
				c0.582-0.129,0.952-0.704,0.829-1.287C-71.668,109.205-72.206,108.835-72.771,108.918L-72.771,108.918z M-72.455,111.072
				l0.027-0.004L-72.455,111.072L-72.455,111.072z"/>
		</g>
		<g id="path4724" inkscape:connector-curvature="0">
			<path fill="#BE202E" d="M-71.427,104.63c-0.296-0.008-0.538-0.256-0.53-0.555c0.004-0.273,0.208-0.49,0.467-0.528
				c0.029-0.004,0.058-0.008,0.087-0.005c0.266,0.005,0.485,0.194,0.535,0.44c0,0,0.483-0.623,0.49-0.624
				c0.281-0.041,0.55,0.14,0.614,0.421c0.064,0.289-0.114,0.576-0.405,0.648c-0.263,0.064-0.838,0.156-0.845,0.157
				C-71.051,104.589-71.427,104.63-71.427,104.63z"/>
			<path fill="#C7CAE2" d="M-70.3,103.897l0.027-0.004 M-70.3,103.897c-0.28,0.07-0.584,0.117-0.888,0.163
				c-0.023,0-0.046,0.003-0.069,0.006c-0.024,0.004-0.049,0.008-0.073,0.012c-0.023,0.003-0.046,0.006-0.069,0.006
				C-71.025,104.014-70.651,103.967-70.3,103.897 M-71.416,104.084c0,0,0.006,0,0.018,0
				C-71.41,104.084-71.416,104.084-71.416,104.084 M-70.458,102.82c-0.019,0.003-0.037,0.006-0.056,0.01l-0.538,0.092l-0.501,0.084
				c-0.002,0-0.004,0.001-0.006,0.001c-0.525,0.077-0.934,0.526-0.937,1.071c-0.003,0.6,0.47,1.089,1.07,1.094
				c0.001,0,0.008,0,0.013,0c0.005,0,0.011,0,0.016,0c0,0,0,0,0,0c0.053,0,0.106-0.004,0.157-0.012
				c0.014-0.002,0.028-0.004,0.042-0.007c0.044-0.004,0.079-0.007,0.083-0.008c0,0,0,0,0,0c0.049-0.007,0.096-0.014,0.142-0.021
				c0.356-0.052,0.649-0.101,0.921-0.169c0.546-0.128,0.924-0.656,0.841-1.22c-0.087-0.595-0.627-1.008-1.222-0.921l-0.016,0.002
				C-70.451,102.819-70.454,102.82-70.458,102.82L-70.458,102.82z M-70.142,104.974l0.027-0.004L-70.142,104.974L-70.142,104.974z"
				/>
		</g>
		<g id="path4726" inkscape:connector-curvature="0" opacity="0.35" enable-background="new    ">
			<path fill="#BE202E" d="M-71.427,104.63c-0.296-0.008-0.538-0.256-0.53-0.555c0.004-0.273,0.208-0.49,0.467-0.528
				c0.029-0.004,0.058-0.008,0.087-0.005c0.266,0.005,0.485,0.194,0.535,0.44c0,0,0.483-0.623,0.49-0.624
				c0.281-0.041,0.55,0.14,0.614,0.421c0.064,0.289-0.114,0.576-0.405,0.648c-0.263,0.064-0.838,0.156-0.845,0.157
				C-71.051,104.589-71.427,104.63-71.427,104.63z"/>
			<path fill="#C7CAE2" d="M-70.3,103.897l0.027-0.004 M-70.3,103.897c-0.28,0.07-0.584,0.117-0.888,0.163
				c-0.023,0-0.046,0.003-0.069,0.006c-0.024,0.004-0.049,0.008-0.073,0.012c-0.023,0.003-0.046,0.006-0.069,0.006
				C-71.025,104.014-70.651,103.967-70.3,103.897 M-71.416,104.084c0,0,0.006,0,0.018,0
				C-71.41,104.084-71.416,104.084-71.416,104.084 M-70.458,102.82c-0.019,0.003-0.037,0.006-0.056,0.01l-0.538,0.092l-0.501,0.084
				c-0.002,0-0.004,0.001-0.006,0.001c-0.525,0.077-0.934,0.526-0.937,1.071c-0.003,0.6,0.47,1.089,1.07,1.094
				c0.001,0,0.008,0,0.013,0c0.005,0,0.011,0,0.016,0c0,0,0,0,0,0c0.053,0,0.106-0.004,0.157-0.012
				c0.014-0.002,0.028-0.004,0.042-0.007c0.044-0.004,0.079-0.007,0.083-0.008c0,0,0,0,0,0c0.049-0.007,0.096-0.014,0.142-0.021
				c0.356-0.052,0.649-0.101,0.921-0.169c0.546-0.128,0.924-0.656,0.841-1.22c-0.087-0.595-0.627-1.008-1.222-0.921l-0.016,0.002
				C-70.451,102.819-70.454,102.82-70.458,102.82L-70.458,102.82z M-70.142,104.974l0.027-0.004L-70.142,104.974L-70.142,104.974z"
				/>
		</g>
		<g id="path4737" inkscape:connector-curvature="0">
			
				<linearGradient id="SVGID_12_" gradientUnits="userSpaceOnUse" x1="-87394.3359" y1="-45713.8789" x2="-87231.7344" y2="-45713.8789" gradientTransform="matrix(0.0308 -0.1028 -0.1028 -0.0308 -2138.2546 -10207.1123)">
				<stop  offset="0.3233" style="stop-color:#9E2064"/>
				<stop  offset="0.6302" style="stop-color:#C92037"/>
				<stop  offset="0.7514" style="stop-color:#CD2335"/>
				<stop  offset="1" style="stop-color:#E97826"/>
			</linearGradient>
			<path fill="url(#SVGID_12_)" d="M-79.723,93.019c-0.199-0.004-0.385-0.12-0.478-0.301l-4.651-9.181
				c0.007-0.005,0.151-0.728,0.15-0.732c1.024-1.648,2.052-3.266,3.084-4.86c1.222-1.853,2.436-3.654,3.635-5.364
				c1.303-1.85,2.576-3.608,3.811-5.268c1.107-1.48,2.185-2.863,3.216-4.154c0.113-0.134,0.652-0.67,0.861-0.7
				c0.007-0.001,0.051,0,0.066-0.002c0.166-0.024,0.49-0.223,0.677-0.25c0.058-0.008,0.103,0,0.116,0.038l3.57,6.727
				c-1.22,2.265-2.381,4.032-3.538,5.872c-1.397,2.214-2.57,4.144-3.704,6.146c-1.099,1.935-2.192,3.916-3.292,5.946l-3.035,5.791
				c-0.08,0.155-0.227,0.261-0.399,0.287C-79.665,93.017-79.694,93.018-79.723,93.019z"/>
			<path fill="#C7CAE2" d="M-69.716,62.497l3.575,6.729c-1.192,1.706-2.36,3.481-3.528,5.327c-0.07,0.093-0.14,0.21-0.21,0.327
				c-1.192,1.892-2.36,3.832-3.505,5.841c-1.098,1.939-2.196,3.925-3.294,5.958c-1.005,1.916-2.009,3.855-3.037,5.794l-4.649-9.182
				c0.047-0.07,0.07-0.117,0.117-0.187c1.028-1.659,2.056-3.271,3.084-4.86c1.215-1.846,2.43-3.645,3.621-5.35
				c1.308-1.846,2.57-3.598,3.808-5.257c1.098-1.472,2.173-2.85,3.201-4.135C-70.254,63.152-69.973,62.824-69.716,62.497
				 M-69.875,61.42c-0.273,0.04-0.524,0.183-0.698,0.404l-0.423,0.521l-0.388,0.476c-1.035,1.294-2.117,2.682-3.223,4.164
				c-1.243,1.665-2.51,3.425-3.824,5.278c-1.201,1.72-2.422,3.527-3.642,5.381c-1.036,1.602-2.068,3.22-3.1,4.885
				c-0.2,0.323-0.334,0.913-0.163,1.252l4.649,9.182c0.184,0.363,0.554,0.593,0.961,0.597c0.057,0.001,0.113-0.003,0.168-0.011
				c0.34-0.05,0.64-0.258,0.804-0.567l2.005-3.82l1.035-1.979c1.088-2.014,2.183-3.994,3.277-5.927
				c1.135-1.993,2.295-3.918,3.478-5.797c0.062-0.103,0.11-0.188,0.16-0.254c1.208-1.902,2.367-3.664,3.549-5.356
				c0.234-0.335,0.261-0.773,0.069-1.134l-3.575-6.729c-0.173-0.325-0.498-0.541-0.865-0.574
				C-69.706,61.406-69.791,61.408-69.875,61.42L-69.875,61.42z"/>
		</g>
		<g id="path4748" inkscape:connector-curvature="0">
			
				<linearGradient id="SVGID_13_" gradientUnits="userSpaceOnUse" x1="-87250.375" y1="-45855.5977" x2="-87152.5859" y2="-45855.5977" gradientTransform="matrix(0.0308 -0.1028 -0.1028 -0.0308 -2138.2546 -10207.1123)">
				<stop  offset="0" style="stop-color:#282662"/>
				<stop  offset="0.0955" style="stop-color:#662E8D"/>
				<stop  offset="0.7882" style="stop-color:#9F2064"/>
				<stop  offset="0.9487" style="stop-color:#CD2032"/>
			</linearGradient>
			<path fill="url(#SVGID_13_)" d="M-98.021,153.852c-0.223,0.033-0.445-0.074-0.556-0.279c-0.882-1.6-1.957-3.311-3.254-3.9
				l0.63-3.352l2.817-8.029c0.067-0.194,0.591-1.286,0.8-1.317l3.772-0.421c1.917,0.329,3.623,0.373,5.222,0.139
				c3.083-0.452,5.893-1.961,8.348-4.484c0.082-0.093,0.192-0.146,0.307-0.163c0.137-0.02,0.274,0.011,0.397,0.096
				c0.222,0.159,0.287,0.451,0.167,0.689c-0.497,0.978-0.994,1.853-1.494,2.655c-1.798,2.891-3.827,4.807-7.051,6.553
				c1.391-0.248,2.384-0.85,3.291-1.991c0.087-0.108,0.217-0.179,0.346-0.198c0.122-0.018,0.258,0.006,0.372,0.078
				c0.235,0.149,0.316,0.447,0.198,0.699c-0.243,0.499-0.504,0.979-0.768,1.437c-2.125,3.52-5.71,5.664-10.658,6.391
				c-1.289,0.189-2.666,0.281-4.124,0.274c1.013,1.286,1.593,2.834,1.705,4.547c0.015,0.255-0.149,0.485-0.396,0.558
				C-97.971,153.844-97.999,153.848-98.021,153.852z"/>
			<path fill="#C7CAE2" d="M-79.856,132.587c-0.491,0.958-0.981,1.822-1.472,2.617c-2.079,3.341-4.439,5.374-9.135,7.476l-0.023,0
				l0.023,0c0.923,0.054,1.72,0.03,2.419-0.073c1.726-0.253,2.861-0.987,3.842-2.217c-0.234,0.491-0.491,0.958-0.748,1.402
				c-2.168,3.591-5.833,5.474-10.258,6.123c-1.679,0.246-3.468,0.315-5.326,0.231c1.519,1.402,2.313,3.224,2.43,5.163
				c-1.028-1.869-2.126-3.504-3.504-4.135c0.841-2.43,1.192-3.504,1.612-4.696c0.07-0.257,0.164-0.491,0.257-0.748
				c0-0.023,0.023-0.047,0.023-0.07c0.607-1.776,1.238-3.505,1.846-5.187c0.117-0.327,0.234-0.631,0.35-0.958l3.762-0.421
				c1.787,0.324,3.541,0.382,5.244,0.132C-85.427,136.776-82.505,135.312-79.856,132.587 M-80.014,131.51
				c-0.23,0.034-0.45,0.141-0.622,0.318c-2.366,2.434-5.07,3.888-8.034,4.323c-1.539,0.226-3.185,0.183-4.892-0.126
				c-0.104-0.019-0.21-0.022-0.315-0.011l-3.762,0.421c-0.012,0.001-0.025,0.003-0.037,0.005c-0.397,0.058-0.731,0.331-0.867,0.711
				l-0.171,0.468l-0.179,0.49l-0.251,0.693c-0.531,1.468-1.074,2.97-1.6,4.507c-0.004,0.011-0.007,0.022-0.011,0.033
				c-0.003,0.008-0.005,0.016-0.008,0.024c-0.14,0.379-0.219,0.595-0.282,0.828l-0.636,1.841l-0.954,2.785
				c-0.183,0.53,0.066,1.113,0.576,1.346c1.167,0.534,2.218,2.242,3.004,3.67c0.221,0.402,0.667,0.618,1.111,0.553
				c0.048-0.007,0.097-0.018,0.145-0.031c0.489-0.141,0.815-0.603,0.784-1.111c-0.088-1.454-0.501-2.801-1.214-3.986
				c1.111-0.029,2.175-0.118,3.182-0.266c5.114-0.75,8.825-2.984,11.031-6.638c0.281-0.486,0.552-0.979,0.799-1.496
				c0.21-0.44,0.099-0.958-0.252-1.275c1.162-1.087,2.144-2.321,3.067-3.805c0.507-0.821,1.012-1.71,1.517-2.696
				c0.246-0.48,0.104-1.067-0.334-1.381C-79.458,131.533-79.743,131.471-80.014,131.51L-80.014,131.51z M-79.698,133.664
				l0.027-0.004L-79.698,133.664L-79.698,133.664z"/>
		</g>
		<g id="path4759" inkscape:connector-curvature="0">
			
				<linearGradient id="SVGID_14_" gradientUnits="userSpaceOnUse" x1="-87306.5547" y1="-45716.6914" x2="-87145.8906" y2="-45716.6914" gradientTransform="matrix(0.0308 -0.1028 -0.1028 -0.0308 -2138.2546 -10207.1123)">
				<stop  offset="0.3233" style="stop-color:#9E2064"/>
				<stop  offset="0.6302" style="stop-color:#C92037"/>
				<stop  offset="0.7514" style="stop-color:#CD2335"/>
				<stop  offset="1" style="stop-color:#E97826"/>
			</linearGradient>
			<path fill="url(#SVGID_14_)" d="M-98.533,137.026c-0.218,0.017-0.419-0.1-0.521-0.291l-4.672-9.225
				c0.443-2.798,1.033-5.243,1.734-7.689l0.94-3.121c0.394-1.224,0.849-2.49,1.318-3.802c0.73-1.998,1.546-4.108,2.48-6.316
				c0.826-1.946,1.762-3.985,2.773-6.072c-0.001-0.004,2.178-4.315,3.048-5.951c1.024-1.946,2.085-3.845,3.156-5.717
				c0.978-1.711,1.991-3.379,2.986-5.026l0.884-0.395l-0.466-0.27c0.088-0.153,0.266-0.296,0.446-0.323
				c0.022-0.003,0.044-0.003,0.066-0.002c0.206,0.003,0.415,0.068,0.507,0.246l4.603,9.158l-1.962,4.478l-1.75,3.667
				c-0.732,1.579-1.478,3.164-2.187,4.75c-0.964,2.102-1.9,4.2-2.803,6.323l-2.639,6.233c-0.865,2.077-1.697,4.127-2.514,6.185
				l-3.071,7.805l-1.877,5.006c-0.068,0.187-0.24,0.322-0.434,0.351C-98.503,137.029-98.517,137.031-98.533,137.026z"/>
			<path fill="#C7CAE2" d="M-84.342,83.314l4.603,9.158c-0.023,0.07-0.07,0.14-0.093,0.21c-0.631,1.262-1.262,2.523-1.869,3.785
				c-0.374,0.748-0.724,1.472-1.075,2.22c-0.958,2.056-1.939,4.135-2.874,6.215c-0.958,2.103-1.892,4.205-2.804,6.331
				c-0.888,2.079-1.776,4.159-2.64,6.238c-0.864,2.079-1.706,4.135-2.523,6.191c-0.841,2.149-1.682,4.276-2.5,6.378
				c-0.187,0.491-0.374,0.958-0.561,1.425c-0.631,1.705-1.285,3.364-1.892,5.023l-4.673-9.228c0.491-2.43,1.075-4.86,1.776-7.289
				c0.304-1.028,0.607-2.079,0.935-3.107c0.397-1.215,0.841-2.477,1.308-3.785c0.724-1.986,1.542-4.089,2.477-6.285
				c0.818-1.939,1.752-3.972,2.757-6.051c0.163-0.327,0.327-0.677,0.491-1.005c0.841-1.659,1.682-3.294,2.547-4.93
				c1.028-1.939,2.079-3.832,3.154-5.701c1.051-1.846,2.149-3.645,3.224-5.42C-84.482,83.571-84.412,83.431-84.342,83.314
				 M-84.5,82.237c-0.319,0.047-0.606,0.234-0.775,0.517c-0.004,0.007-0.065,0.112-0.069,0.119c-0.03,0.037-0.138,0.211-0.162,0.251
				l-0.355,0.585c-0.965,1.594-1.943,3.208-2.884,4.86c-1.079,1.876-2.136,3.779-3.17,5.73c-0.868,1.642-1.712,3.283-2.556,4.947
				l-0.255,0.522l-0.238,0.488c-1.02,2.11-1.962,4.16-2.786,6.115c-0.941,2.212-1.766,4.332-2.496,6.335
				c-0.473,1.325-0.92,2.596-1.32,3.82c-0.271,0.852-0.524,1.712-0.774,2.561l-0.17,0.576c-0.682,2.365-1.287,4.846-1.799,7.382
				c-0.048,0.24-0.015,0.489,0.096,0.707l4.673,9.228c0.196,0.387,0.602,0.62,1.035,0.595c0.032-0.002,0.063-0.005,0.094-0.01
				c0.392-0.058,0.726-0.326,0.864-0.703c0.321-0.877,0.656-1.755,0.993-2.639l0.898-2.381l0.557-1.415l1.503-3.838l0.993-2.531
				c0.813-2.045,1.652-4.096,2.515-6.17c0.863-2.076,1.75-4.152,2.636-6.228c0.907-2.117,1.839-4.212,2.793-6.308
				c0.738-1.642,1.503-3.279,2.262-4.904l0.608-1.302c0.345-0.737,0.692-1.453,1.062-2.192c0.609-1.265,1.234-2.516,1.86-3.766
				c0.023-0.046,0.146-0.323,0.162-0.372c0.091-0.275,0.07-0.574-0.06-0.833l-4.603-9.158c-0.178-0.355-0.535-0.584-0.932-0.599
				C-84.368,82.224-84.435,82.228-84.5,82.237L-84.5,82.237z"/>
		</g>
		<g id="path4770" inkscape:connector-curvature="0">
			
				<linearGradient id="SVGID_15_" gradientUnits="userSpaceOnUse" x1="-87214.5781" y1="-45746.3984" x2="-87130.0781" y2="-45746.3984" gradientTransform="matrix(0.0308 -0.1028 -0.1028 -0.0308 -2138.2546 -10207.1123)">
				<stop  offset="0" style="stop-color:#282662"/>
				<stop  offset="0.0955" style="stop-color:#662E8D"/>
				<stop  offset="0.7882" style="stop-color:#9F2064"/>
				<stop  offset="0.9487" style="stop-color:#CD2032"/>
			</linearGradient>
			<path fill="url(#SVGID_15_)" d="M-113.747,178.38c-0.169,0.025-0.343-0.031-0.469-0.159c-0.138-0.142-0.191-0.347-0.131-0.54
				c3.406-11.286,6.484-20.795,9.396-29.058c-0.663-0.079-1.416-0.05-2.252,0.073c-1.451,0.213-3.179,0.724-5.133,1.526
				c-0.042,0.014-0.084,0.027-0.128,0.033c-0.216,0.032-0.441-0.075-0.551-0.272c-0.138-0.237-0.076-0.541,0.143-0.705
				c1.995-1.499,3.735-2.652,5.417-3.223c-0.923-0.475-2.117-1.242-3.494-2.504c-0.191-0.171-0.233-0.459-0.097-0.685
				c0.086-0.138,0.231-0.233,0.386-0.255c0.086-0.013,0.18-0.004,0.265,0.027c2.383,0.872,4.149,1.201,5.403,1.017
				c-0.479-2.814-2.064-6.444-5.36-11.229c-0.107-0.154-0.125-0.35-0.054-0.522c0.074-0.173,0.233-0.292,0.416-0.326
				c0,0,0,0,0.004-0.001c0.497-0.073,3.325,1.903,5.005,3.724c0.24-2.655,0.619-5.212,1.141-7.819
				c0.075-0.188,0.314-0.517,0.516-0.547c0.007-0.001,0.014-0.002,0.022-0.003c0.212-0.009,0.477-0.107,0.571,0.078l4.673,9.233
				c-0.009,0.038-0.136,0.881-0.153,0.913l-2.67,7.279c-6.674,18.623-10.494,31.581-10.53,31.712
				c-0.434,1.182-1.191,1.911-2.268,2.216C-113.7,178.373-113.725,178.376-113.747,178.38z"/>
			<path fill="#C7CAE2" d="M-103.219,127.26l4.673,9.228l0,0.023c-0.163,0.421-0.304,0.818-0.467,1.238
				c-0.678,1.822-1.332,3.598-1.962,5.327c-0.047,0.14-0.093,0.257-0.14,0.397c-0.164,0.491-0.35,0.958-0.514,1.425
				c-5.934,16.565-9.742,29.181-10.303,31.097c-0.327,0.888-0.911,1.565-1.892,1.846c3.201-10.607,6.402-20.606,9.602-29.648
				c-0.872-0.203-1.899-0.212-3.066-0.041c-1.521,0.223-3.282,0.753-5.252,1.559c2.216-1.673,4.411-3.143,6.53-3.454
				c0.16-0.023,0.32-0.04,0.479-0.05c-0.724-0.164-2.57-0.794-5.047-3.061c2.238,0.82,4.203,1.262,5.676,1.046
				c0.08-0.012,0.158-0.025,0.235-0.041c-0.304-3.948-2.43-7.967-5.233-12.032c0,0,0,0,0,0c0.014-0.002,3.909,2.277,5.35,4.603
				c0-0.093,0.023-0.21,0.023-0.304c0.21-2.944,0.631-5.887,1.215-8.831C-103.289,127.471-103.266,127.377-103.219,127.26
				 M-103.378,126.183c-0.381,0.056-0.707,0.31-0.852,0.673c-0.074,0.185-0.113,0.333-0.15,0.518
				c-0.456,2.297-0.802,4.549-1.033,6.724c-1.724-1.623-3.961-3.144-4.628-3.057c-0.006,0.001-0.012,0.002-0.018,0.002
				c-0.369,0.054-0.684,0.293-0.836,0.634c-0.154,0.347-0.117,0.748,0.098,1.061c2.879,4.174,4.428,7.439,4.912,10.401
				c-1.169-0.036-2.589-0.38-4.319-1.014c-0.175-0.064-0.357-0.081-0.532-0.055c-0.312,0.046-0.599,0.227-0.773,0.512
				c-0.27,0.444-0.188,1.017,0.195,1.368c0.964,0.882,1.847,1.535,2.619,2.018c-1.417,0.655-2.88,1.651-4.503,2.875
				c-0.437,0.33-0.561,0.932-0.29,1.407c0.226,0.397,0.669,0.602,1.104,0.539c0.086-0.013,0.171-0.036,0.255-0.07
				c1.911-0.782,3.592-1.284,4.997-1.49c0.512-0.075,0.988-0.111,1.427-0.109c-2.859,8.156-5.863,17.467-9.163,28.406
				c-0.115,0.381-0.013,0.795,0.267,1.078c0.245,0.249,0.593,0.363,0.933,0.313c0.047-0.007,0.094-0.017,0.141-0.03
				c1.234-0.353,2.138-1.223,2.615-2.516c0.061-0.198,3.928-13.302,10.306-31.106l0.212-0.581c0.105-0.284,0.212-0.571,0.31-0.866
				l-0.892-0.742l1.023,0.373c0.63-1.727,1.283-3.5,1.96-5.321l0.235-0.622l0.227-0.602c0.049-0.125,0.074-0.258,0.074-0.393
				c0-0.171-0.04-0.364-0.117-0.517l-4.673-9.228c-0.193-0.382-0.592-0.615-1.019-0.596
				C-103.304,126.175-103.341,126.178-103.378,126.183L-103.378,126.183z"/>
		</g>
		<g id="path4781" inkscape:connector-curvature="0">
			
				<linearGradient id="SVGID_16_" gradientUnits="userSpaceOnUse" x1="-87322.3672" y1="-45837.4609" x2="-87162.4219" y2="-45837.4609" gradientTransform="matrix(0.0308 -0.1028 -0.1028 -0.0308 -2138.2546 -10207.1123)">
				<stop  offset="0.3233" style="stop-color:#9E2064"/>
				<stop  offset="0.6302" style="stop-color:#C92037"/>
				<stop  offset="0.7514" style="stop-color:#CD2335"/>
				<stop  offset="1" style="stop-color:#E97826"/>
			</linearGradient>
			<path fill="url(#SVGID_16_)" d="M-97.461,138.061c-0.152,0.015-0.307-0.036-0.426-0.144c-0.118-0.1-0.177-0.254-0.178-0.408
				l2.431-6.648l2.465-6.417c0.841-2.143,1.672-4.2,2.488-6.211c0.98-2.399,1.867-4.523,2.731-6.559
				c0.906-2.149,1.803-4.212,2.688-6.2l5.403-11.62c0.01-0.035,0.437-0.884,0.455-0.913c0,0,12.675-1.724,12.696-1.727
				c1.826-0.342,3.886-1.045,5.01-1.71c0.111-0.094,0.339-0.197,0.541-0.226c0.108-0.016,0.212-0.009,0.277,0.029
				c0.2,0.11,0.521,0.192,0.488,0.418c-0.049,0.316-0.145,0.764-0.301,1.306l-0.547,1.688l-0.499,1.313
				c-0.37,0.941-0.846,2.008-1.444,3.195c0,0-0.391,0.797-0.39,0.8c-0.718,1.176-1.136,1.738-1.569,2.246
				c-0.006,0.012-0.577,0.629-0.591,0.638c-0.314,0.318-0.622,0.628-0.961,0.921c-0.046,0.036-0.085,0.075-0.131,0.111
				c0.504-0.276,0.922-0.536,1.216-0.741c0.074-0.048,0.151-0.077,0.23-0.089c0.151-0.022,0.313,0.024,0.439,0.131
				c0.186,0.164,0.24,0.432,0.126,0.655c-1.439,2.882-3.141,5.067-5.196,6.66c0.228-0.1,0.764-0.359,0.822-0.367
				c0.151-0.022,0.305,0.021,0.43,0.124c0.168,0.141,0.231,0.371,0.166,0.583c-0.797,2.49-1.644,4.792-2.511,6.906
				c-1.008,2.455-2.055,4.646-3.184,6.633c-1.514,2.672-3.133,4.926-4.956,6.893c-3.804,4.112-9.633,7.461-14.241,8.197
				c-0.043,0.058-0.104,0.096-0.197,0.11L-97.461,138.061z"/>
			<path fill="#C7CAE2" d="M-60.932,89.645c-0.047,0.304-0.14,0.724-0.28,1.238c-0.093,0.35-0.234,0.748-0.374,1.192
				c-0.047,0.164-0.117,0.304-0.163,0.467c-0.14,0.397-0.304,0.818-0.491,1.285c-0.374,0.934-0.841,1.986-1.425,3.154
				c-0.117,0.257-0.257,0.514-0.397,0.794c-0.093,0.187-0.21,0.35-0.327,0.537c-0.35,0.584-0.748,1.121-1.168,1.612
				c-0.187,0.21-0.374,0.397-0.561,0.607c-0.304,0.304-0.607,0.607-0.935,0.888c-0.21,0.187-0.421,0.374-0.654,0.537
				c-1.075,0.818-2.313,1.495-3.762,2.103c0.04,0,0.075-0.004,0.108-0.009c0.017-0.003,0.033-0.005,0.049-0.008
				c0.026-0.004,0.051-0.007,0.076-0.007c0.304-0.047,0.607-0.094,0.888-0.164c2.149-0.491,3.948-1.472,5.046-2.22
				c-1.916,3.832-4.556,6.939-8.761,8.551c0.103-0.019,0.203-0.034,0.3-0.048c0.028-0.004,0.056-0.008,0.084-0.012
				c0.115-0.017,0.228-0.034,0.341-0.057c0.234-0.047,0.467-0.093,0.701-0.14c1.308-0.28,2.5-0.678,3.528-1.215
				c-0.794,2.477-1.635,4.766-2.5,6.869c-1.005,2.43-2.033,4.603-3.154,6.565c-1.495,2.64-3.107,4.883-4.883,6.799
				c-3.779,4.077-9.602,7.391-14.078,8.048c-0.089,0.013-0.179,0.025-0.267,0.036c0.093,0.023,0.164,0.023,0.234,0.047l-3.761,0.421
				c0-0.047,0.023-0.093,0.047-0.14c0.794-2.173,1.589-4.299,2.36-6.355c0.047-0.093,0.07-0.21,0.117-0.304
				c0.794-2.079,1.565-4.112,2.336-6.074c0.864-2.219,1.729-4.346,2.57-6.425c0.888-2.173,1.776-4.299,2.64-6.331
				c0.911-2.149,1.799-4.205,2.687-6.191c0.724-1.612,1.425-3.177,2.126-4.696c0.234-0.514,0.467-1.005,0.701-1.495
				c0.467-0.981,0.911-1.939,1.355-2.874c0.397-0.864,0.818-1.705,1.215-2.547c0.14-0.28,0.257-0.537,0.397-0.818
				c0.023-0.023,0.047-0.07,0.023-0.164l11.822-1.285c-0.023,0.023-0.07,0.023-0.093,0.047c0.125-0.031,0.251-0.052,0.369-0.07
				c0.058-0.009,0.115-0.016,0.168-0.024c0.014-0.014,0.029-0.02,0.043-0.022c0.009-0.001,0.018-0.001,0.027-0.001l3.458-0.374
				l-3.458,0.374c1.752-0.327,3.925-1.028,5.187-1.776C-61.236,89.879-61.072,89.762-60.932,89.645 M-61.09,88.569
				c-0.194,0.028-0.381,0.109-0.539,0.241c-0.1,0.083-0.191,0.145-0.28,0.189c-1.142,0.673-3.129,1.349-4.9,1.679
				c-0.042,0.008-0.083,0.018-0.122,0.03c-0.054,0.008-0.102,0.015-0.147,0.022c-0.054-0.002-0.108,0-0.163,0.005l-11.822,1.285
				c-0.014,0.001-0.027,0.003-0.04,0.005c-0.297,0.044-0.563,0.208-0.735,0.454c-0.098,0.14-0.16,0.299-0.184,0.464l-0.128,0.263
				l-0.19,0.391l-0.494,1.03c-0.247,0.511-0.496,1.026-0.736,1.549l-0.625,1.325l-0.724,1.535c-0.236,0.496-0.473,0.993-0.709,1.513
				c-0.627,1.359-1.257,2.761-1.904,4.201l-0.224,0.499c-0.891,1.994-1.782,4.056-2.696,6.213c-0.866,2.036-1.756,4.167-2.646,6.345
				l-0.267,0.66c-0.759,1.875-1.534,3.791-2.31,5.782c-0.638,1.624-1.277,3.298-1.929,5.008l-0.41,1.073
				c-0.001,0.002-0.118,0.308-0.119,0.31c-0.772,2.059-1.567,4.188-2.363,6.363c-0.044,0.12-0.113,0.386-0.113,0.514
				c0,0.31,0.132,0.605,0.363,0.811c0.231,0.206,0.539,0.305,0.847,0.27l3.762-0.421c0.013-0.001,0.025-0.003,0.038-0.005
				c0.144-0.021,0.279-0.07,0.399-0.142c4.676-0.813,10.521-4.192,14.353-8.326c1.844-1.99,3.49-4.28,5.032-7.002
				c1.091-1.909,2.143-4.097,3.213-6.686c0.908-2.208,1.759-4.546,2.531-6.952c0.135-0.42,0.002-0.881-0.336-1.165
				c-0.001-0.001-0.002-0.002-0.003-0.002c1.566-1.505,2.908-3.406,4.084-5.757c0.222-0.443,0.116-0.98-0.257-1.306
				c-0.063-0.055-0.131-0.102-0.202-0.14l0.043-0.046c0.497-0.579,0.926-1.172,1.288-1.775c0.183-0.284,0.282-0.44,0.367-0.61
				l0.137-0.268c0.099-0.192,0.194-0.378,0.278-0.563c0.582-1.162,1.061-2.241,1.445-3.2c0.193-0.483,0.362-0.917,0.507-1.327
				c0.112-0.311,0.151-0.417,0.184-0.531l0.124-0.381c0.098-0.299,0.187-0.575,0.255-0.829c0.152-0.558,0.253-1.02,0.304-1.353
				c0.069-0.447-0.146-0.891-0.54-1.113C-60.612,88.576-60.856,88.534-61.09,88.569L-61.09,88.569z M-60.774,90.722l0.027-0.004
				L-60.774,90.722L-60.774,90.722z"/>
		</g>
		<g id="path4792" inkscape:connector-curvature="0">
			
				<linearGradient id="SVGID_17_" gradientUnits="userSpaceOnUse" x1="-87416.5312" y1="-45817.5" x2="-87253.9531" y2="-45817.5" gradientTransform="matrix(0.0308 -0.1028 -0.1028 -0.0308 -2138.2546 -10207.1123)">
				<stop  offset="0.3233" style="stop-color:#9E2064"/>
				<stop  offset="0.6302" style="stop-color:#C92037"/>
				<stop  offset="0.7514" style="stop-color:#CD2335"/>
				<stop  offset="1" style="stop-color:#E97826"/>
			</linearGradient>
			<path fill="url(#SVGID_17_)" d="M-78.838,93.691c-0.196,0.021-0.392-0.064-0.504-0.228c-0.112-0.164-0.129-0.375-0.037-0.554
				c1.226-2.479,2.117-4.273,3.016-5.972c1.124-2.17,2.193-4.159,3.221-6.031c1.202-2.185,2.327-4.149,3.401-5.955
				c1.43-2.388,2.578-4.241,3.636-5.86c3.123-0.381,6.876-0.825,10.492-1.356c1.282-0.188,3.754-0.591,3.761-0.592
				c0.173-0.025,0.343,0.034,0.465,0.16c0.129,0.125,0.184,0.304,0.152,0.482c-0.146,0.757-0.311,1.539-0.521,2.368
				c-0.264,0.962-0.629,2.031-1.076,3.197c-0.68,1.785-1.599,3.792-2.641,5.821c-1.055,2.09-2.255,4.186-3.483,6.096
				c-0.399,0.64-0.802,1.254-1.205,1.818c-1.491,2.073-3.063,3.598-6.687,5.274c-0.048,0.022-0.097,0.04-0.148,0.047
				C-67.003,92.407-78.838,93.691-78.838,93.691z"/>
			<path fill="#C7CAE2" d="M-65.651,69.39c2.712-0.138,6.496-0.583,10.135-1.117c1.283-0.188,2.549-0.388,3.743-0.589
				c-0.14,0.748-0.304,1.519-0.514,2.336c-0.257,0.935-0.608,1.986-1.051,3.131c-0.677,1.776-1.589,3.761-2.617,5.771
				c-1.051,2.079-2.243,4.159-3.458,6.051c-0.397,0.631-0.794,1.238-1.191,1.799c-1.495,2.079-3.037,3.505-6.472,5.093
				l-11.822,1.285c1.051-2.103,2.033-4.089,3.014-5.958c1.121-2.173,2.196-4.159,3.224-6.028c1.192-2.173,2.313-4.135,3.388-5.934
				c0.047-0.117,0.117-0.21,0.187-0.327C-67.847,72.847-66.703,71.002-65.651,69.39 M-51.773,67.684l0.027-0.004 M-65.809,68.313
				c-0.307,0.045-0.582,0.22-0.754,0.482c-1.058,1.622-2.209,3.479-3.455,5.547c-0.131,0.207-0.206,0.336-0.265,0.484
				c-1.005,1.656-2.133,3.63-3.331,5.816c-1.032,1.876-2.111,3.87-3.237,6.052c-0.816,1.554-1.635,3.196-2.495,4.919l-0.525,1.051
				c-0.178,0.356-0.147,0.781,0.08,1.108c0.227,0.327,0.615,0.504,1.011,0.461l11.822-1.285c0.013-0.001,0.027-0.003,0.04-0.005
				c0.103-0.015,0.204-0.045,0.299-0.089c3.738-1.729,5.36-3.306,6.898-5.446c0.413-0.583,0.821-1.206,1.229-1.855
				c1.241-1.933,2.456-4.059,3.508-6.14c1.098-2.146,1.995-4.124,2.662-5.874c0.457-1.178,0.818-2.264,1.084-3.23
				c0.207-0.806,0.368-1.554,0.507-2.279c0.055-0.158,0.074-0.33,0.048-0.506c-0.087-0.595-0.627-1.008-1.222-0.921l-0.021,0.003
				c-0.002,0-0.004,0.001-0.005,0.001c-0.008,0.001-0.015,0.002-0.023,0.004c-1.186,0.2-2.445,0.398-3.72,0.585
				c-4.009,0.588-7.572,0.981-10.032,1.107C-65.741,68.304-65.775,68.308-65.809,68.313L-65.809,68.313z"/>
		</g>
		<g id="path4794" inkscape:connector-curvature="0">
			<path fill="#BE202E" d="M-73.937,110.792c-0.288,0.042-0.56-0.153-0.617-0.443c-0.051-0.294,0.143-0.577,0.437-0.631l0.1,0.533
				l-0.029-0.548c0.29-0.028,0.901,0.122,0.943,0.406c0.042,0.285,0.205,0.496-0.073,0.555
				C-73.183,110.667-73.93,110.791-73.937,110.792z"/>
			<path fill="#C7CAE2" d="M-73.531,110.164c0.078-0.011,0.158-0.021,0.24-0.029c-0.112,0.022-0.223,0.039-0.338,0.056
				c-0.029,0.004-0.058,0.009-0.088,0.013c-0.097,0.014-0.196,0.029-0.299,0.048C-73.856,110.22-73.697,110.188-73.531,110.164"/>
		</g>
		<g id="path4796" inkscape:connector-curvature="0" opacity="0.35" enable-background="new    ">
			<path fill="#BE202E" d="M-73.937,110.792c-0.288,0.042-0.56-0.153-0.617-0.443c-0.051-0.294,0.143-0.577,0.437-0.631l0.1,0.533
				l-0.029-0.548c0.29-0.028,0.901,0.122,0.943,0.406c0.042,0.285,0.205,0.496-0.073,0.555
				C-73.183,110.667-73.93,110.791-73.937,110.792z"/>
			<path fill="#C7CAE2" d="M-73.531,110.164c0.078-0.011,0.158-0.021,0.24-0.029c-0.112,0.022-0.223,0.039-0.338,0.056
				c-0.029,0.004-0.058,0.009-0.088,0.013c-0.097,0.014-0.196,0.029-0.299,0.048C-73.856,110.22-73.697,110.188-73.531,110.164"/>
		</g>
		<g id="path4807" inkscape:connector-curvature="0">
			
				<linearGradient id="SVGID_18_" gradientUnits="userSpaceOnUse" x1="-88689.2422" y1="-45672.9102" x2="-88232.1094" y2="-45672.9102" gradientTransform="matrix(0.0308 -0.1028 -0.1028 -0.0308 -2138.2546 -10207.1123)">
				<stop  offset="0.3233" style="stop-color:#9E2064"/>
				<stop  offset="0.6302" style="stop-color:#C92037"/>
				<stop  offset="0.7514" style="stop-color:#CD2335"/>
				<stop  offset="1" style="stop-color:#E97826"/>
			</linearGradient>
			<path fill="url(#SVGID_18_)" d="M-73.937,110.792c-0.288,0.042-0.56-0.153-0.617-0.443c-0.051-0.294,0.143-0.577,0.437-0.631
				l0.1,0.533l-0.029-0.548c0.29-0.028,0.901,0.122,0.943,0.406c0.042,0.285,0.205,0.496-0.073,0.555
				C-73.183,110.667-73.93,110.791-73.937,110.792z"/>
			<path fill="#C7CAE2" d="M-73.531,110.164c0.078-0.011,0.158-0.021,0.24-0.029c-0.112,0.022-0.223,0.039-0.338,0.056
				c-0.029,0.004-0.058,0.009-0.088,0.013c-0.097,0.014-0.196,0.029-0.299,0.048C-73.856,110.22-73.697,110.188-73.531,110.164"/>
		</g>
		<g id="path4809" inkscape:connector-curvature="0">
			<path fill="#BE202E" d="M-71.422,104.084c0.07,0,0.14-0.023,0.234-0.023C-71.258,104.061-71.328,104.084-71.422,104.084
				L-71.422,104.084z"/>
			<path fill="#C7CAE2" d="M-71.422,104.084c0.025,0,0.05-0.003,0.076-0.007c0.016-0.002,0.032-0.005,0.049-0.007
				c0.033-0.005,0.069-0.009,0.109-0.009c-0.025,0-0.05,0.003-0.076,0.007c-0.016,0.002-0.032,0.005-0.049,0.008
				C-71.347,104.08-71.382,104.084-71.422,104.084"/>
		</g>
		<g id="path4811" inkscape:connector-curvature="0" opacity="0.35" enable-background="new    ">
			<path fill="#BE202E" d="M-71.422,104.084c0.07,0,0.14-0.023,0.234-0.023C-71.258,104.061-71.328,104.084-71.422,104.084
				L-71.422,104.084z"/>
			<path fill="#C7CAE2" d="M-71.422,104.084c0.025,0,0.05-0.003,0.076-0.007c0.016-0.002,0.032-0.005,0.049-0.007
				c0.033-0.005,0.069-0.009,0.109-0.009c-0.025,0-0.05,0.003-0.076,0.007c-0.016,0.002-0.032,0.005-0.049,0.008
				C-71.347,104.08-71.382,104.084-71.422,104.084"/>
		</g>
		<g id="path4822" inkscape:connector-curvature="0">
			
				<linearGradient id="SVGID_19_" gradientUnits="userSpaceOnUse" x1="-87316.0547" y1="-45870.6562" x2="-87158.4453" y2="-45870.6562" gradientTransform="matrix(0.0308 -0.1028 -0.1028 -0.0308 -2138.2546 -10207.1123)">
				<stop  offset="0.3233" style="stop-color:#9E2064"/>
				<stop  offset="0.6302" style="stop-color:#C92037"/>
				<stop  offset="0.7514" style="stop-color:#CD2335"/>
				<stop  offset="1" style="stop-color:#E97826"/>
			</linearGradient>
			<path fill="url(#SVGID_19_)" d="M-71.422,104.084c0.07,0,0.14-0.023,0.234-0.023C-71.258,104.061-71.328,104.084-71.422,104.084
				L-71.422,104.084z"/>
			<path fill="#C7CAE2" d="M-71.422,104.084c0.025,0,0.05-0.003,0.076-0.007c0.016-0.002,0.032-0.005,0.049-0.007
				c0.033-0.005,0.069-0.009,0.109-0.009c-0.025,0-0.05,0.003-0.076,0.007c-0.016,0.002-0.032,0.005-0.049,0.008
				C-71.347,104.08-71.382,104.084-71.422,104.084"/>
		</g>
		<g id="path4824" inkscape:connector-curvature="0">
			<polygon fill="#BE202E" points="-71.399,104.084 -71.399,104.084 -71.399,104.084 -71.399,104.084 -71.399,104.084 			"/>
			<path fill="#C7CAE2" d="M-71.241,105.161l0.027-0.004c0.297-0.044,0.497-0.319,0.446-0.615c-0.051-0.296-0.334-0.501-0.631-0.458
				c-0.297,0.044-0.503,0.32-0.459,0.617C-71.814,104.999-71.538,105.205-71.241,105.161L-71.241,105.161z"/>
		</g>
		<g id="path4826" inkscape:connector-curvature="0" opacity="0.35" enable-background="new    ">
			<polygon fill="#BE202E" points="-71.399,104.084 -71.399,104.084 -71.399,104.084 -71.399,104.084 -71.399,104.084 			"/>
			<path fill="#C7CAE2" d="M-71.241,105.161l0.027-0.004c0.297-0.044,0.497-0.319,0.446-0.615c-0.051-0.296-0.334-0.501-0.631-0.458
				c-0.297,0.044-0.503,0.32-0.459,0.617C-71.814,104.999-71.538,105.205-71.241,105.161L-71.241,105.161z"/>
		</g>
		<g id="path4837" inkscape:connector-curvature="0">
			
				<linearGradient id="SVGID_20_" gradientUnits="userSpaceOnUse" x1="-86534.5625" y1="-45984.5742" x2="-86534.5625" y2="-45984.5742" gradientTransform="matrix(0.0308 -0.1028 -0.1028 -0.0308 -2138.2546 -10207.1123)">
				<stop  offset="0.3233" style="stop-color:#9E2064"/>
				<stop  offset="0.6302" style="stop-color:#C92037"/>
				<stop  offset="0.7514" style="stop-color:#CD2335"/>
				<stop  offset="1" style="stop-color:#E97826"/>
			</linearGradient>
			<polygon fill="url(#SVGID_20_)" points="-71.399,104.084 -71.399,104.084 -71.399,104.084 -71.399,104.084 -71.399,104.084 			
				"/>
			<path fill="#C7CAE2" d="M-71.241,105.161l0.027-0.004c0.297-0.044,0.497-0.319,0.446-0.615c-0.051-0.296-0.334-0.501-0.631-0.458
				c-0.297,0.044-0.503,0.32-0.459,0.617C-71.814,104.999-71.538,105.205-71.241,105.161L-71.241,105.161z"/>
		</g>
	</g>
</g>
</svg>
