<?xml version="1.0" encoding="UTF-8" standalone="no"?>
<!-- Generator: Adobe Illustrator 21.1.0, SVG Export Plug-In . SVG Version: 6.00 Build 0)  -->

<svg
   xmlns:dc="http://purl.org/dc/elements/1.1/"
   xmlns:cc="http://creativecommons.org/ns#"
   xmlns:rdf="http://www.w3.org/1999/02/22-rdf-syntax-ns#"
   xmlns:svg="http://www.w3.org/2000/svg"
   xmlns="http://www.w3.org/2000/svg"
   xmlns:sodipodi="http://sodipodi.sourceforge.net/DTD/sodipodi-0.dtd"
   xmlns:inkscape="http://www.inkscape.org/namespaces/inkscape"
   version="1.1"
   id="svg4831"
   inkscape:version="0.91 r13725"
   sodipodi:docname="maven icon (5).svg"
   x="0px"
   y="0px"
   viewBox="0 0 11.962 16"
   enable-background="new 0 0 11.962 16"
   xml:space="preserve"><metadata
     id="metadata5686"><rdf:RDF><cc:Work
         rdf:about=""><dc:format>image/svg+xml</dc:format><dc:type
           rdf:resource="http://purl.org/dc/dcmitype/StillImage" /><dc:title></dc:title></cc:Work></rdf:RDF></metadata><defs
     id="defs5684" /><sodipodi:namedview
     bordercolor="#666666"
     borderopacity="1.0"
     fit-margin-bottom="0"
     fit-margin-left="0"
     fit-margin-right="0"
     fit-margin-top="0"
     id="base"
     inkscape:current-layer="svg4831"
     inkscape:cx="1.3759787"
     inkscape:cy="9.2893162"
     inkscape:document-units="px"
     inkscape:pageopacity="0.0"
     inkscape:pageshadow="2"
     inkscape:window-height="1060"
     inkscape:window-maximized="1"
     inkscape:window-width="1920"
     inkscape:window-x="1918"
     inkscape:window-y="-3"
     inkscape:zoom="44.8"
     pagecolor="#ffffff"
     showgrid="false" /><g
     id="g5442"
     transform="matrix(0.84328975,0,0,0.78236685,1.3614869,1.8526661)"><linearGradient
       id="path7258_1_"
       gradientUnits="userSpaceOnUse"
       x1="-27530.252"
       y1="11463.944"
       x2="-27508.162"
       y2="11489.776"
       gradientTransform="matrix(-0.0186,-0.093,0.093,-0.0186,-1577.1011,-2346.3293)"><stop
         offset="0"
         style="stop-color:#F69923"
         id="stop5445" /><stop
         offset="0.3123"
         style="stop-color:#F79A23"
         id="stop5447" /><stop
         offset="0.8383"
         style="stop-color:#E97826"
         id="stop5449" /></linearGradient><path
       id="path7258"
       inkscape:connector-curvature="0"
       d="M 0.253,0.305 C 0.148,0.554 0.064,1.096 0.026,1.822 L 0.842,2.217 C 0.829,1.697 0.848,1.209 0.9,0.765 0.903,0.732 0.906,0.712 0.906,0.712 0.906,0.73 0.901,0.747 0.9,0.765 0.884,0.911 0.849,1.369 0.897,2.197 1.234,1.922 1.72,1.455 2.104,1.057 1.698,0.227 1.193,0.082 1.193,0.082 c 0,0 -0.722,-0.291 -0.94,0.223 z"
       style="fill:url(#path7258_1_)" /><path
       id="path7260"
       inkscape:connector-curvature="0"
       d="M 2.374,4.412 C 2.377,4.411 2.379,4.409 2.38,4.405 L 2.334,4.446 C 2.333,4.45 2.329,4.453 2.328,4.457 2.344,4.441 2.36,4.426 2.374,4.412 Z"
       style="fill:none" /><path
       id="path7262"
       inkscape:connector-curvature="0"
       d="M 2.874,5.823 C 2.852,5.849 2.826,5.875 2.8,5.901 2.826,5.875 2.852,5.849 2.874,5.823 Z"
       style="fill:none" /><path
       id="path7264"
       inkscape:connector-curvature="0"
       d="M 2.405,10.158 C 2.403,10.146 2.397,10.133 2.395,10.121 2.325,9.866 2.257,9.62 2.192,9.376 2.12,9.105 2.052,8.839 1.987,8.581 1.919,8.311 1.855,8.045 1.795,7.79 1.731,7.521 1.672,7.262 1.617,7.01 1.573,6.805 1.53,6.606 1.491,6.412 1.477,6.346 1.465,6.283 1.453,6.22 1.429,6.093 1.404,5.97 1.381,5.85 1.361,5.738 1.339,5.63 1.318,5.521 1.312,5.484 1.306,5.448 1.299,5.415 1.298,5.409 1.297,5.403 1.296,5.397 L 1.257,5.432 1.176,5.392 C 1.178,5.4 1.179,5.41 1.181,5.419 1.208,5.582 1.236,5.747 1.268,5.912 1.285,6.006 1.304,6.102 1.321,6.2 c 0.05,0.265 0.103,0.529 0.161,0.796 0.056,0.268 0.116,0.537 0.176,0.802 0.06,0.262 0.123,0.522 0.186,0.781 0.063,0.259 0.127,0.515 0.193,0.769 0.068,0.266 0.137,0.528 0.209,0.785 0.015,0.058 0.031,0.118 0.049,0.174 0.057,0.209 0.113,0.412 0.172,0.613 l 0.131,0.066 0.044,-0.039 C 2.641,10.941 2.64,10.935 2.637,10.93 2.549,10.667 2.475,10.408 2.405,10.158 Z"
       style="fill:none" /><path
       id="path7266"
       inkscape:connector-curvature="0"
       d="m 2.78,5.92 0,0 0,0 0,0 z"
       style="fill:none" /><path
       id="path7268"
       inkscape:connector-curvature="0"
       d="M 3.08,6.568 C 3.042,6.61 3.003,6.65 2.963,6.689 l 0,0 C 2.983,6.67 3.005,6.648 3.024,6.627 3.045,6.608 3.064,6.588 3.08,6.568 Z"
       style="fill:#be202e" /><path
       id="path7270"
       inkscape:connector-curvature="0"
       enable-background="new    "
       d="M 3.08,6.568 C 3.042,6.61 3.003,6.65 2.963,6.689 l 0,0 C 2.983,6.67 3.005,6.648 3.024,6.627 3.045,6.608 3.064,6.588 3.08,6.568 Z"
       style="opacity:0.35;fill:#be202e" /><path
       id="path7272"
       inkscape:connector-curvature="0"
       d="m 2.782,5.918 0,0 C 2.78,5.92 2.78,5.92 2.782,5.918 2.788,5.913 2.794,5.906 2.8,5.901 2.826,5.875 2.852,5.849 2.873,5.823 2.845,5.854 2.813,5.885 2.782,5.918 l 0,0 0,0 z"
       style="fill:#be202e" /><path
       id="path7274"
       inkscape:connector-curvature="0"
       enable-background="new    "
       d="m 2.782,5.918 0,0 C 2.78,5.92 2.78,5.92 2.782,5.918 2.788,5.913 2.794,5.906 2.8,5.901 2.826,5.875 2.852,5.849 2.873,5.823 2.845,5.854 2.813,5.885 2.782,5.918 l 0,0 0,0 z"
       style="opacity:0.35;fill:#be202e" /><linearGradient
       id="path7286_1_"
       gradientUnits="userSpaceOnUse"
       x1="-27692.141"
       y1="11451.505"
       x2="-27534.531"
       y2="11451.505"
       gradientTransform="matrix(-0.0186,-0.093,0.093,-0.0186,-1577.1011,-2346.3293)"><stop
         offset="0.3233"
         style="stop-color:#9E2064"
         id="stop5461" /><stop
         offset="0.6302"
         style="stop-color:#C92037"
         id="stop5463" /><stop
         offset="0.7514"
         style="stop-color:#CD2335"
         id="stop5465" /><stop
         offset="1"
         style="stop-color:#E97826"
         id="stop5467" /></linearGradient><path
       id="path7286"
       inkscape:connector-curvature="0"
       d="M 1.055,4.624 C 1.018,4.353 0.983,4.086 0.952,3.823 0.92,3.551 0.896,3.283 0.877,3.019 0.876,3.003 0.875,2.987 0.875,2.973 0.857,2.715 0.844,2.463 0.838,2.216 L 0.024,1.824 C 0.022,1.873 0.019,1.924 0.016,1.977 0.008,2.172 0.002,2.379 0,2.597 c -0.002,0.245 0,0.502 0.005,0.77 0.006,0.247 0.016,0.504 0.029,0.766 0.013,0.224 0.028,0.45 0.046,0.681 0,0.01 0.001,0.016 0.002,0.026 L 1.171,5.392 C 1.134,5.134 1.094,4.878 1.055,4.624 Z"
       style="fill:url(#path7286_1_)" /><linearGradient
       id="path7298_1_"
       gradientUnits="userSpaceOnUse"
       x1="-27673.115"
       y1="11467.309"
       x2="-27579.195"
       y2="11467.309"
       gradientTransform="matrix(-0.0186,-0.093,0.093,-0.0186,-1577.1011,-2346.3293)"><stop
         offset="0.3233"
         style="stop-color:#9E2064"
         id="stop5471" /><stop
         offset="0.6302"
         style="stop-color:#C92037"
         id="stop5473" /><stop
         offset="0.7514"
         style="stop-color:#CD2335"
         id="stop5475" /><stop
         offset="1"
         style="stop-color:#E97826"
         id="stop5477" /></linearGradient><path
       id="path7298"
       inkscape:connector-curvature="0"
       d="m 2.664,11.064 c 0.06,0.203 0.121,0.413 0.188,0.625 0.002,0.002 0.001,0.006 0.003,0.008 0.009,0.031 0.017,0.06 0.028,0.09 0.043,0.143 0.085,0.271 0.175,0.562 0.176,-0.036 0.396,0.043 0.625,0.149 C 3.536,12.321 3.332,12.202 3.088,12.175 3.755,11.73 4.194,11.157 4.132,10.474 4.125,10.414 4.117,10.351 4.105,10.288 4.095,10.55 3.986,10.74 3.667,10.946 L 3.665,10.948 3.667,10.946 C 3.968,10.415 4.051,10.055 4.016,9.59 4.007,9.48 3.994,9.363 3.973,9.237 3.877,9.93 3.505,10.378 2.96,10.644 l -0.33,0.304 c 0.012,0.039 0.022,0.076 0.034,0.116 z"
       style="fill:url(#path7298_1_)" /><linearGradient
       id="path7310_1_"
       gradientUnits="userSpaceOnUse"
       x1="-27683.289"
       y1="11450.021"
       x2="-27525.68"
       y2="11450.021"
       gradientTransform="matrix(-0.0186,-0.093,0.093,-0.0186,-1577.1011,-2346.3293)"><stop
         offset="0.3233"
         style="stop-color:#9E2064"
         id="stop5481" /><stop
         offset="0.6302"
         style="stop-color:#C92037"
         id="stop5483" /><stop
         offset="0.7514"
         style="stop-color:#CD2335"
         id="stop5485" /><stop
         offset="1"
         style="stop-color:#E97826"
         id="stop5487" /></linearGradient><path
       id="path7310"
       inkscape:connector-curvature="0"
       d="M 2.24,10.134 C 2.17,9.876 2.102,9.614 2.031,9.349 1.965,9.095 1.901,8.84 1.838,8.58 1.775,8.321 1.714,8.059 1.653,7.798 1.591,7.531 1.533,7.264 1.477,6.996 1.42,6.732 1.368,6.464 1.315,6.2 1.296,6.104 1.279,6.01 1.262,5.913 1.232,5.75 1.203,5.585 1.175,5.42 1.173,5.411 1.172,5.401 1.169,5.393 L 0.087,4.84 C 0.088,4.856 0.092,4.874 0.091,4.892 0.113,5.137 0.134,5.386 0.163,5.637 0.191,5.891 0.224,6.146 0.261,6.403 0.293,6.62 0.327,6.835 0.363,7.053 0.37,7.096 0.379,7.141 0.387,7.183 0.437,7.452 0.49,7.712 0.548,7.955 0.613,8.232 0.682,8.49 0.752,8.731 0.8,8.889 0.846,9.04 0.893,9.184 0.934,9.305 0.979,9.427 1.022,9.547 1.125,9.829 1.24,10.102 1.364,10.369 l 1.094,0.554 C 2.4,10.722 2.346,10.517 2.286,10.31 2.271,10.252 2.256,10.194 2.24,10.134 Z"
       style="fill:url(#path7310_1_)" /><linearGradient
       id="path7322_2_"
       gradientUnits="userSpaceOnUse"
       x1="-27671.795"
       y1="11452.15"
       x2="-27588.967"
       y2="11452.15"
       gradientTransform="matrix(-0.0186,-0.093,0.093,-0.0186,-1577.1011,-2346.3293)"><stop
         offset="0.3233"
         style="stop-color:#9E2064"
         id="stop5491" /><stop
         offset="0.6302"
         style="stop-color:#C92037"
         id="stop5493" /><stop
         offset="0.7514"
         style="stop-color:#CD2335"
         id="stop5495" /><stop
         offset="1"
         style="stop-color:#E97826"
         id="stop5497" /></linearGradient><path
       id="path7322"
       inkscape:connector-curvature="0"
       d="m 1.38,10.405 c 0.151,0.322 0.317,0.633 0.504,0.93 0.007,0.009 0.013,0.022 0.019,0.031 C 1.6,11.243 1.064,11.3 1.068,11.301 c 0.553,0.192 1.039,0.427 1.345,0.783 -0.122,0.134 -0.349,0.236 -0.636,0.319 0.396,0.043 0.617,-0.026 0.697,-0.062 -0.207,0.172 -0.323,0.488 -0.424,0.827 0.233,-0.381 0.464,-0.633 0.689,-0.729 0.328,1.089 0.724,2.27 1.162,3.509 C 3.975,15.852 3.983,15.747 3.952,15.639 3.871,15.416 3.35,13.943 2.755,11.943 2.738,11.887 2.723,11.829 2.704,11.771 2.699,11.754 2.695,11.74 2.69,11.723 2.629,11.513 2.567,11.298 2.504,11.076 2.49,11.024 2.476,10.977 2.462,10.925 L 2.46,10.921 1.366,10.367 c 0.003,0.014 0.008,0.025 0.014,0.038 z"
       style="fill:url(#path7322_2_)" /><linearGradient
       id="path7322_3_"
       gradientUnits="userSpaceOnUse"
       x1="-27671.795"
       y1="11452.15"
       x2="-27588.967"
       y2="11452.15"
       gradientTransform="matrix(-0.0186,-0.093,0.093,-0.0186,-1577.1011,-2346.3293)"><stop
         offset="0"
         style="stop-color:#F69923"
         id="stop5501" /><stop
         offset="0.3123"
         style="stop-color:#F79A23"
         id="stop5503" /><stop
         offset="0.8383"
         style="stop-color:#E97826"
         id="stop5505" /></linearGradient><path
       id="path7322_1_"
       inkscape:connector-curvature="0"
       enable-background="new    "
       d="m 1.38,10.405 c 0.151,0.322 0.317,0.633 0.504,0.93 0.007,0.009 0.013,0.022 0.019,0.031 C 1.6,11.243 1.064,11.3 1.068,11.301 c 0.553,0.192 1.039,0.427 1.345,0.783 -0.122,0.134 -0.349,0.236 -0.636,0.319 0.396,0.043 0.617,-0.026 0.697,-0.062 -0.207,0.172 -0.323,0.488 -0.424,0.827 0.233,-0.381 0.464,-0.633 0.689,-0.729 0.328,1.089 0.724,2.27 1.162,3.509 C 3.975,15.852 3.983,15.747 3.952,15.639 3.871,15.416 3.35,13.943 2.755,11.943 2.738,11.887 2.723,11.829 2.704,11.771 2.699,11.754 2.695,11.74 2.69,11.723 2.629,11.513 2.567,11.298 2.504,11.076 2.49,11.024 2.476,10.977 2.462,10.925 L 2.46,10.921 1.366,10.367 c 0.003,0.014 0.008,0.025 0.014,0.038 z"
       style="opacity:0.7;fill:url(#path7322_3_)" /><linearGradient
       id="path7334_1_"
       gradientUnits="userSpaceOnUse"
       x1="-27683.289"
       y1="11466.347"
       x2="-27525.68"
       y2="11466.347"
       gradientTransform="matrix(-0.0186,-0.093,0.093,-0.0186,-1577.1011,-2346.3293)"><stop
         offset="0.3233"
         style="stop-color:#9E2064"
         id="stop5509" /><stop
         offset="0.6302"
         style="stop-color:#C92037"
         id="stop5511" /><stop
         offset="0.7514"
         style="stop-color:#CD2335"
         id="stop5513" /><stop
         offset="1"
         style="stop-color:#E97826"
         id="stop5515" /></linearGradient><path
       id="path7334"
       inkscape:connector-curvature="0"
       d="m 1.299,5.415 c 0.006,0.037 0.013,0.069 0.019,0.106 0.021,0.108 0.04,0.218 0.063,0.329 0.023,0.12 0.048,0.243 0.072,0.37 0.012,0.063 0.024,0.127 0.038,0.192 0.039,0.194 0.082,0.393 0.126,0.598 0.055,0.252 0.114,0.511 0.178,0.78 0.06,0.255 0.124,0.521 0.192,0.791 0.065,0.258 0.132,0.522 0.205,0.795 0.064,0.242 0.133,0.49 0.203,0.745 0.002,0.012 0.008,0.025 0.01,0.037 0.071,0.251 0.144,0.51 0.22,0.773 10e-4,0.006 0.002,0.012 0.005,0.017 L 2.96,10.644 C 2.952,10.647 2.945,10.652 2.934,10.656 3.326,10.286 3.662,9.545 3.738,8.876 3.773,8.568 3.77,8.241 3.728,7.883 3.699,7.617 3.644,7.337 3.57,7.034 3.505,6.772 3.425,6.494 3.327,6.202 3.266,6.325 3.18,6.447 3.075,6.566 3.056,6.586 3.037,6.607 3.018,6.628 2.999,6.649 2.978,6.668 2.957,6.69 l 0,0 0,0 0,0 C 3.246,6.241 3.28,5.759 3.194,5.258 3.142,5.406 3.039,5.626 2.868,5.824 2.846,5.85 2.82,5.876 2.794,5.902 2.787,5.907 2.782,5.914 2.773,5.921 l 0,0 0,0 0,0 0,0 0,0 C 2.869,5.761 2.94,5.61 2.985,5.456 2.996,5.424 3.003,5.391 3.01,5.358 3.022,5.308 3.029,5.258 3.037,5.208 3.041,5.175 3.045,5.144 3.048,5.11 3.054,5.034 3.054,4.954 3.047,4.874 3.045,4.848 3.045,4.824 3.041,4.8 3.034,4.763 3.03,4.729 3.023,4.696 2.997,4.544 2.968,4.41 2.938,4.295 2.923,4.237 2.909,4.185 2.894,4.137 2.887,4.118 2.884,4.1 2.877,4.081 2.859,4.029 2.845,3.981 2.829,3.941 2.806,3.882 2.786,3.835 2.769,3.803 l 0,0 0,0 C 2.764,3.824 2.757,3.847 2.745,3.869 2.677,4.029 2.518,4.249 2.374,4.403 L 2.678,4.125 2.374,4.402 C 2.372,4.404 2.37,4.406 2.369,4.41 2.355,4.424 2.339,4.439 2.324,4.457 2.325,4.452 2.329,4.449 2.33,4.445 L 1.29,5.398 c 0.008,0.007 0.009,0.013 0.009,0.017 z"
       style="fill:url(#path7334_1_)" /><linearGradient
       id="path7346_1_"
       gradientUnits="userSpaceOnUse"
       x1="-27693.066"
       y1="11465.581"
       x2="-27535.457"
       y2="11465.581"
       gradientTransform="matrix(-0.0186,-0.093,0.093,-0.0186,-1577.1011,-2346.3293)"><stop
         offset="0.3233"
         style="stop-color:#9E2064"
         id="stop5519" /><stop
         offset="0.6302"
         style="stop-color:#C92037"
         id="stop5521" /><stop
         offset="0.7514"
         style="stop-color:#CD2335"
         id="stop5523" /><stop
         offset="1"
         style="stop-color:#E97826"
         id="stop5525" /></linearGradient><path
       id="path7346"
       inkscape:connector-curvature="0"
       d="m 0.897,2.197 c 0.013,0.228 0.033,0.485 0.059,0.768 0.001,0.017 0,0.031 0.004,0.045 0.023,0.247 0.054,0.514 0.093,0.805 0.033,0.251 0.069,0.516 0.115,0.803 0.037,0.248 0.083,0.506 0.13,0.781 L 2.338,4.447 C 2.555,4.054 2.602,3.81 2.599,3.506 2.598,3.424 2.593,3.338 2.587,3.25 2.57,2.983 2.538,2.701 2.493,2.428 2.45,2.164 2.398,1.91 2.338,1.693 2.3,1.552 2.26,1.427 2.219,1.32 2.181,1.227 2.143,1.142 2.104,1.06 1.72,1.455 1.234,1.922 0.897,2.197 Z"
       style="fill:url(#path7346_1_)" /><path
       id="path7348"
       inkscape:connector-curvature="0"
       d="M 3.025,6.629 C 3.006,6.65 2.986,6.669 2.964,6.691 l 0,0 C 2.983,6.67 3.003,6.65 3.025,6.629 Z"
       style="fill:#be202e" /><path
       id="path7350"
       inkscape:connector-curvature="0"
       enable-background="new    "
       d="M 3.025,6.629 C 3.006,6.65 2.986,6.669 2.964,6.691 l 0,0 C 2.983,6.67 3.003,6.65 3.025,6.629 Z"
       style="opacity:0.35;fill:#be202e" /><linearGradient
       id="path7362_1_"
       gradientUnits="userSpaceOnUse"
       x1="-27683.289"
       y1="11471.232"
       x2="-27525.68"
       y2="11471.232"
       gradientTransform="matrix(-0.0186,-0.093,0.093,-0.0186,-1577.1011,-2346.3293)"><stop
         offset="0.3233"
         style="stop-color:#9E2064"
         id="stop5531" /><stop
         offset="0.6302"
         style="stop-color:#C92037"
         id="stop5533" /><stop
         offset="0.7514"
         style="stop-color:#CD2335"
         id="stop5535" /><stop
         offset="1"
         style="stop-color:#E97826"
         id="stop5537" /></linearGradient><path
       id="path7362"
       inkscape:connector-curvature="0"
       d="M 3.025,6.629 C 3.006,6.65 2.986,6.669 2.964,6.691 l 0,0 C 2.983,6.67 3.003,6.65 3.025,6.629 Z"
       style="fill:url(#path7362_1_)" /><path
       id="path7364"
       inkscape:connector-curvature="0"
       d="M 2.78,5.92 C 2.786,5.915 2.791,5.908 2.8,5.901 2.794,5.906 2.788,5.913 2.78,5.92 l 0,0 z"
       style="fill:#be202e" /><path
       id="path7366"
       inkscape:connector-curvature="0"
       enable-background="new    "
       d="M 2.78,5.92 C 2.786,5.915 2.791,5.908 2.8,5.901 2.794,5.906 2.788,5.913 2.78,5.92 l 0,0 z"
       style="opacity:0.35;fill:#be202e" /><linearGradient
       id="path7378_1_"
       gradientUnits="userSpaceOnUse"
       x1="-27683.289"
       y1="11470.668"
       x2="-27525.68"
       y2="11470.668"
       gradientTransform="matrix(-0.0186,-0.093,0.093,-0.0186,-1577.1011,-2346.3293)"><stop
         offset="0.3233"
         style="stop-color:#9E2064"
         id="stop5543" /><stop
         offset="0.6302"
         style="stop-color:#C92037"
         id="stop5545" /><stop
         offset="0.7514"
         style="stop-color:#CD2335"
         id="stop5547" /><stop
         offset="1"
         style="stop-color:#E97826"
         id="stop5549" /></linearGradient><path
       id="path7378"
       inkscape:connector-curvature="0"
       d="M 2.78,5.92 C 2.786,5.915 2.791,5.908 2.8,5.901 2.794,5.906 2.788,5.913 2.78,5.92 l 0,0 z"
       style="fill:url(#path7378_1_)" /><path
       id="path7380"
       inkscape:connector-curvature="0"
       d="m 2.782,5.918 0,0 0,0 0,0 0,0 0,0 z"
       style="fill:#be202e" /><path
       id="path7382"
       inkscape:connector-curvature="0"
       enable-background="new    "
       d="m 2.782,5.918 0,0 0,0 0,0 0,0 0,0 z"
       style="opacity:0.35;fill:#be202e" /><linearGradient
       id="path7394_1_"
       gradientUnits="userSpaceOnUse"
       x1="-27587.096"
       y1="11470.57"
       x2="-27587.096"
       y2="11470.57"
       gradientTransform="matrix(-0.0186,-0.093,0.093,-0.0186,-1577.1011,-2346.3293)"><stop
         offset="0.3233"
         style="stop-color:#9E2064"
         id="stop5555" /><stop
         offset="0.6302"
         style="stop-color:#C92037"
         id="stop5557" /><stop
         offset="0.7514"
         style="stop-color:#CD2335"
         id="stop5559" /><stop
         offset="1"
         style="stop-color:#E97826"
         id="stop5561" /></linearGradient><path
       id="path7394"
       inkscape:connector-curvature="0"
       d="m 2.782,5.918 0,0 0,0 0,0 0,0 0,0 z"
       style="fill:url(#path7394_1_)" /><linearGradient
       id="path4710_1_"
       gradientUnits="userSpaceOnUse"
       x1="-13227.487"
       y1="18122.764"
       x2="-13205.396"
       y2="18148.596"
       gradientTransform="matrix(0.059,-0.0896,0.0896,0.059,-833.8603,-2252.6587)"><stop
         offset="0"
         style="stop-color:#F69923"
         id="stop5565" /><stop
         offset="0.3123"
         style="stop-color:#F79A23"
         id="stop5567" /><stop
         offset="0.8383"
         style="stop-color:#E97826"
         id="stop5569" /></linearGradient><path
       id="path4710"
       inkscape:connector-curvature="0"
       d="M 10.911,0.509 C 10.627,0.626 10.13,0.996 9.523,1.55 l 0.343,0.966 c 0.402,-0.429 0.806,-0.807 1.201,-1.123 0.029,-0.024 0.047,-0.037 0.047,-0.037 -0.015,0.014 -0.032,0.024 -0.047,0.037 -0.129,0.105 -0.522,0.446 -1.141,1.15 0.49,0.047 1.252,0.057 1.879,0.041 0.332,-0.99 0.041,-1.508 0.041,-1.508 0,0 -0.352,-0.808 -0.935,-0.567 z"
       style="fill:url(#path4710_1_)" /><path
       id="path4712"
       inkscape:connector-curvature="0"
       d="m 9.355,5.501 c 0.003,0 0.006,10e-4 0.01,-0.002 L 9.295,5.496 C 9.292,5.498 9.285,5.497 9.282,5.5 c 0.025,0 0.05,0.001 0.073,0.001 z"
       style="fill:none" /><path
       id="path4714"
       inkscape:connector-curvature="0"
       d="m 8.636,7.033 c -0.039,0.004 -0.08,0.004 -0.121,0.004 0.041,0 0.082,0 0.121,-0.004 z"
       style="fill:none" /><path
       id="path4716"
       inkscape:connector-curvature="0"
       d="M 4.814,10.15 C 4.822,10.139 4.827,10.123 4.835,10.112 4.982,9.852 5.123,9.6 5.264,9.351 5.422,9.077 5.578,8.808 5.73,8.549 5.89,8.278 6.05,8.013 6.204,7.76 6.367,7.492 6.525,7.237 6.681,6.99 6.809,6.79 6.932,6.596 7.055,6.408 7.096,6.344 7.137,6.284 7.177,6.223 7.258,6.102 7.336,5.983 7.413,5.868 7.486,5.761 7.555,5.658 7.624,5.554 7.648,5.52 7.672,5.485 7.692,5.454 7.696,5.448 7.7,5.442 7.704,5.436 L 7.644,5.434 7.611,5.337 C 7.607,5.346 7.599,5.354 7.595,5.363 7.487,5.515 7.378,5.67 7.273,5.829 7.212,5.918 7.151,6.011 7.087,6.103 6.917,6.357 6.75,6.611 6.585,6.872 6.417,7.132 6.251,7.396 6.09,7.658 5.928,7.916 5.772,8.175 5.617,8.434 5.462,8.693 5.31,8.95 5.162,9.207 5.005,9.475 4.852,9.741 4.706,10.005 c -0.034,0.058 -0.068,0.12 -0.099,0.179 -0.12,0.214 -0.236,0.422 -0.349,0.63 l 0.053,0.157 0.066,0.003 C 4.381,10.968 4.385,10.963 4.386,10.956 4.525,10.675 4.672,10.408 4.814,10.15 Z"
       style="fill:none" /><path
       id="path4718"
       inkscape:connector-curvature="0"
       d="m 8.483,7.036 0,0 0,0 0,0 z"
       style="fill:none" /><path
       id="path4720"
       inkscape:connector-curvature="0"
       d="M 8.21,7.798 C 8.146,7.801 8.083,7.801 8.019,7.801 l 0,0 c 0.031,10e-4 0.066,0 0.098,-0.001 0.032,0.001 0.064,0 0.093,-0.002 z"
       style="fill:#be202e" /><path
       id="path4722"
       inkscape:connector-curvature="0"
       enable-background="new    "
       d="M 8.21,7.798 C 8.146,7.801 8.083,7.801 8.019,7.801 l 0,0 c 0.031,10e-4 0.066,0 0.098,-0.001 0.032,0.001 0.064,0 0.093,-0.002 z"
       style="opacity:0.35;fill:#be202e" /><path
       id="path4724"
       inkscape:connector-curvature="0"
       d="m 8.486,7.037 0,0 c -0.003,-0.001 -0.003,-0.001 0,0 0.009,0.001 0.019,0 0.028,0.001 0.041,0 0.082,-0.001 0.121,-0.004 C 8.588,7.036 8.537,7.035 8.486,7.037 l 0,0 0,0 z"
       style="fill:#be202e" /><path
       id="path4726"
       inkscape:connector-curvature="0"
       enable-background="new    "
       d="m 8.486,7.037 0,0 c -0.003,-0.001 -0.003,-0.001 0,0 0.009,0.001 0.019,0 0.028,0.001 0.041,0 0.082,-0.001 0.121,-0.004 C 8.588,7.036 8.537,7.035 8.486,7.037 l 0,0 0,0 z"
       style="opacity:0.35;fill:#be202e" /><linearGradient
       id="path4737_1_"
       gradientUnits="userSpaceOnUse"
       x1="-13387.523"
       y1="18122.668"
       x2="-13229.915"
       y2="18122.668"
       gradientTransform="matrix(0.059,-0.0896,0.0896,0.059,-833.8603,-2252.6587)"><stop
         offset="0.3233"
         style="stop-color:#9E2064"
         id="stop5581" /><stop
         offset="0.6302"
         style="stop-color:#C92037"
         id="stop5583" /><stop
         offset="0.7514"
         style="stop-color:#CD2335"
         id="stop5585" /><stop
         offset="1"
         style="stop-color:#E97826"
         id="stop5587" /></linearGradient><path
       id="path4737"
       inkscape:connector-curvature="0"
       d="M 8.124,4.624 C 8.309,4.376 8.494,4.133 8.677,3.897 8.869,3.653 9.062,3.418 9.257,3.19 9.268,3.176 9.28,3.162 9.291,3.151 9.482,2.929 9.672,2.716 9.863,2.513 L 9.519,1.55 C 9.479,1.588 9.435,1.626 9.391,1.667 9.23,1.818 9.06,1.98 8.886,2.154 8.689,2.35 8.488,2.558 8.278,2.777 8.087,2.98 7.89,3.196 7.693,3.417 7.526,3.608 7.358,3.802 7.189,4.002 7.182,4.01 7.178,4.016 7.17,4.024 L 7.608,5.333 C 7.783,5.096 7.954,4.858 8.124,4.624 Z"
       style="fill:url(#path4737_1_)" /><linearGradient
       id="path4748_1_"
       gradientUnits="userSpaceOnUse"
       x1="-13368.498"
       y1="18138.539"
       x2="-13274.578"
       y2="18138.539"
       gradientTransform="matrix(0.059,-0.0896,0.0896,0.059,-833.8603,-2252.6587)"><stop
         offset="0.3233"
         style="stop-color:#9E2064"
         id="stop5591" /><stop
         offset="0.6302"
         style="stop-color:#C92037"
         id="stop5593" /><stop
         offset="0.7514"
         style="stop-color:#CD2335"
         id="stop5595" /><stop
         offset="1"
         style="stop-color:#E97826"
         id="stop5597" /></linearGradient><path
       id="path4748"
       inkscape:connector-curvature="0"
       d="m 4.303,11.086 c -0.113,0.211 -0.231,0.429 -0.346,0.652 0,0.003 -0.004,0.006 -0.004,0.009 -0.017,0.032 -0.034,0.061 -0.049,0.094 -0.079,0.15 -0.146,0.286 -0.305,0.592 0.171,0.111 0.285,0.349 0.385,0.617 0.022,-0.26 -0.048,-0.517 -0.222,-0.733 0.89,0.172 1.699,0.059 2.192,-0.54 0.043,-0.054 0.086,-0.111 0.127,-0.171 -0.217,0.203 -0.454,0.269 -0.876,0.182 l -0.003,0 0.003,0 C 5.869,11.6 6.222,11.377 6.563,10.974 6.644,10.878 6.726,10.773 6.809,10.655 6.181,11.136 5.525,11.202 4.876,10.983 L 4.369,10.966 c -0.023,0.041 -0.044,0.079 -0.066,0.12 z"
       style="fill:url(#path4748_1_)" /><linearGradient
       id="path4759_1_"
       gradientUnits="userSpaceOnUse"
       x1="-13378.672"
       y1="18121.227"
       x2="-13221.062"
       y2="18121.227"
       gradientTransform="matrix(0.059,-0.0896,0.0896,0.059,-833.8603,-2252.6587)"><stop
         offset="0.3233"
         style="stop-color:#9E2064"
         id="stop5601" /><stop
         offset="0.6302"
         style="stop-color:#C92037"
         id="stop5603" /><stop
         offset="0.7514"
         style="stop-color:#CD2335"
         id="stop5605" /><stop
         offset="1"
         style="stop-color:#E97826"
         id="stop5607" /></linearGradient><path
       id="path4759"
       inkscape:connector-curvature="0"
       d="M 4.7,10 C 4.849,9.737 5.003,9.471 5.156,9.202 5.305,8.945 5.456,8.689 5.611,8.429 5.766,8.17 5.925,7.911 6.083,7.652 6.245,7.388 6.41,7.127 6.578,6.866 6.743,6.61 6.914,6.353 7.081,6.099 7.142,6.007 7.203,5.917 7.267,5.825 7.372,5.67 7.481,5.514 7.589,5.359 7.593,5.35 7.601,5.342 7.605,5.333 L 7.173,4.028 C 7.161,4.042 7.149,4.059 7.135,4.073 6.957,4.288 6.777,4.505 6.601,4.73 6.422,4.957 6.246,5.188 6.071,5.425 5.924,5.625 5.781,5.826 5.637,6.03 5.609,6.07 5.581,6.113 5.553,6.153 5.379,6.41 5.215,6.661 5.069,6.903 4.902,7.176 4.753,7.439 4.618,7.689 4.53,7.853 4.447,8.012 4.371,8.166 4.307,8.296 4.246,8.429 4.186,8.56 4.046,8.869 3.921,9.18 3.808,9.493 l 0.44,1.316 C 4.361,10.601 4.48,10.393 4.597,10.179 4.632,10.12 4.666,10.062 4.7,10 Z"
       style="fill:url(#path4759_1_)" /><linearGradient
       id="path4770_2_"
       gradientUnits="userSpaceOnUse"
       x1="-13367.177"
       y1="18123.408"
       x2="-13284.349"
       y2="18123.408"
       gradientTransform="matrix(0.059,-0.0896,0.0896,0.059,-833.8603,-2252.6587)"><stop
         offset="0.3233"
         style="stop-color:#9E2064"
         id="stop5611" /><stop
         offset="0.6302"
         style="stop-color:#C92037"
         id="stop5613" /><stop
         offset="0.7514"
         style="stop-color:#CD2335"
         id="stop5615" /><stop
         offset="1"
         style="stop-color:#E97826"
         id="stop5617" /></linearGradient><path
       id="path4770"
       inkscape:connector-curvature="0"
       d="M 3.793,9.535 C 3.658,9.914 3.545,10.297 3.46,10.683 3.458,10.695 3.453,10.71 3.451,10.723 3.304,10.385 2.828,10.004 2.831,10.008 c 0.293,0.594 0.497,1.169 0.46,1.699 -0.204,0.011 -0.469,-0.088 -0.765,-0.248 0.285,0.349 0.517,0.469 0.61,0.504 -0.304,-0.026 -0.647,0.136 -0.999,0.329 0.49,-0.121 0.876,-0.141 1.134,-0.04 C 2.67,13.39 2.05,14.655 1.419,16 1.555,15.982 1.645,15.903 1.706,15.792 1.818,15.549 2.569,13.948 3.679,11.865 3.71,11.806 3.744,11.748 3.775,11.686 c 0.009,-0.018 0.017,-0.032 0.026,-0.05 0.117,-0.217 0.239,-0.44 0.364,-0.669 0.03,-0.053 0.056,-0.103 0.086,-0.155 l 0,-0.003 -0.44,-1.316 C 3.803,9.508 3.798,9.52 3.793,9.535 Z"
       style="fill:url(#path4770_2_)" /><linearGradient
       id="path4770_3_"
       gradientUnits="userSpaceOnUse"
       x1="-13367.177"
       y1="18123.408"
       x2="-13284.349"
       y2="18123.408"
       gradientTransform="matrix(0.059,-0.0896,0.0896,0.059,-833.8603,-2252.6587)"><stop
         offset="0"
         style="stop-color:#F69923"
         id="stop5621" /><stop
         offset="0.3123"
         style="stop-color:#F79A23"
         id="stop5623" /><stop
         offset="0.8383"
         style="stop-color:#E97826"
         id="stop5625" /></linearGradient><path
       id="path4770_1_"
       inkscape:connector-curvature="0"
       enable-background="new    "
       d="M 3.793,9.535 C 3.658,9.914 3.545,10.297 3.46,10.683 3.458,10.695 3.453,10.71 3.451,10.723 3.304,10.385 2.828,10.004 2.831,10.008 c 0.293,0.594 0.497,1.169 0.46,1.699 -0.204,0.011 -0.469,-0.088 -0.765,-0.248 0.285,0.349 0.517,0.469 0.61,0.504 -0.304,-0.026 -0.647,0.136 -0.999,0.329 0.49,-0.121 0.876,-0.141 1.134,-0.04 C 2.67,13.39 2.05,14.655 1.419,16 1.555,15.982 1.645,15.903 1.706,15.792 1.818,15.549 2.569,13.948 3.679,11.865 3.71,11.806 3.744,11.748 3.775,11.686 c 0.009,-0.018 0.017,-0.032 0.026,-0.05 0.117,-0.217 0.239,-0.44 0.364,-0.669 0.03,-0.053 0.056,-0.103 0.086,-0.155 l 0,-0.003 -0.44,-1.316 C 3.803,9.508 3.798,9.52 3.793,9.535 Z"
       style="opacity:0.7;fill:url(#path4770_3_)" /><linearGradient
       id="path4781_1_"
       gradientUnits="userSpaceOnUse"
       x1="-13378.672"
       y1="18137.535"
       x2="-13221.062"
       y2="18137.535"
       gradientTransform="matrix(0.059,-0.0896,0.0896,0.059,-833.8603,-2252.6587)"><stop
         offset="0.3233"
         style="stop-color:#9E2064"
         id="stop5629" /><stop
         offset="0.6302"
         style="stop-color:#C92037"
         id="stop5631" /><stop
         offset="0.7514"
         style="stop-color:#CD2335"
         id="stop5633" /><stop
         offset="1"
         style="stop-color:#E97826"
         id="stop5635" /></linearGradient><path
       id="path4781"
       inkscape:connector-curvature="0"
       d="M 7.692,5.454 C 7.668,5.488 7.648,5.52 7.624,5.554 7.554,5.658 7.482,5.762 7.413,5.869 7.336,5.984 7.258,6.103 7.177,6.224 7.136,6.284 7.096,6.345 7.055,6.409 6.932,6.596 6.809,6.791 6.681,6.99 6.525,7.237 6.367,7.492 6.204,7.76 6.05,8.013 5.89,8.278 5.73,8.549 5.578,8.809 5.422,9.074 5.264,9.352 5.123,9.597 4.982,9.852 4.836,10.113 4.828,10.124 4.823,10.14 4.815,10.151 4.673,10.409 4.526,10.676 4.378,10.948 4.374,10.954 4.37,10.959 4.369,10.966 l 0.507,0.017 C 4.867,10.979 4.858,10.977 4.846,10.972 5.455,10.985 6.315,10.655 6.907,10.178 7.18,9.958 7.438,9.692 7.687,9.371 7.874,9.132 8.053,8.864 8.233,8.561 8.39,8.299 8.546,8.012 8.7,7.698 8.553,7.75 8.387,7.779 8.208,7.791 8.176,7.793 8.144,7.794 8.112,7.796 8.08,7.798 8.049,7.796 8.014,7.797 l 0,0 0,0 0,0 C 8.604,7.665 9.014,7.304 9.343,6.833 9.183,6.911 8.925,7.006 8.63,7.029 8.591,7.033 8.55,7.033 8.509,7.034 8.5,7.033 8.49,7.034 8.478,7.033 l 0,0 0,0 0,0 0,0 0,0 C 8.682,6.981 8.86,6.915 9.018,6.827 9.052,6.81 9.084,6.789 9.115,6.768 9.164,6.737 9.21,6.703 9.256,6.668 9.285,6.644 9.313,6.623 9.342,6.598 9.407,6.541 9.471,6.477 9.528,6.407 9.547,6.384 9.566,6.365 9.582,6.342 9.607,6.308 9.63,6.276 9.651,6.245 9.751,6.101 9.834,5.971 9.902,5.854 9.936,5.796 9.966,5.743 9.992,5.693 10.001,5.672 10.013,5.655 10.023,5.634 10.05,5.578 10.077,5.528 10.096,5.483 10.125,5.418 10.145,5.364 10.157,5.324 l 0,0 0,0 C 10.136,5.337 10.112,5.349 10.086,5.358 9.903,5.433 9.601,5.483 9.362,5.493 L 9.828,5.51 9.362,5.493 C 9.359,5.493 9.356,5.492 9.352,5.495 9.33,5.495 9.305,5.494 9.279,5.497 9.283,5.494 9.289,5.495 9.292,5.493 L 7.698,5.433 C 7.7,5.445 7.696,5.451 7.692,5.454 Z"
       style="fill:url(#path4781_1_)" /><linearGradient
       id="path4792_1_"
       gradientUnits="userSpaceOnUse"
       x1="-13388.449"
       y1="18136.736"
       x2="-13230.84"
       y2="18136.736"
       gradientTransform="matrix(0.059,-0.0896,0.0896,0.059,-833.8603,-2252.6587)"><stop
         offset="0.3233"
         style="stop-color:#9E2064"
         id="stop5639" /><stop
         offset="0.6302"
         style="stop-color:#C92037"
         id="stop5641" /><stop
         offset="0.7514"
         style="stop-color:#CD2335"
         id="stop5643" /><stop
         offset="1"
         style="stop-color:#E97826"
         id="stop5645" /></linearGradient><path
       id="path4792"
       inkscape:connector-curvature="0"
       d="M 9.925,2.544 C 9.754,2.737 9.566,2.96 9.362,3.209 9.35,3.223 9.339,3.234 9.33,3.248 9.153,3.466 8.966,3.705 8.765,3.97 8.592,4.198 8.411,4.441 8.22,4.707 8.053,4.936 7.884,5.181 7.704,5.439 l 1.594,0.06 c 0.487,-0.144 0.719,-0.303 0.958,-0.55 0.064,-0.067 0.128,-0.14 0.193,-0.216 0.198,-0.228 0.397,-0.48 0.577,-0.736 0.176,-0.247 0.335,-0.492 0.46,-0.715 0.081,-0.143 0.148,-0.276 0.201,-0.395 0.044,-0.104 0.081,-0.204 0.114,-0.3 C 11.177,2.601 10.415,2.59 9.925,2.544 Z"
       style="fill:url(#path4792_1_)" /><path
       id="path4794"
       inkscape:connector-curvature="0"
       d="m 8.117,7.803 c -0.032,0.002 -0.063,0 -0.098,0.001 l 0,0 C 8.051,7.803 8.083,7.801 8.117,7.803 Z"
       style="fill:#be202e" /><path
       id="path4796"
       inkscape:connector-curvature="0"
       enable-background="new    "
       d="m 8.117,7.803 c -0.032,0.002 -0.063,0 -0.098,0.001 l 0,0 C 8.051,7.803 8.083,7.801 8.117,7.803 Z"
       style="opacity:0.35;fill:#be202e" /><linearGradient
       id="path4807_1_"
       gradientUnits="userSpaceOnUse"
       x1="-13378.672"
       y1="18142.424"
       x2="-13221.062"
       y2="18142.424"
       gradientTransform="matrix(0.059,-0.0896,0.0896,0.059,-833.8603,-2252.6587)"><stop
         offset="0.3233"
         style="stop-color:#9E2064"
         id="stop5651" /><stop
         offset="0.6302"
         style="stop-color:#C92037"
         id="stop5653" /><stop
         offset="0.7514"
         style="stop-color:#CD2335"
         id="stop5655" /><stop
         offset="1"
         style="stop-color:#E97826"
         id="stop5657" /></linearGradient><path
       id="path4807"
       inkscape:connector-curvature="0"
       d="m 8.117,7.803 c -0.032,0.002 -0.063,0 -0.098,0.001 l 0,0 C 8.051,7.803 8.083,7.801 8.117,7.803 Z"
       style="fill:url(#path4807_1_)" /><path
       id="path4809"
       inkscape:connector-curvature="0"
       d="m 8.483,7.036 c 0.009,0.001 0.019,0 0.031,0.001 C 8.505,7.036 8.496,7.038 8.483,7.036 l 0,0 z"
       style="fill:#be202e" /><path
       id="path4811"
       inkscape:connector-curvature="0"
       enable-background="new    "
       d="m 8.483,7.036 c 0.009,0.001 0.019,0 0.031,0.001 C 8.505,7.036 8.496,7.038 8.483,7.036 l 0,0 z"
       style="opacity:0.35;fill:#be202e" /><linearGradient
       id="path4822_1_"
       gradientUnits="userSpaceOnUse"
       x1="-13378.672"
       y1="18141.844"
       x2="-13221.062"
       y2="18141.844"
       gradientTransform="matrix(0.059,-0.0896,0.0896,0.059,-833.8603,-2252.6587)"><stop
         offset="0.3233"
         style="stop-color:#9E2064"
         id="stop5663" /><stop
         offset="0.6302"
         style="stop-color:#C92037"
         id="stop5665" /><stop
         offset="0.7514"
         style="stop-color:#CD2335"
         id="stop5667" /><stop
         offset="1"
         style="stop-color:#E97826"
         id="stop5669" /></linearGradient><path
       id="path4822"
       inkscape:connector-curvature="0"
       d="m 8.483,7.036 c 0.009,0.001 0.019,0 0.031,0.001 C 8.505,7.036 8.496,7.038 8.483,7.036 l 0,0 z"
       style="fill:url(#path4822_1_)" /><path
       id="path4824"
       inkscape:connector-curvature="0"
       d="m 8.486,7.037 0,0 0,0 0,0 0,0 0,0 z"
       style="fill:#be202e" /><path
       id="path4826"
       inkscape:connector-curvature="0"
       enable-background="new    "
       d="m 8.486,7.037 0,0 0,0 0,0 0,0 0,0 z"
       style="opacity:0.35;fill:#be202e" /><linearGradient
       id="path4837_1_"
       gradientUnits="userSpaceOnUse"
       x1="-13273.802"
       y1="18141.748"
       x2="-13273.802"
       y2="18141.748"
       gradientTransform="matrix(0.059,-0.0896,0.0896,0.059,-833.8603,-2252.6587)"><stop
         offset="0.3233"
         style="stop-color:#9E2064"
         id="stop5675" /><stop
         offset="0.6302"
         style="stop-color:#C92037"
         id="stop5677" /><stop
         offset="0.7514"
         style="stop-color:#CD2335"
         id="stop5679" /><stop
         offset="1"
         style="stop-color:#E97826"
         id="stop5681" /></linearGradient><path
       id="path4837"
       inkscape:connector-curvature="0"
       d="m 8.486,7.037 0,0 0,0 0,0 0,0 0,0 z"
       style="fill:url(#path4837_1_)" /></g></svg>